<svg xmlns="http://www.w3.org/2000/svg" viewBox="0 0 17.211 17.916">
  <defs>
    <style>
      .cls-1 {
        fill: #818181;
      }
    </style>
  </defs>
  <path id="essential-regular-55-attachment" class="cls-1" d="M13.616,7.184,6.6-.026l-.75.771,7.013,7.21a2.885,2.885,0,0,1,.182,3.932,2.834,2.834,0,0,1-3.987.032L1.521,4.167a1.682,1.682,0,0,1,.018-2.349A1.574,1.574,0,0,1,3.825,1.8l7.54,7.752a.621.621,0,0,1,.156.436.468.468,0,0,1-.162.384.567.567,0,0,1-.8.006L3.549,3.113l-.75.771,7.013,7.21a1.574,1.574,0,0,0,2.286-.018,1.62,1.62,0,0,0,.487-1.151,1.693,1.693,0,0,0-.469-1.2l-7.541-7.7A2.583,2.583,0,0,0,.8,1.059a2.758,2.758,0,0,0-.03,3.879l7.54,7.752a3.784,3.784,0,0,0,2.755,1.125,3.906,3.906,0,0,0,2.773-1.17A3.958,3.958,0,0,0,13.616,7.184Z" transform="matrix(0.259, 0.966, -0.966, 0.259, 13.348, 0.018)"/>
</svg>
