<svg xmlns="http://www.w3.org/2000/svg" viewBox="0 0 84.086 84.101">
    <defs>
        <style>
            .cls-1{fill:#6f6f6f}.cls-2{fill:#b47eb9}
        </style>
    </defs>
    <g id="ребенок2" transform="translate(-.068 -.054)">
        <path id="Path_804" d="M85.41 48.52a25.33 25.33 0 0 0-13.25-7 1.5 1.5 0 0 0-.56 2.95 22.52 22.52 0 1 1-26.35 26.34 1.5 1.5 0 1 0-2.95.56 25.52 25.52 0 1 0 43.11-22.85z" class="cls-1" data-name="Path 804" transform="translate(-8.73 -7.93)"/>
        <path id="Path_805" d="M51.05 66.84a1.5 1.5 0 0 0 2.12 0l14.47-14.46a1.5 1.5 0 0 0 0-2.12L61.35 44c2.26-2.9 7.86-10.54 7.72-14.9a6.12 6.12 0 0 0-6.23-6.18 1.5 1.5 0 0 0-1.06.44l-14 14.06-9.54-9.54a15.11 15.11 0 1 0-9.68 9.59L38.09 47l-14 14a1.5 1.5 0 0 0-.41 1 6.11 6.11 0 0 0 6.19 6.23H30c4.38 0 11.86-5.48 14.73-7.72zm-22.56-32.6a1.45 1.45 0 0 0-.3.12 12.12 12.12 0 1 1 6.9-6.79 1.5 1.5 0 0 0 .29 1.7L45.6 39.5 43 42.15c-.49.42-1.29 1.22-2.78 2.71l-10-10a1.56 1.56 0 0 0-1.73-.62zm1.47 31a3.08 3.08 0 0 1-3.23-2.67l14.53-14.49 3.78-3.78L63.4 25.94a3.08 3.08 0 0 1 2.67 3.23c.1 3-4.78 10.17-7.89 14a1.5 1.5 0 0 0 .1 2l6.18 6.18-6.18 6.18-6.17 6.17-6.18-6.18a1.5 1.5 0 0 0-2-.1C40.13 60.48 33 65.35 30 65.27z" class="cls-2" data-name="Path 805" transform="translate(-8.73 -7.93)"/>
    </g>
</svg>
