<svg xmlns="http://www.w3.org/2000/svg" viewBox="0 0 12.7 7.951">
    <defs>
        <style>
            .cls-1{fill:#fff}
        </style>
    </defs>
    <path id="Union_16" d="M-837.845 12.655a1.551 1.551 0 0 1 0-2.193l3.7-3.7-3.7-3.7a1.551 1.551 0 0 1 0-2.193 1.551 1.551 0 0 1 2.193 0l4.471 4.471a1.551 1.551 0 0 1 .378.278 1.546 1.546 0 0 1 .453 1.147 1.546 1.546 0 0 1-.453 1.147 1.551 1.551 0 0 1-.378.278l-4.471 4.471a1.546 1.546 0 0 1-1.1.454 1.546 1.546 0 0 1-1.093-.46z" class="cls-1" data-name="Union 16" transform="rotate(90 -412.595 425.704)"/>
</svg>
