<svg xmlns="http://www.w3.org/2000/svg" viewBox="0 0 17.233 13.198">
  <defs>
    <style>
      .cls-1 {
        fill: #fff;
      }
    </style>
  </defs>
  <g id="Group_394" data-name="Group 394" transform="translate(-0.193 0.001)">
    <path id="Path_797" data-name="Path 797" class="cls-1" d="M8.81,13.2q-2.922,0-5.845,0a8.175,8.175,0,0,1-1-.024A1.958,1.958,0,0,1,.416,12.076a1.941,1.941,0,0,1-.223-.951c0-.609,0-1.215,0-1.824,0-1.846,0-3.692,0-5.538A2.066,2.066,0,0,1,.58,2.484a2.008,2.008,0,0,1,1.67-.852c.905-.007,1.812,0,2.717,0A.125.125,0,0,0,5.1,1.548c.111-.239.225-.477.343-.713a1.3,1.3,0,0,1,.421-.46A1.927,1.927,0,0,1,7.033,0C8.228.006,9.425,0,10.62,0a1.831,1.831,0,0,1,1.423.653,2.007,2.007,0,0,1,.244.426c.087.169.164.343.251.511a.117.117,0,0,0,.089.039c.361,0,.721,0,1.082,0,.539,0,1.079,0,1.618,0a2.04,2.04,0,0,1,1.333.457,1.968,1.968,0,0,1,.764,1.568c.007,1.952,0,3.9,0,5.853v1.6a2.051,2.051,0,0,1-2.1,2.085q-3.068,0-6.135,0c-.126,0-.252,0-.377,0Zm0-1.077h5.325c.418,0,.835.005,1.251,0a.945.945,0,0,0,.776-.406,1.052,1.052,0,0,0,.189-.658q0-1.585,0-3.17v-4.1c0-.046,0-.09,0-.136a.972.972,0,0,0-.966-.931c-.98,0-1.96,0-2.94,0a2.181,2.181,0,0,1-.3-.01.5.5,0,0,1-.4-.264c-.159-.31-.314-.624-.455-.943a.678.678,0,0,0-.651-.418c-.443-.014-.886,0-1.33,0-.784,0-1.568-.009-2.352.005a.643.643,0,0,0-.612.373c-.123.259-.245.516-.372.774a1.578,1.578,0,0,1-.16.288.561.561,0,0,1-.469.2q-1.555,0-3.111,0a.921.921,0,0,0-.617.227,1,1,0,0,0-.353.8v7.3c0,.043,0,.085,0,.128a.98.98,0,0,0,.987.948H3.411Q6.111,12.12,8.806,12.118Z" transform="translate(0 0)"/>
    <path id="Path_798" data-name="Path 798" class="cls-1" d="M291.841,209.275a3.771,3.771,0,1,1-3.764-3.776A3.775,3.775,0,0,1,291.841,209.275Zm-6.462-.01a2.692,2.692,0,1,0,2.688-2.686A2.7,2.7,0,0,0,285.379,209.265Z" transform="translate(-279.264 -201.998)"/>
  </g>
</svg>
