<svg xmlns="http://www.w3.org/2000/svg" viewBox="0 0 20.054 14.82">
  <defs>
    <style>
      .cls-1 {
        fill: none;
      }

      .cls-2, .cls-3 {
        stroke: none;
      }

      .cls-3 {
        fill: #fff;
      }
    </style>
  </defs>
  <g id="Union_23" data-name="Union 23" class="cls-1" transform="translate(2068 7143.001)">
    <path class="cls-2" d="M-2065-7128.181a3,3,0,0,1-3-3V-7140a3,3,0,0,1,3-3h9.682a3,3,0,0,1,3,3v1.951l1.292-.85c.852-.557,3.08-.5,3.08,1.4v4.206c0,1.8-2.228,1.7-3.08,1.142l-1.292-.849v1.824a3,3,0,0,1-3,3Z"/>
    <path class="cls-3" d="M -2055.31884765625 -7129.18115234375 C -2054.215576171875 -7129.18115234375 -2053.31787109375 -7130.078125 -2053.31787109375 -7131.18017578125 L -2053.31787109375 -7133.00439453125 L -2053.31787109375 -7134.85791015625 L -2051.768798828125 -7133.84033203125 L -2050.4765625 -7132.9912109375 C -2050.357666015625 -7132.9130859375 -2050.041015625 -7132.79736328125 -2049.6552734375 -7132.79736328125 C -2049.408203125 -7132.79736328125 -2049.1904296875 -7132.8486328125 -2049.07275390625 -7132.935546875 C -2049.031494140625 -7132.9658203125 -2048.945556640625 -7133.02880859375 -2048.945556640625 -7133.29736328125 L -2048.945556640625 -7137.5029296875 C -2048.945556640625 -7137.6953125 -2048.945556640625 -7138.20556640625 -2049.82763671875 -7138.20556640625 C -2050.144287109375 -7138.20556640625 -2050.389892578125 -7138.1201171875 -2050.475830078125 -7138.06396484375 L -2051.768310546875 -7137.2138671875 L -2053.31787109375 -7136.19482421875 L -2053.31787109375 -7138.04931640625 L -2053.31787109375 -7140 C -2053.31787109375 -7141.103515625 -2054.215576171875 -7142.0009765625 -2055.31884765625 -7142.0009765625 L -2065.0009765625 -7142.0009765625 C -2066.103271484375 -7142.0009765625 -2067 -7141.103515625 -2067 -7140 L -2067 -7131.18017578125 C -2067 -7130.078125 -2066.103271484375 -7129.18115234375 -2065.0009765625 -7129.18115234375 L -2055.31884765625 -7129.18115234375 M -2055.31884765625 -7128.18115234375 L -2065.0009765625 -7128.18115234375 C -2066.6572265625 -7128.18115234375 -2068 -7129.5234375 -2068 -7131.18017578125 L -2068 -7140 C -2068 -7141.65625 -2066.6572265625 -7143.0009765625 -2065.0009765625 -7143.0009765625 L -2055.31884765625 -7143.0009765625 C -2053.662353515625 -7143.0009765625 -2052.31787109375 -7141.65625 -2052.31787109375 -7140 L -2052.31787109375 -7138.04931640625 L -2051.025390625 -7138.8994140625 C -2050.7373046875 -7139.087890625 -2050.29150390625 -7139.20556640625 -2049.82763671875 -7139.20556640625 C -2048.9208984375 -7139.20556640625 -2047.945556640625 -7138.75537109375 -2047.945556640625 -7137.5029296875 C -2047.945556640625 -7135.60986328125 -2047.945556640625 -7135.09326171875 -2047.945556640625 -7133.29736328125 C -2047.945556640625 -7132.18408203125 -2048.801513671875 -7131.79736328125 -2049.6552734375 -7131.79736328125 C -2050.178955078125 -7131.79736328125 -2050.70166015625 -7131.94287109375 -2051.025390625 -7132.1552734375 L -2052.31787109375 -7133.00439453125 L -2052.31787109375 -7131.18017578125 C -2052.31787109375 -7129.5234375 -2053.662353515625 -7128.18115234375 -2055.31884765625 -7128.18115234375 Z"/>
  </g>
</svg>
