<svg xmlns="http://www.w3.org/2000/svg" viewBox="0 0 13 13">
    <defs>
        <style>
            .cls-1{fill:#fff}
        </style>
    </defs>
    <path id="Path_1097" d="M2.69 0a2.337 2.337 0 0 1 1.016.68c.492.513.99 1.02 1.508 1.508a1.344 1.344 0 0 1 .01 2.066c-.355.31-.675.66-1.015 1.005A14.44 14.44 0 0 0 7.741 8.8c.365-.365.721-.726 1.081-1.086a1.261 1.261 0 0 1 1.838-.056q1.013.959 1.97 1.975a3.022 3.022 0 0 1 .371.68v.508c-.2.274-.386.558-.6.822-.183.218-.406.406-.6.614a2.312 2.312 0 0 1-1.173.655l-.36.091h-.923l-.117-.046a17.4 17.4 0 0 1-1.838-.548 12.927 12.927 0 0 1-4.415-3.257 11.572 11.572 0 0 1-2.69-4.4c-.127-.391-.193-.8-.284-1.2v-.76A4.33 4.33 0 0 1 .35 1.751 5.054 5.054 0 0 1 2.183 0zM.807 3.2a4.836 4.836 0 0 0 .528 2.1 13.4 13.4 0 0 0 6.025 6.2 5.825 5.825 0 0 0 2.091.66 2.031 2.031 0 0 0 1.909-.629c.2-.228.426-.431.645-.65.228-.234.264-.462.041-.69a78.262 78.262 0 0 0-1.954-1.954.444.444 0 0 0-.675.03c-.355.35-.706.706-1.061 1.056a.8.8 0 0 1-1.142.091 15.043 15.043 0 0 1-3.64-3.645.785.785 0 0 1 .091-1.119c.35-.355.706-.706 1.056-1.061a.462.462 0 0 0 .036-.7.734.734 0 0 0-.107-.112q-.85-.856-1.721-1.716c-.34-.335-.543-.335-.878-.005-.2.2-.4.416-.614.609A1.885 1.885 0 0 0 .807 3.2z" class="cls-1" data-name="Path 1097"/>
</svg>
