<svg xmlns="http://www.w3.org/2000/svg" viewBox="0 0 16.661 15.759">
  <defs>
    <style>
      .cls-1 {
        fill: #fff;
      }
    </style>
  </defs>
  <g id="SOUND_MINUS" data-name="SOUND MINUS" transform="translate(-9.569 -12.06)">
    <path id="Path_793" data-name="Path 793" class="cls-1" d="M31.649,21.069l2.123-2.126a.468.468,0,1,0-.662-.661L30.986,20.41l-2.124-2.128a.468.468,0,1,0-.662.661l2.123,2.126L28.2,23.194a.468.468,0,0,0,.662.661l2.124-2.127,2.124,2.127a.468.468,0,0,0,.662-.661Z" transform="translate(-7.678 -0.662)"/>
    <path id="Path_794" data-name="Path 794" class="cls-1" d="M17.1,27.819a.615.615,0,0,0,.272-.064.607.607,0,0,0,.335-.542V12.666a.606.606,0,0,0-.969-.485L11.766,15.9H9.175a.606.606,0,0,0-.606.606v6.87a.606.606,0,0,0,.606.606h2.59l4.97,3.718A.612.612,0,0,0,17.1,27.819ZM16.493,26,12.33,22.889a.607.607,0,0,0-.363-.121H9.782V17.111h2.186a.607.607,0,0,0,.363-.121l4.162-3.114Z" transform="translate(1 0)"/>
  </g>
</svg>
