<svg id="Group_383" data-name="Group 383" xmlns="http://www.w3.org/2000/svg" viewBox="0 0 14.999 19.721">
  <defs>
    <style>
      .cls-1 {
        fill: #fff;
      }
    </style>
  </defs>
  <path id="Path_788" data-name="Path 788" class="cls-1" d="M86.716,0c.181.039.362.069.539.116A4.26,4.26,0,0,1,90.3,2.858a.225.225,0,0,1-.019.2c-.3.32-.62.628-.948.955-.05-.208-.085-.4-.143-.585a3.062,3.062,0,0,0-5.962.4,7.9,7.9,0,0,0-.046,1.209q-.006,2.473,0,4.949a.4.4,0,0,1-.131.32c-.293.281-.574.57-.859.855-.042.042-.092.085-.173.158-.027-.266-.069-.489-.069-.716,0-2.118-.012-4.237,0-6.355A4.3,4.3,0,0,1,85.7.035.78.78,0,0,0,85.826,0Z" transform="translate(-78.785)"/>
  <path id="Path_789" data-name="Path 789" class="cls-1" d="M14.174,55.4c.277.281.558.562.824.828Q7.915,63.311.828,70.4c-.266-.266-.551-.547-.828-.824Q7.077,62.5,14.174,55.4Z" transform="translate(0 -53.266)"/>
  <path id="Path_790" data-name="Path 790" class="cls-1" d="M84.05,264.107V265.3h.57a.617.617,0,1,1,.008,1.233H82.239a.616.616,0,1,1,0-1.229h.566V264.08A6.17,6.17,0,0,1,79,262.716l.867-.867c.162.1.339.227.528.335a4.418,4.418,0,0,0,2.018.632,10.153,10.153,0,0,0,2.816-.119,4.9,4.9,0,0,0,3.709-4.256c.046-.478.027-.963.039-1.441,0-.1,0-.193,0-.3h1.233c0,.424.008.844,0,1.263a6.131,6.131,0,0,1-4.861,5.974C84.928,264.022,84.5,264.045,84.05,264.107Z" transform="translate(-75.957 -246.813)"/>
  <path id="Path_791" data-name="Path 791" class="cls-1" d="M135.814,184.827v.454c0,1.025.012,2.053-.008,3.077a4.3,4.3,0,0,1-6.594,3.447,2.066,2.066,0,0,1-.189-.131.086.086,0,0,1-.023-.027c.293-.293.582-.578.878-.878a3.354,3.354,0,0,0,1.306.451,3.057,3.057,0,0,0,3.351-2.6c.065-.562.035-1.14.046-1.71a2.638,2.638,0,0,1,.035-.894c.108-.258.4-.439.609-.655.181-.185.358-.377.539-.562C135.783,184.808,135.8,184.819,135.814,184.827Z" transform="translate(-124.031 -177.682)"/>
  <path id="Path_792" data-name="Path 792" class="cls-1" d="M17.761,256.3H18.99c0,.173,0,.35,0,.528a6.328,6.328,0,0,0,.177,1.922.178.178,0,0,1-.027.154c-.3.308-.6.609-.917.921A7.756,7.756,0,0,1,17.761,256.3Z" transform="translate(-17.064 -246.428)"/>
</svg>
