<svg xmlns="http://www.w3.org/2000/svg" viewBox="0 0 20.203 19.802">
    <defs>
        <style>
            .cls-1{fill:#b47eb9}
        </style>
    </defs>
    <g id="Group_335" data-name="Group 335">
        <path id="Path_779" d="M28.235 24.943a1.636 1.636 0 0 1-1.635 1.636h-6.095l-2.135 1.693V26.59h-.69a1.636 1.636 0 0 1-1.631-1.647v-8.9a1.636 1.636 0 0 1 1.636-1.643h3.8v-1.18H17.68a2.825 2.825 0 0 0-2.82 2.82v8.9a2.825 2.825 0 0 0 2.326 2.779v3.005l3.736-2.964h5.661a2.825 2.825 0 0 0 2.835-2.82z" class="cls-1" data-name="Path 779" transform="translate(-14.86 -10.925)"/>
        <path id="Path_780" d="M29.921 16.994a.592.592 0 0 0 .582-.515l1.029-2.269 1.076 2.439 1.631 3.6a.592.592 0 0 0 .54.345h.046a.592.592 0 0 0 .515-.345l1.477-3.258h2.99a.592.592 0 0 0 .515-.587V11.58A2.825 2.825 0 0 0 37.5 8.76h-8.85a2.825 2.825 0 0 0-2.82 2.82v2.11a.592.592 0 1 0 1.184 0v-2.11a1.636 1.636 0 0 1 1.636-1.636h8.913A1.636 1.636 0 0 1 39.2 11.58v4.225h-2.743a.592.592 0 0 0-.582.515l-1.029 2.326-1.117-2.465-1.631-3.6v-.031l-.077-.062-.036-.046-.041-.046-.041-.036-.046-.036-.057-.034h-.51l-.046.026-.046.036-.041.036-.041.046-.051.051-.031.057v.031L29.52 15.81h-3.088a.592.592 0 0 0-.592.592v4.117a2.825 2.825 0 0 0 2.81 2.774h5.661l3.751 2.985v-2.985a2.825 2.825 0 0 0 2.326-2.779v-1.493a.592.592 0 1 0-1.184 0v1.492a1.636 1.636 0 0 1-1.636 1.636h-.695v1.657l-2.136-1.693H28.65a1.636 1.636 0 0 1-1.636-1.636v-3.5z" class="cls-1" data-name="Path 780" transform="translate(-20.185 -8.76)"/>
    </g>
</svg>
