<svg xmlns="http://www.w3.org/2000/svg" viewBox="0 0 11.116 17.755">
  <defs>
    <style>
      .cls-1 {
        fill: #5a3f5d;
        opacity: 0.499;
      }
    </style>
  </defs>
  <path id="Path_809" data-name="Path 809" class="cls-1" d="M-2820.687-1694.982c-6.44-6.35-6.619-6.479-6.779-6.639a2.161,2.161,0,0,1-.634-1.6,2.162,2.162,0,0,1,.634-1.6c.16-.16.339-.29,6.779-6.639a2.169,2.169,0,0,1,3.066,0,2.169,2.169,0,0,1,0,3.067l-5.37,5.176,5.371,5.176a2.168,2.168,0,0,1,0,3.066,2.163,2.163,0,0,1-1.534.635A2.162,2.162,0,0,1-2820.687-1694.982Z" transform="translate(2828.101 1712.102)"/>
</svg>
