<svg xmlns="http://www.w3.org/2000/svg" viewBox="0 0 36 36">
    <defs>
        <style>
            .cls-1{fill:#fff}
        </style>
    </defs>
    <path id="Path_862" d="M18-5353a17.892 17.892 0 0 1-7.006-1.415 17.939 17.939 0 0 1-5.721-3.858 17.94 17.94 0 0 1-3.858-5.721A17.888 17.888 0 0 1 0-5371a17.884 17.884 0 0 1 1.415-7.006 17.933 17.933 0 0 1 3.858-5.721 17.938 17.938 0 0 1 5.721-3.858A17.891 17.891 0 0 1 18-5389a17.891 17.891 0 0 1 7.006 1.415 17.938 17.938 0 0 1 5.722 3.858 17.933 17.933 0 0 1 3.858 5.721A17.884 17.884 0 0 1 36-5371a17.888 17.888 0 0 1-1.415 7.006 17.94 17.94 0 0 1-3.858 5.721 17.939 17.939 0 0 1-5.722 3.858A17.892 17.892 0 0 1 18-5353zm0-16.757l7.592 7.6a.53.53 0 0 0 .376.156.53.53 0 0 0 .376-.156.525.525 0 0 0 .156-.375.526.526 0 0 0-.156-.375l-7.584-7.593 7.585-7.594a.527.527 0 0 0 .155-.375.527.527 0 0 0-.155-.375.527.527 0 0 0-.376-.156.525.525 0 0 0-.376.157l-7.593 7.6-7.593-7.6a.53.53 0 0 0-.377-.156.527.527 0 0 0-.374.155.527.527 0 0 0-.156.375.526.526 0 0 0 .155.375l7.585 7.594-7.585 7.594a.526.526 0 0 0-.155.375.527.527 0 0 0 .156.375.531.531 0 0 0 .375.156.53.53 0 0 0 .376-.156l7.592-7.6z" class="cls-1" data-name="Path 862" transform="translate(0 5389)"/>
</svg>
