<svg xmlns="http://www.w3.org/2000/svg" viewBox="0 0 75.42 84.43">
    <defs>
        <style>
            .cls-1{fill:#6f6f6f}.cls-2{fill:#b47eb9}
        </style>
    </defs>
    <g id="отказ" transform="translate(.03 .01)">
        <path id="Path_801" d="M88.81 78.71v-7.84a1.5 1.5 0 0 0-1.5-1.5H34c-5.09-8.46-14-10-17.6-10.23v-6.66a1.5 1.5 0 0 0-3 0v38.23a1.5 1.5 0 1 0 3 0V80.3h69.42v10.41a1.5 1.5 0 1 0 3 0V78.8a.775.775 0 0 1-.01-.09zm-58.4-9.33h-14v-7.23c2.95.24 9.59 1.43 14 7.22zm55.4 3v4.92H16.43v-4.93" class="cls-1" data-name="Path 801" transform="translate(-13.43 -7.79)"/>
        <path id="Path_802" d="M51.85 37.9v-8.2h8.21a1.5 1.5 0 1 0 0-3h-8.21v-8.2a1.5 1.5 0 0 0-3 0v8.2h-8.2a1.5 1.5 0 0 0 0 3h8.2v8.2a1.5 1.5 0 0 0 3 0z" class="cls-2" data-name="Path 802" transform="translate(-13.43 -7.79)"/>
        <path id="Path_803" d="M50.35 61.11a1.5 1.5 0 0 0 1.22-.62C52.27 59.51 69 36.25 69 26.41a18.63 18.63 0 1 0-37.26 0c0 9.84 16.7 33.09 17.41 34.08a1.5 1.5 0 0 0 1.2.62zm0-50.32A15.65 15.65 0 0 1 66 26.41c0 6.79-10.35 23-15.63 30.61-5.28-7.57-15.62-23.81-15.62-30.61a15.64 15.64 0 0 1 15.6-15.62z" class="cls-1" data-name="Path 803" transform="translate(-13.43 -7.79)"/>
    </g>
</svg>
