<svg xmlns="http://www.w3.org/2000/svg" viewBox="0 0 20.181 22.264">
    <defs>
        <style>
            .cls-1{fill:#9a9a9a}
        </style>
    </defs>
    <path id="essential-regular-55-attachment" d="M22.42 14.067L11.852 3.5 10.74 4.612 21.307 15.18a4.121 4.121 0 0 1 .318 5.721 4.32 4.32 0 0 1-5.959 0L4.3 9.539a2.416 2.416 0 0 1 3.421-3.417l11.362 11.362a.9.9 0 0 1 .238.636.66.66 0 0 1-.238.556.864.864 0 0 1-1.192 0L7.323 8.029 6.211 9.141l10.567 10.568a2.4 2.4 0 0 0 3.417 0 2.287 2.287 0 0 0 .715-1.669 2.465 2.465 0 0 0-.715-1.748L8.833 5.01a3.933 3.933 0 0 0-5.641 0 3.933 3.933 0 0 0 0 5.641l11.362 11.362a5.95 5.95 0 0 0 8.263 0 5.653 5.653 0 0 0-.397-7.946z" class="cls-1" transform="rotate(90 12.84 10.84)"/>
</svg>
