<svg xmlns="http://www.w3.org/2000/svg" viewBox="0 0 18.478 25">
    <defs>
        <style>
            .cls-1{fill:#b47eb9;fill-rule:evenodd}
        </style>
    </defs>
    <g id="Group_557" data-name="Group 557" transform="translate(-169 -342)">
        <path id="_12.File" d="M23.3 26H9.174A2.174 2.174 0 0 1 7 23.826V3.174A2.174 2.174 0 0 1 9.174 1H19.5a.535.535 0 0 1 .422.215l5.342 5.342a.533.533 0 0 1 .215.422v16.847A2.174 2.174 0 0 1 23.3 26zM20.043 2.838v3.6h3.6zm4.348 4.684H19.5a.543.543 0 0 1-.543-.543V2.087H9.174a1.087 1.087 0 0 0-1.087 1.087v20.652a1.087 1.087 0 0 0 1.087 1.087H23.3a1.087 1.087 0 0 0 1.087-1.087zm-3.261 14.13h-9.782a.543.543 0 1 1 0-1.087h9.782a.543.543 0 0 1 0 1.087zm0-3.348h-9.782a.543.543 0 0 1 0-1.087h9.782a.543.543 0 0 1 0 1.087z" class="cls-1" data-name="12.File" transform="translate(162 341)"/>
    </g>
</svg>
