<svg xmlns="http://www.w3.org/2000/svg" viewBox="0 0 28 28.576">
    <defs>
        <style>
            .cls-1{fill:#9a9a9a}
        </style>
    </defs>
    <path id="Path_975" d="M21.443-19.645a2.483 2.483 0 0 0 .634 1.805 2.04 2.04 0 0 0 1.517.653 3.95 3.95 0 0 0 1.46-.288 3.174 3.174 0 0 0 1.325-1.056 6.245 6.245 0 0 0 .979-2.17 14.1 14.1 0 0 0 .384-3.63 9.705 9.705 0 0 0-.9-4.283 9.424 9.424 0 0 0-2.4-3.13 10.771 10.771 0 0 0-3.4-1.94 11.614 11.614 0 0 0-3.9-.672 12.533 12.533 0 0 0-4.84.922 11.834 11.834 0 0 0-3.841 2.516 11.613 11.613 0 0 0-2.535 3.764A11.811 11.811 0 0 0 5-22.487a13.6 13.6 0 0 0 .883 5.012 11.1 11.1 0 0 0 2.477 3.841 10.841 10.841 0 0 0 3.86 2.458 14.02 14.02 0 0 0 5.032.864q1.152 0 2.151-.077a14.16 14.16 0 0 0 1.959-.288 16.827 16.827 0 0 0 1.9-.538 16.288 16.288 0 0 0 1.94-.826l.807 2.228a28.094 28.094 0 0 1-4.091 1.248 20.313 20.313 0 0 1-4.475.48 17.514 17.514 0 0 1-5.992-1 13.924 13.924 0 0 1-4.782-2.861 12.99 12.99 0 0 1-3.15-4.532 15.247 15.247 0 0 1-1.133-6.011 14.219 14.219 0 0 1 1.095-5.588 13.657 13.657 0 0 1 3.034-4.494 14.2 14.2 0 0 1 4.609-3 15.294 15.294 0 0 1 5.857-1.095 14.863 14.863 0 0 1 5.262.922 13 13 0 0 1 4.263 2.573 12.1 12.1 0 0 1 2.842 3.9 11.635 11.635 0 0 1 1.037 4.936 14.191 14.191 0 0 1-.6 4.436 8.322 8.322 0 0 1-1.575 2.9 5.606 5.606 0 0 1-2.254 1.599 7.47 7.47 0 0 1-2.631.48 3.864 3.864 0 0 1-.96-.154 5.413 5.413 0 0 1-1.152-.461 5.1 5.1 0 0 1-1.056-.749 2.1 2.1 0 0 1-.634-1.056h-.193a3.552 3.552 0 0 1-1.652 1.421 6.094 6.094 0 0 1-2.689.576 7.31 7.31 0 0 1-2.016-.269 4.969 4.969 0 0 1-1.652-.807 3.785 3.785 0 0 1-1.114-1.344 4.25 4.25 0 0 1-.4-1.92 4.556 4.556 0 0 1 .288-1.613 3.922 3.922 0 0 1 .864-1.364 4.049 4.049 0 0 1 1.46-.941 5.677 5.677 0 0 1 2.074-.346h4.532v-1.69a2.059 2.059 0 0 0-.883-1.805 4.413 4.413 0 0 0-2.535-.615 3.686 3.686 0 0 0-1.92.48 6.834 6.834 0 0 0-1.344 1.018l-1.767-1.46a6.871 6.871 0 0 1 2.285-1.652 6.965 6.965 0 0 1 2.977-.653 10.842 10.842 0 0 1 2.343.23 4.466 4.466 0 0 1 1.767.787 3.538 3.538 0 0 1 1.114 1.46 5.754 5.754 0 0 1 .384 2.247zm-9.372-.192a1.964 1.964 0 0 0 .787 1.594 3.787 3.787 0 0 0 2.4.634 4.89 4.89 0 0 0 2.785-.672 2.283 2.283 0 0 0 .979-2.016v-1.652h-3.994a3.9 3.9 0 0 0-2.189.519 1.79 1.79 0 0 0-.768 1.593z" class="cls-1" data-name="Path 975" transform="translate(-2.392 36.66)"/>
</svg>
