<svg xmlns="http://www.w3.org/2000/svg" viewBox="0 0 24 24">
    <defs>
        <style>
            .cls-1{fill:#f6f0f7}.cls-2{fill:#b47eb9;stroke:#b47eb9}
        </style>
    </defs>
    <g id="Group_554" data-name="Group 554" transform="translate(-144 -709)">
        <path id="Rectangle_309" d="M0 0h24v24H0z" class="cls-1" data-name="Rectangle 309" transform="translate(144 709)"/>
        <g id="DOWNLOAD" transform="translate(138 702.981)">
            <path id="Path_860" d="M10.559 33a.559.559 0 0 0-.559.559v3.429a.559.559 0 0 0 .559.559h15.654a.559.559 0 0 0 .559-.559v-3.433a.559.559 0 1 0-1.118 0v2.87H11.118v-2.87a.559.559 0 0 0-.559-.555z" class="cls-2" data-name="Path 860" transform="translate(0 -10.524)"/>
            <path id="Path_861" d="M21.015 9.129a.559.559 0 0 0-.559.559v12.026l-3.546-3.426a.559.559 0 0 0-.777.8l4.485 4.333.007.006a.542.542 0 0 0 .069.045.518.518 0 0 0 .107.069.553.553 0 0 0 .211.042.564.564 0 0 0 .211-.042.5.5 0 0 0 .1-.064.5.5 0 0 0 .078-.05l4.499-4.336a.559.559 0 0 0-.778-.8l-3.544 3.427V9.688a.559.559 0 0 0-.563-.559z" class="cls-2" data-name="Path 861" transform="translate(-2.629)"/>
        </g>
    </g>
</svg>
