<svg xmlns="http://www.w3.org/2000/svg" viewBox="0 0 47.476 42.208">
    <defs>
        <style>
            .cls-1{fill:#3cc3b3}
        </style>
    </defs>
    <path id="Subtraction_1" d="M23.871 42.208c-3.216 0-6.471-.009-9.673-.026-.77 0-1.228-.146-1.4-.447s-.063-.772.333-1.437a12 12 0 0 1 2.062-2.63c1.656-1.521 3.357-2.933 5.4-4.586 1.751-1.43 2.153-3.114 1.1-4.622a2.961 2.961 0 0 0-2.438-1.334 4.068 4.068 0 0 0-2.4.907 54.12 54.12 0 0 0-5.971 5.012A20.475 20.475 0 0 0 7.16 38.2a8.683 8.683 0 0 0-.67 1.848A23.738 23.738 0 1 1 45.611 14.5a23.766 23.766 0 0 1-4.439 25.352 9.793 9.793 0 0 0-.772-2.042c-2.4-4.677-6.476-7.736-10.526-10.345a2.471 2.471 0 0 0-1.339-.388 3.17 3.17 0 0 0-2.571 1.455 3.252 3.252 0 0 0 .5 4.053 6.078 6.078 0 0 0 .835.657 6.078 6.078 0 0 1 .835.657c.565.546 1.142 1.092 1.7 1.62 1.55 1.465 3.153 2.98 4.591 4.6.519.588.711 1.12.541 1.5s-.66.565-1.394.565c-3.221.016-6.484.024-9.701.024zm-4.5-15.746a3.452 3.452 0 0 1 2.892 1.608 3.554 3.554 0 0 1 .631 2.977 5.317 5.317 0 0 1-2.088 2.817 273.2 273.2 0 0 0-3.447 2.665 7.738 7.738 0 0 0 6.492 3.028c2.859 0 5.315-1.2 6.41-3.134-.376-.287-.762-.576-1.135-.856-.968-.726-1.969-1.477-2.918-2.271a4.048 4.048 0 0 1-1.457-2.524 3.818 3.818 0 0 1 .675-2.737A3.713 3.713 0 0 1 28.5 26.42a4.335 4.335 0 0 1 2.121.58c.379.241.771.491 1.422.924a9.32 9.32 0 0 0-3.236-4.353 8.166 8.166 0 0 0-4.833-1.606c-.2 0-.4.008-.6.023a9.423 9.423 0 0 0-4.974 1.874 6.488 6.488 0 0 0-2.568 3.923 3.764 3.764 0 0 0 .64-.355 5.544 5.544 0 0 1 2.903-.968zM32.555 8.453a3.088 3.088 0 0 1-.361.03c-.27.013-.549.026-.655.15-.9 1.211-1.765 2.433-2.68 3.727-.369.522-.751 1.061-1.136 1.6.63.146 1.144.278 1.687.417.311.08.632.162.977.247-.532.648-1.057 1.292-1.564 1.914a342.498 342.498 0 0 1-2.397 2.924 1.287 1.287 0 0 1 .167.11 1.018 1.018 0 0 0 .124.083l.225-.215c1.714-1.629 3.486-3.314 5.391-5.1a139.49 139.49 0 0 1-1.235-.41c-.573-.192-1.115-.374-1.728-.566.4-.505.8-.988 1.181-1.456.692-.846 1.346-1.645 1.972-2.481a.853.853 0 0 0 .058-.621 2.6 2.6 0 0 1-.026-.353zm-14.567 5.322c.5 1.5.976 2.907 1.436 4.271l.246.729.219-.054h.009l.21-.052a428.06 428.06 0 0 1-1.411-6.489c-.493.368-.926.673-1.345.969-.372.262-.722.51-1.11.8l-.165-.491c-.474-1.411-.922-2.744-1.471-3.992-.1-.231-.413-.373-.743-.524A4.118 4.118 0 0 1 13.4 8.7a2.813 2.813 0 0 1-.346.423l.024.055c.862 2.016 1.754 4.1 2.706 6.228.608-.426 1.125-.816 1.673-1.228l.534-.4zm6.552-2.805l-.327 2.144c-.285 1.867-.553 3.631-.828 5.365a1.331 1.331 0 0 0 .2.034 1.346 1.346 0 0 1 .205.034c.857-3.015 1.71-6.051 2.5-8.881l-.9.175c-.92.179-1.789.349-2.77.519.308-2.185.611-4.338.91-6.656-.326-.018-.608-.054-.934-.095-.231-.029-.47-.059-.758-.088a522.7 522.7 0 0 1-.53 8.216l-.041.6c.663-.273 1.212-.5 1.742-.728.516-.217 1-.423 1.524-.636z" class="cls-1" data-name="Subtraction 1" transform="translate(0 -.001)"/>
</svg>
