<svg xmlns="http://www.w3.org/2000/svg" viewBox="0 0 14.887 14.014">
  <defs>
    <style>
      .cls-1 {
        fill: #fff;
        stroke: #fff;
      }
    </style>
  </defs>
  <g id="Group_355" data-name="Group 355" transform="translate(-98.49 -604.5)">
    <path id="STAR" class="cls-1" d="M11.286,17.461l-1.01,4.228a.433.433,0,0,0,.643.473l3.8-2.255,3.8,2.255a.433.433,0,0,0,.643-.473l-1.01-4.228,3.351-2.84a.433.433,0,0,0-.244-.762l-4.42-.365L15.114,9.487a.433.433,0,0,0-.8,0L12.6,13.495l-4.419.364a.433.433,0,0,0-.244.762Zm1.644-3.125a.433.433,0,0,0,.363-.261l1.423-3.319,1.421,3.318a.433.433,0,0,0,.363.261l3.637.3L17.38,16.972a.432.432,0,0,0-.141.431l.834,3.49-3.136-1.863a.431.431,0,0,0-.442,0l-3.137,1.863.834-3.491a.432.432,0,0,0-.141-.431L9.295,14.636Z" transform="translate(91.218 595.776)"/>
  </g>
</svg>
