<svg width="39" height="39" fill-rule="evenodd" clip-rule="evenodd" stroke-linejoin="round" stroke-miterlimit="1.414" viewBox="-2 -2 39 39" id="social-facebook-messenger" x="482" y="552" xmlns="http://www.w3.org/2000/svg"><clipPath id="gka"><path d="M0 0h35v35H0z"/></clipPath><g clip-path="url(#gka)"><circle cx="17.5" cy="17.5" r="17.5" fill="#52aee0"/><path d="M25.794 16.082c-.055-.283-.098-.57-.162-.853a4.122 4.122 0 0 0-.166-.52 7.565 7.565 0 0 0-.252-.63 5.727 5.727 0 0 0-.32-.593 7.84 7.84 0 0 0-.478-.703 10.36 10.36 0 0 0-.627-.716 6.418 6.418 0 0 0-1.075-.91 8.125 8.125 0 0 0-.804-.503 12.022 12.022 0 0 0-1.072-.5 7.637 7.637 0 0 0-.862-.278c-.287-.08-.58-.143-.873-.202-.16-.033-.325-.048-.488-.064-.28-.026-.56-.06-.84-.067a12.898 12.898 0 0 0-1.592.085c-.132.017-.263.045-.394.07-.224.047-.45.085-.673.145a10.627 10.627 0 0 0-1.671.622 7.51 7.51 0 0 0-1.26.758c-.5.368-.954.78-1.353 1.25-.27.317-.514.648-.726 1.002a5.746 5.746 0 0 0-.53 1.105c-.07.216-.148.428-.21.646-.048.173-.08.35-.11.528-.032.17-.06.342-.078.514-.012.092.004.188-.002.282-.006.104-.037.208-.032.312.014.305.034.61.065.914.023.217.066.433.11.647.03.142.076.282.122.42.065.198.124.4.207.59.11.255.23.506.36.75.2.365.44.71.707 1.034.426.514.91.976 1.463 1.372a.16.16 0 0 1 .077.145c-.003.84-.002 1.68-.002 2.522v.193c.024-.004.04-.003.053-.01l.285-.15.783-.414c.24-.127.482-.25.723-.375.283-.15.566-.307.852-.46.08-.044.163-.075.26-.05.16.045.32.09.483.118.275.048.552.095.83.122.298.03.598.046.898.05.387.008.774-.01 1.16-.068.243-.036.488-.06.73-.107a6.75 6.75 0 0 0 .646-.157c.294-.086.59-.17.875-.283.316-.124.622-.276.928-.422.39-.19.75-.425 1.093-.68a7.19 7.19 0 0 0 1.077-.958c.222-.247.432-.505.632-.768.14-.182.26-.38.374-.578.11-.19.204-.387.296-.585.08-.17.16-.34.22-.516a8.57 8.57 0 0 0 .195-.67 4 4 0 0 0 .117-.528 9.94 9.94 0 0 0 .08-.943 4.26 4.26 0 0 0-.054-.943zm-7.462 3.377c-.17-.17-.336-.334-.5-.5-.248-.25-.493-.503-.74-.754l-.853-.87c-.03-.03-.046-.032-.084-.012-.394.21-.79.418-1.187.623-.29.152-.586.3-.88.45-.297.155-.594.313-.892.468-.296.153-.593.305-.888.46-.064.032-.127.07-.19.104l-.01-.013 4.507-4.56c.123.125.244.246.365.365l1.207 1.19c.19.188.38.377.565.566.028.028.045.035.088.013.358-.194.72-.384 1.08-.575.346-.182.695-.36 1.04-.543.325-.17.647-.348.97-.52.264-.138.53-.274.796-.41l.066-.04.014.018-4.482 4.537z" fill="#fff"/></g></svg>