<svg xmlns="http://www.w3.org/2000/svg" viewBox="0 0 32 43.294">
    <defs>
        <style>
            .cls-1{fill:#b47eb9;fill-rule:evenodd}
        </style>
    </defs>
    <path id="_12.File" d="M35.235 44.294h-24.47A3.765 3.765 0 0 1 7 40.529V4.765A3.765 3.765 0 0 1 10.765 1h17.882a.926.926 0 0 1 .73.372l9.251 9.251a.924.924 0 0 1 .372.73v29.176a3.765 3.765 0 0 1-3.765 3.765zM29.588 4.182v6.23h6.23zm7.529 8.112h-8.47a.941.941 0 0 1-.941-.941V2.882H10.765a1.883 1.883 0 0 0-1.883 1.883v35.764a1.883 1.883 0 0 0 1.882 1.882h24.471a1.883 1.883 0 0 0 1.882-1.882zm-5.646 24.471H14.529a.941.941 0 0 1 0-1.882h16.942a.941.941 0 1 1 0 1.882zm0-5.8H14.529a.941.941 0 0 1 0-1.882h16.942a.941.941 0 0 1 0 1.882z" class="cls-1" data-name="12.File" transform="translate(-7 -1)"/>
</svg>
