<svg xmlns="http://www.w3.org/2000/svg" viewBox="0 0 14.139 19.129">
  <defs>
    <style>
      .cls-1 {
        fill: #fff;
        fill-rule: evenodd;
      }
    </style>
  </defs>
  <g id="Group_358" data-name="Group 358" transform="translate(-169.43 -348.163)">
    <path id="_12.File" data-name="12.File" class="cls-1" d="M19.476,20.129H8.663A1.663,1.663,0,0,1,7,18.466V2.663A1.663,1.663,0,0,1,8.663,1h7.9a.409.409,0,0,1,.323.164l4.087,4.087a.408.408,0,0,1,.164.323h0V18.466A1.663,1.663,0,0,1,19.476,20.129ZM16.98,2.406V5.159h2.753ZM20.307,5.99H16.565a.416.416,0,0,1-.416-.416V1.832H8.663a.832.832,0,0,0-.832.832v15.8a.832.832,0,0,0,.832.832H19.476a.832.832,0,0,0,.832-.832ZM17.812,16.8H10.327a.416.416,0,1,1,0-.832h7.485a.416.416,0,1,1,0,.832Zm0-2.562H10.327a.416.416,0,0,1,0-.832h7.485a.416.416,0,0,1,0,.832Z" transform="translate(162.43 347.163)"/>
  </g>
</svg>
