<svg xmlns="http://www.w3.org/2000/svg" viewBox="0 0 47.476 43.05">
    <defs>
        <style>
            .cls-1{fill:#e86767}
        </style>
    </defs>
    <path id="Subtraction_1" d="M36.547 43.051c-1.108-.389-2.254-.792-3.382-1.127a34.705 34.705 0 0 1-.771-.236 10.2 10.2 0 0 0-2.7-.588 249.101 249.101 0 0 0-11.58 0 8.106 8.106 0 0 0-2.437.521c-.29.094-.59.19-.884.272-1.209.34-2.376.741-3.5 1.128l-.549-.64c.279-.48.545-.988.8-1.479a14.494 14.494 0 0 1 2.245-3.458 5.333 5.333 0 0 0 1.677-5.424c-.164-.787-.427-1.312-1.18-1.312h-.071a3.534 3.534 0 0 0-2.1.64A19.61 19.61 0 0 0 6.2 39.726a23.738 23.738 0 1 1 35.375-.326 19.435 19.435 0 0 0-6.065-8.267 2.283 2.283 0 0 0-.663-.333h-.008a2.778 2.778 0 0 0-.884-.165c-.892 0-1.422.632-1.493 1.78a4.432 4.432 0 0 1-.11.677 3.045 3.045 0 0 0-.1.968 4.045 4.045 0 0 0 .549 1.8c.549.824 1.139 1.631 1.709 2.412s1.156 1.582 1.7 2.4a4.386 4.386 0 0 1 .535 1.407c.051.2.1.408.166.6l-.244.244-.121.121zM23.93 24.156a7.863 7.863 0 1 0 0 15.726 7.959 7.959 0 0 0 5.57-2.29 7.769 7.769 0 0 0 2.324-5.513 7.844 7.844 0 0 0-7.893-7.924zm8.834-14.589a3.5 3.5 0 0 1-.439.055c-.3.025-.577.048-.693.194-1.007 1.326-1.952 2.694-2.954 4.142v.007l-.45.65c.561.193 1.073.363 1.568.527h.013l.68.226a695.017 695.017 0 0 1-3.534 4.352.914.914 0 0 1 .119.1.916.916 0 0 0 .119.1l.324-.317c1.49-1.458 3.03-2.967 4.674-4.553a103.98 103.98 0 0 0-2.5-.956c1.123-1.418 2.164-2.739 3.171-4.016v-.005a3.512 3.512 0 0 0-.098-.506zm-12.886 4.669c.529 1.9 1.043 3.656 1.54 5.354l.015.051a1.057 1.057 0 0 1 .145-.039 1.057 1.057 0 0 0 .145-.039c-.13-.8-.264-1.607-.394-2.392-.235-1.421-.478-2.89-.728-4.465-.5.358-.923.654-1.332.939-.284.2-.575.4-.891.625-.272-.952-.554-1.876-.854-2.853-.244-.8-.5-1.62-.767-2.539-.16.237-.31.433-.442.605-.244.318-.405.528-.364.674a153.205 153.205 0 0 0 2.056 5.59l1.624-1.314.246-.2zm5.669-2.395q-.265 1.565-.5 3.039a333.541 333.541 0 0 1-.619 3.711c.064.007.124.019.181.03s.117.023.181.03c.5-1.743.994-3.451 1.521-5.26v-.007l.823-2.829-.966.19c-.735.146-1.426.282-2.219.428.334-2.012.614-3.874.958-6.226l-.3-.019c-.392-.025-.731-.046-1.076-.082l.629.2c-.334 2-.715 4.293-1.236 7.432.968-.228 1.745-.414 2.622-.634z" class="cls-1" data-name="Subtraction 1" transform="translate(0 -.001)"/>
</svg>
