<svg xmlns="http://www.w3.org/2000/svg" viewBox="0 0 32 32">
    <defs>
        <style>
            .cls-1{opacity:.244}
        </style>
    </defs>
    <path id="instagram" d="M29.444 1H4.556A3.566 3.566 0 0 0 1 4.556v24.888A3.565 3.565 0 0 0 4.556 33h24.888A3.565 3.565 0 0 0 33 29.444V4.556A3.566 3.566 0 0 0 29.444 1zM16.972 26.819a9.847 9.847 0 0 0 9.845-9.847 9.444 9.444 0 0 0-.183-1.749h2.811v12.828a1.228 1.228 0 0 1-1.232 1.227H5.788a1.228 1.228 0 0 1-1.232-1.227V15.222h2.753a9.3 9.3 0 0 0-.185 1.749 9.848 9.848 0 0 0 9.848 9.848zm-6.153-9.847a6.155 6.155 0 1 1 6.155 6.155 6.153 6.153 0 0 1-6.155-6.155zm17.393-7.083h-2.871a1.233 1.233 0 0 1-1.23-1.23V5.784a1.229 1.229 0 0 1 1.229-1.228h2.871a1.23 1.23 0 0 1 1.234 1.228v2.873a1.234 1.234 0 0 1-1.233 1.232z" class="cls-1" transform="translate(-1 -1)"/>
</svg>
