<svg xmlns="http://www.w3.org/2000/svg" viewBox="0 0 183.344 345.432">
    <defs>
        <style>
            .cls-1{fill:#fff}.cls-2{fill:none;stroke:#2a2522;stroke-miterlimit:10;stroke-width:2px}
        </style>
    </defs>
    <g id="Group_331" data-name="Group 331" transform="translate(.758 1.112)">
        <path id="Path_895" d="M27.444 29.5c-8.5 12.554 4.86 28.347 14.174 29.157s18.628-10.531 19.843-25.515c.81-7.289 0-22.678-2.43-27.942L29.874 8.44z" class="cls-1" data-name="Path 895" transform="translate(72.176 11.403)"/>
        <path id="Path_896" d="M27.444 29.5c-8.5 12.554 4.86 28.347 14.174 29.157s18.628-10.531 19.843-25.515c.81-7.289 0-22.678-2.43-27.942L29.874 8.44z" class="cls-2" data-name="Path 896" transform="translate(72.176 11.403)"/>
        <path id="Line_31" d="M31.992 0L0 .81" class="cls-2" data-name="Line 31" transform="translate(100.835 40.091)"/>
        <path id="Path_897" d="M66.159 18.026c29.967 10.124.4 117.034 16.6 209.365 2.43 13.769-78.562.4-78.562.4S15.539 106.307 19.184 88.489c8.1-42.116 29.562-76.538 46.975-70.463" class="cls-1" data-name="Path 897" transform="translate(9.569 48.388)"/>
        <path id="Path_898" d="M66.159 18.026c29.967 10.124.4 117.034 16.6 209.365 2.43 13.769-78.562.4-78.562.4S15.539 106.307 19.184 88.489c8.099-42.116 29.562-76.538 46.975-70.463z" class="cls-2" data-name="Path 898" transform="translate(9.569 48.388)"/>
        <path id="Path_899" d="M58.3 18.9c-92.327 63.174 34.426 35.637 25.922 65.6M61.544 278.885c3.24-30.372 5.264-50.215 5.264-50.215M.8 272.81c14.984-17.413 23.488-48.6 23.488-48.6" class="cls-2" data-name="Path 899" transform="translate(-.8 53.183)"/>
        <path id="Path_900" d="M48.24 35.927c-4.455 14.579-15.389 24.3-24.3 21.463-9.314-2.835-12.959-16.6-8.909-31.182C17.463 19.323 23.942 5.15 27.992 1.1l32.8 8.5c1.215 5.264-10.529 20.248-12.554 26.322" class="cls-1" data-name="Path 900" transform="translate(37.612 -1.1)"/>
        <path id="Path_901" d="M48.24 35.927c-4.455 14.579-15.389 24.3-24.3 21.463-9.314-2.835-12.959-16.6-8.909-31.182C17.463 19.323 23.942 5.15 27.992 1.1l32.8 8.5c1.217 5.269-10.527 20.252-12.552 26.327z" class="cls-2" data-name="Path 901" transform="translate(37.612 -1.1)"/>
        <path id="Line_32" d="M0 0l29.562 12.959" class="cls-2" data-name="Line 32" transform="translate(55.48 21.463)"/>
        <path id="Path_902" d="M70.989 21.9C56.41 137.314 28.468 27.164 6.6 48.222" class="cls-2" data-name="Path 902" transform="translate(16.888 62.332)"/>
        <path id="Path_903" d="M43.046 21.026C13.079 31.555 21.178 134.01 27.252 230.39c.81 13.769 78.562 0 78.562 0S93.666 109.307 90.021 91.489c-7.694-42.116-29.562-76.538-46.975-70.463" class="cls-1" data-name="Path 903" transform="translate(62.244 57.537)"/>
        <path id="Path_904" d="M43.046 21.026C13.079 31.555 21.178 134.01 27.252 230.39c.81 13.769 78.562 0 78.562 0S93.666 109.307 90.021 91.489c-7.694-42.116-29.562-76.538-46.975-70.463z" class="cls-2" data-name="Path 904" transform="translate(62.244 57.537)"/>
        <path id="Path_905" d="M24.8 38.5c0 101.645 38.876.81 60.744 21.868M51.932 21.9c92.331 63.174 21.058 40.091 29.563 70.058m-32.8 189.927c-3.24-30.372-5.264-50.215-5.264-50.215m66.009 44.141c-14.984-17.413-23.488-48.6-23.488-48.6" class="cls-2" data-name="Path 905" transform="translate(72.391 62.332)"/>
    </g>
</svg>
