<svg xmlns="http://www.w3.org/2000/svg" viewBox="0 0 18 20.728">
    <defs>
        <style>
            .cls-1{fill:none}.cls-2,.cls-3{stroke:none}.cls-3{fill:#707070}
        </style>
    </defs>
    <g id="Union_1" class="cls-1" data-name="Union 1">
        <path d="M-449-3276a8.992 8.992 0 0 1 4.093-7.546A5.972 5.972 0 0 1-446-3287a6 6 0 0 1 6-6 6 6 0 0 1 6 6 5.972 5.972 0 0 1-1.093 3.454A8.992 8.992 0 0 1-431-3276c0 2.485-4.5 3.728-9 3.728s-9-1.243-9-3.728z" class="cls-2" transform="translate(449 3293)"/>
        <path d="M-440-3274.272c1.921 0 3.74-.242 5.12-.68 1.402-.445 1.834-.934 1.88-1.05a6.984 6.984 0 0 0-3.185-5.868l-1.738-1.133 1.195-1.695c.477-.676.728-1.471.728-2.302 0-2.206-1.794-4-4-4s-4 1.794-4 4c0 .83.251 1.626.727 2.302l1.196 1.695-1.738 1.133a6.985 6.985 0 0 0-3.185 5.868c.046.116.478.605 1.879 1.05 1.381.438 3.2.68 5.12.68m0 2c-4.5 0-9-1.243-9-3.728 0-3.16 1.63-5.94 4.094-7.546a6 6 0 1 1 9.814 0A8.992 8.992 0 0 1-431-3276c0 2.485-4.5 3.728-9 3.728z" class="cls-3" transform="translate(449 3293)"/>
    </g>
</svg>
