<svg xmlns="http://www.w3.org/2000/svg" viewBox="0 0 32 31.364">
    <defs>
        <style>
            .cls-1,.cls-2{fill:#b47eb9}.cls-1{opacity:.47}
        </style>
    </defs>
    <g id="Group_668" data-name="Group 668" transform="translate(-27 -27.79)">
        <g id="Group_286" data-name="Group 286" transform="translate(27 27.79)">
            <path id="Path_741" d="M36.044 31.788a2.592 2.592 0 0 1-2.592 2.592H23.8l-3.383 2.682V34.4h-1.09a2.592 2.592 0 0 1-2.584-2.608v-14.1a2.592 2.592 0 0 1 2.592-2.592h6.023v-1.88h-6.031a4.475 4.475 0 0 0-4.467 4.467v14.1a4.475 4.475 0 0 0 3.684 4.4v4.76l5.917-4.695h8.966a4.475 4.475 0 0 0 4.491-4.467z" class="cls-1" data-name="Path 741" transform="translate(-14.86 -9.585)"/>
            <path id="Path_742" d="M32.31 21.8a.937.937 0 0 0 .921-.815l1.63-3.595 1.7 3.863 2.584 5.706a.937.937 0 0 0 .856.546h.073a.937.937 0 0 0 .815-.546l2.343-5.159h4.736a.937.937 0 0 0 .815-.929v-7.644a4.475 4.475 0 0 0-4.467-4.467H30.3a4.475 4.475 0 0 0-4.467 4.467v3.342a.937.937 0 1 0 1.875 0v-3.342a2.592 2.592 0 0 1 2.592-2.592h14.114a2.592 2.592 0 0 1 2.592 2.592v6.692h-4.345a.937.937 0 0 0-.921.815l-1.63 3.684-1.769-3.9-2.584-5.706v-.049l-.122-.1-.057-.073-.065-.073-.065-.057-.073-.057-.082-.049h-.815l-.073.041-.073.057-.065.057-.065.073-.082.082-.049.09v.046l-2.4 5.127h-4.89a.937.937 0 0 0-.937.937v6.521a4.475 4.475 0 0 0 4.45 4.393h8.966l5.94 4.727v-4.727a4.475 4.475 0 0 0 3.684-4.4v-2.365a.937.937 0 1 0-1.875 0v2.364a2.592 2.592 0 0 1-2.592 2.592h-1.1v2.625l-3.383-2.682H30.3a2.592 2.592 0 0 1-2.6-2.593v-5.542z" class="cls-2" data-name="Path 742" transform="translate(-16.889 -8.76)"/>
        </g>
    </g>
</svg>
