<svg xmlns="http://www.w3.org/2000/svg" viewBox="0 0 194.187 44.884">
  <defs>
    <style>
      .cls-1, .cls-2 {
        fill: #fff;
      }

      .cls-1 {
        opacity: 0.47;
      }
    </style>
  </defs>
  <g id="ТелеМед_логотип_черный_фиол" data-name="ТелеМед  логотип черный+фиол" transform="translate(91.358)">
    <path id="Path_741" data-name="Path 741" class="cls-1" d="M45.175,39.791A3.709,3.709,0,0,1,41.466,43.5H27.656l-4.841,3.838V43.524H21.252a3.709,3.709,0,0,1-3.7-3.733V19.612A3.709,3.709,0,0,1,21.264,15.9h8.62V13.22H21.252a6.4,6.4,0,0,0-6.392,6.392V39.791a6.4,6.4,0,0,0,5.272,6.3V52.9L28.6,46.183H41.431a6.4,6.4,0,0,0,6.427-6.392Z" transform="translate(-106.218 -8.018)"/>
    <path id="Path_742" data-name="Path 742" class="cls-2" d="M35.1,27.423a1.341,1.341,0,0,0,1.318-1.166l2.333-5.144,2.438,5.529,3.7,8.165a1.341,1.341,0,0,0,1.225.782h.1a1.341,1.341,0,0,0,1.166-.782l3.348-7.383H57.51a1.341,1.341,0,0,0,1.166-1.33V15.152A6.4,6.4,0,0,0,52.284,8.76H32.222a6.4,6.4,0,0,0-6.392,6.392v4.782a1.341,1.341,0,0,0,2.683,0V15.152a3.709,3.709,0,0,1,3.709-3.709h20.2a3.709,3.709,0,0,1,3.709,3.709v9.576H49.917A1.341,1.341,0,0,0,48.6,25.895l-2.333,5.272L43.735,25.58l-3.7-8.165v-.07l-.175-.14-.082-.1-.093-.1-.093-.082-.1-.082-.117-.07H38.206l-.1.058L38,16.9l-.093.082-.093.1-.117.117-.07.128v.07L34.193,24.74h-7a1.341,1.341,0,0,0-1.341,1.341v9.331A6.4,6.4,0,0,0,32.222,41.7H45.053l8.5,6.765V41.7a6.4,6.4,0,0,0,5.272-6.3V32.018a1.341,1.341,0,0,0-2.683,0V35.4a3.709,3.709,0,0,1-3.709,3.709H50.861v3.756l-4.841-3.838h-13.8a3.709,3.709,0,0,1-3.709-3.709V27.388Z" transform="translate(-104.392 -8.76)"/>
    <g id="Group_285" data-name="Group 285" transform="translate(-27.358 8.838)">
      <path id="Path_743" data-name="Path 743" class="cls-2" d="M69.963,7.09H53.28v2.4h6.96V28.7h2.739V9.494h6.984Z" transform="translate(-53.28 -7.09)"/>
      <path id="Path_744" data-name="Path 744" class="cls-2" d="M89.217,20.27a7.965,7.965,0,0,0-7.845,8.371c0,4.975,3.4,8.371,8.108,8.371a8.646,8.646,0,0,0,6.326-2.392l-1.2-1.615A6.96,6.96,0,0,1,89.7,35.016a5.609,5.609,0,0,1-5.74-5.5H96.871v-.622C96.871,24.025,94.084,20.27,89.217,20.27Zm-5.238,7.355a5.31,5.31,0,0,1,5.2-5.286,5.166,5.166,0,0,1,5.238,5.31Z" transform="translate(-65.55 -14.984)"/>
      <path id="Path_745" data-name="Path 745" class="cls-2" d="M98.908,28.445c-.622,4.712-1.555,6.434-3.038,6.434v2.045c3.074,0,4.784-2.236,5.5-8.18l.73-5.98h6.434V36.518h2.476V20.6H99.936Z" transform="translate(-62.707 -14.919)"/>
      <path id="Path_746" data-name="Path 746" class="cls-2" d="M119.5,20.27a7.965,7.965,0,0,0-7.845,8.371c0,4.975,3.4,8.371,8.108,8.371a8.646,8.646,0,0,0,6.326-2.392l-1.2-1.614a6.96,6.96,0,0,1-4.915,2.009,5.609,5.609,0,0,1-5.74-5.5h12.892v-.622C127.151,24.025,124.317,20.27,119.5,20.27Zm-5.238,7.355a5.322,5.322,0,0,1,5.2-5.286,5.166,5.166,0,0,1,5.238,5.31Z" transform="translate(-59.617 -14.984)"/>
      <path id="Path_747" data-name="Path 747" class="cls-2" d="M123.593,23.1,117.243,7.09H113.32V28.7H116.2V11.742L122.983,28.7h1.208l6.733-16.958V28.7h2.882V7.09h-3.958Z" transform="translate(-41.517 -7.09)"/>
      <path id="Path_748" data-name="Path 748" class="cls-2" d="M156.127,20.27a7.965,7.965,0,0,0-7.845,8.371c0,4.975,3.4,8.371,8.108,8.371a8.658,8.658,0,0,0,6.326-2.392l-1.2-1.615a6.96,6.96,0,0,1-4.915,2.009,5.609,5.609,0,0,1-5.74-5.5h12.892v-.622C163.781,24.025,160.947,20.27,156.127,20.27Zm-5.238,7.355a5.31,5.31,0,0,1,5.214-5.286,5.166,5.166,0,0,1,5.238,5.31Z" transform="translate(-52.441 -14.984)"/>
      <path id="Path_749" data-name="Path 749" class="cls-2" d="M177.92,34.353V20.6H166.834l-1.017,7.845c-.622,4.712-1.555,5.776-3.038,5.98v6.1h2.476V36.53h12.031v4.054h2.5V34.353Zm-2.476,0h-9.46c1.2-.921,1.913-2.607,2.308-5.609l.73-5.98h6.434Z" transform="translate(-49.598 -14.919)"/>
    </g>
  </g>
</svg>
