<svg xmlns="http://www.w3.org/2000/svg" viewBox="0 0 17.594 17.245">
  <defs>
    <style>
      .cls-1 {
        fill: #b47eb9;
      }
    </style>
  </defs>
  <g id="Group_335" data-name="Group 335" transform="translate(-912.675 -184.405)">
    <path id="Path_779" data-name="Path 779" class="cls-1" d="M26.507,23.429a1.425,1.425,0,0,1-1.425,1.425H19.776l-1.86,1.474V24.863h-.6A1.425,1.425,0,0,1,15.9,23.429V15.676a1.425,1.425,0,0,1,1.425-1.425h3.312V13.22H17.316a2.46,2.46,0,0,0-2.456,2.456v7.753a2.46,2.46,0,0,0,2.026,2.42v2.617l3.254-2.581h4.93a2.46,2.46,0,0,0,2.469-2.456Z" transform="translate(897.815 173.184)"/>
    <path id="Path_780" data-name="Path 780" class="cls-1" d="M29.393,15.93a.515.515,0,0,0,.506-.448l.9-1.976.937,2.124,1.421,3.137a.515.515,0,0,0,.471.3h.04a.515.515,0,0,0,.448-.3L35.4,15.93H38a.515.515,0,0,0,.448-.511v-4.2A2.46,2.46,0,0,0,35.994,8.76H28.286a2.46,2.46,0,0,0-2.456,2.456v1.837a.515.515,0,1,0,1.031,0V11.216a1.425,1.425,0,0,1,1.425-1.425h7.762a1.425,1.425,0,0,1,1.425,1.425V14.9H35.084a.515.515,0,0,0-.506.448l-.9,2.026-.972-2.147-1.421-3.137v-.027L31.221,12l-.031-.04-.036-.04-.036-.031-.04-.031-.045-.027h-.448l-.04.022-.04.031-.036.031-.036.04L30.388,12l-.027.049v.027L29.043,14.9H26.354a.515.515,0,0,0-.515.515V19a2.46,2.46,0,0,0,2.447,2.416h4.93l3.267,2.6v-2.6A2.46,2.46,0,0,0,38.508,19V17.7a.515.515,0,1,0-1.031,0V19a1.425,1.425,0,0,1-1.425,1.425h-.6v1.443l-1.86-1.474h-5.3a1.425,1.425,0,0,1-1.425-1.425V15.917Z" transform="translate(891.762 175.645)"/>
  </g>
</svg>
