<svg xmlns="http://www.w3.org/2000/svg" viewBox="0 0 160 40.619">
    <defs>
        <style>
            .cls-1,.cls-2{fill:#b47eb9}.cls-1{opacity:.47}.cls-3{fill:#505050}
        </style>
    </defs>
    <g id="Group_288" data-name="Group 288" transform="translate(-527.951 -335.797)">
        <g id="Group_286" data-name="Group 286" transform="translate(527.951 335.797)">
            <path id="Path_741" d="M42.295 37.266a3.357 3.357 0 0 1-3.357 3.357H26.44L22.059 44.1v-3.456h-1.414a3.357 3.357 0 0 1-3.345-3.378V19a3.357 3.357 0 0 1 3.357-3.357h7.8V13.22h-7.812A5.8 5.8 0 0 0 14.86 19v18.266a5.8 5.8 0 0 0 4.771 5.7v6.165l7.664-6.08h11.611a5.8 5.8 0 0 0 5.816-5.785z" class="cls-1" data-name="Path 741" transform="translate(-14.86 -8.512)"/>
            <path id="Path_742" d="M34.222 25.65a1.214 1.214 0 0 0 1.193-1.056l2.111-4.655 2.206 5 3.346 7.389a1.214 1.214 0 0 0 1.108.707h.1a1.214 1.214 0 0 0 1.056-.707l3.03-6.682H54.5a1.214 1.214 0 0 0 1.056-1.2v-9.9a5.8 5.8 0 0 0-5.785-5.786H31.615a5.8 5.8 0 0 0-5.785 5.785v4.328a1.214 1.214 0 0 0 2.428 0v-4.328a3.357 3.357 0 0 1 3.357-3.357H49.9a3.357 3.357 0 0 1 3.357 3.357v8.666h-5.629a1.214 1.214 0 0 0-1.193 1.056l-2.111 4.771-2.291-5.056-3.346-7.389v-.063l-.158-.127-.074-.1-.084-.1-.084-.074-.1-.074-.102-.055H37.03l-.1.053-.1.074-.084.074-.084.1-.106.106-.063.116v.063l-3.1 6.64h-6.328a1.214 1.214 0 0 0-1.214 1.214v8.44a5.8 5.8 0 0 0 5.764 5.69h11.611l7.7 6.122V38.57a5.8 5.8 0 0 0 4.771-5.7v-3.061a1.214 1.214 0 0 0-2.428 0v3.061a3.357 3.357 0 0 1-3.357 3.357h-1.429v3.4L44.1 36.153H31.615a3.357 3.357 0 0 1-3.357-3.353v-7.182z" class="cls-2" data-name="Path 742" transform="translate(-14.25 -8.76)"/>
        </g>
        <g id="Group_285" data-name="Group 285" transform="translate(582.78 345.452)">
            <path id="Path_743" d="M66.757 7.09H53.28v1.942h5.62v15.516h2.212V9.032h5.642z" class="cls-3" data-name="Path 743" transform="translate(-53.28 -7.09)"/>
            <path id="Path_744" d="M87.707 20.27a6.434 6.434 0 0 0-6.338 6.763A6.378 6.378 0 0 0 87.92 33.8a6.985 6.985 0 0 0 5.111-1.932l-.966-1.3a5.623 5.623 0 0 1-3.971 1.623 4.531 4.531 0 0 1-4.637-4.444H93.89v-.5c0-3.947-2.251-6.977-6.183-6.977zm-4.232 5.942a4.29 4.29 0 0 1 4.2-4.27 4.174 4.174 0 0 1 4.232 4.29z" class="cls-3" data-name="Path 744" transform="translate(-68.588 -16)"/>
            <path id="Path_745" d="M98.324 26.938c-.5 3.806-1.256 5.2-2.454 5.2v1.652c2.483 0 3.864-1.807 4.444-6.608l.589-4.831h5.2v11.11h2V20.6h-8.948z" class="cls-3" data-name="Path 745" transform="translate(-69.08 -16.011)"/>
            <path id="Path_746" d="M117.987 20.27a6.434 6.434 0 0 0-6.338 6.763A6.378 6.378 0 0 0 118.2 33.8a6.985 6.985 0 0 0 5.111-1.932l-.966-1.3a5.623 5.623 0 0 1-3.971 1.623 4.531 4.531 0 0 1-4.637-4.444h10.415v-.5c.018-3.947-2.271-6.977-6.165-6.977zm-4.232 5.942a4.3 4.3 0 0 1 4.2-4.27 4.174 4.174 0 0 1 4.232 4.29z" class="cls-3" data-name="Path 746" transform="translate(-69.614 -16)"/>
            <path id="Path_747" d="M121.619 20.026l-5.13-12.936h-3.169v17.458h2.328v-13.7l5.478 13.7h.976l5.439-13.7v13.7h2.328V7.09h-3.2z" class="cls-3" data-name="Path 747" transform="translate(-55.315 -7.09)"/>
            <path id="Path_748" d="M154.617 20.27a6.434 6.434 0 0 0-6.338 6.763 6.378 6.378 0 0 0 6.55 6.763 7 7 0 0 0 5.111-1.932l-.966-1.3A5.623 5.623 0 0 1 155 32.182a4.531 4.531 0 0 1-4.637-4.444h10.415v-.5c.022-3.938-2.267-6.968-6.161-6.968zm-4.232 5.942a4.29 4.29 0 0 1 4.212-4.27 4.174 4.174 0 0 1 4.232 4.29z" class="cls-3" data-name="Path 748" transform="translate(-70.856 -16)"/>
            <path id="Path_749" d="M175.011 31.71V20.6h-8.956l-.821 6.338c-.5 3.806-1.256 4.666-2.454 4.831V36.7h2v-3.231h9.72v3.275h2.019V31.71zm-2 0h-7.642c.966-.744 1.546-2.106 1.865-4.531l.589-4.831h5.2z" class="cls-3" data-name="Path 749" transform="translate(-71.348 -16.011)"/>
        </g>
    </g>
</svg>
