<svg xmlns="http://www.w3.org/2000/svg" viewBox="0 0 82.34 81.96">
    <defs>
        <style>
            .cls-1{fill:#b47eb9}.cls-2{fill:#6f6f6f}
        </style>
    </defs>
    <g id="запутались" transform="translate(-.05 .03)">
        <path id="Path_799" d="M41.52 48.21V31.85h6.26a1.5 1.5 0 0 0 0-3h-31a1.5 1.5 0 1 0 0 3H23v16.36l-7.63 17.44-6 13.81a1.5 1.5 0 0 0-.13.6c0 6 4.36 10.9 9.73 10.9H45.6c5.37 0 9.73-4.89 9.73-10.9a1.5 1.5 0 0 0-.13-.6zm-15.64.91a1.5 1.5 0 0 0 .13-.6V31.85h12.51v16.68a1.5 1.5 0 0 0 .13.6l6.84 15.61H19zM45.6 88H18.92c-3.63 0-6.59-3.38-6.73-7.59l5.53-12.64H46.8l5.53 12.64c-.14 4.18-3.1 7.59-6.73 7.59z" class="cls-1" data-name="Path 799" transform="translate(-9.19 -9.03)"/>
        <path id="Path_800" d="M90.07 9H65.52a1.5 1.5 0 0 0 0 3h2.7v68.24c0 5.91 4.3 10.72 9.58 10.72s9.58-4.81 9.58-10.72V12h2.7a1.5 1.5 0 0 0 0-3zm-5.7 71.22c0 4.26-3 7.72-6.58 7.72s-6.58-3.46-6.58-7.72V57h6.23a1.5 1.5 0 0 0 0-3h-6.23v-8.12h6.23a1.5 1.5 0 0 0 0-3h-6.23v-8.15h6.23a1.5 1.5 0 1 0 0-3h-6.23v-8.15h6.23a1.5 1.5 0 0 0 0-3h-6.23V12h13.17v68.25z" class="cls-2" data-name="Path 800" transform="translate(-9.19 -9.03)"/>
    </g>
</svg>
