<svg xmlns="http://www.w3.org/2000/svg" viewBox="0 0 14.589 12.687">
  <defs>
    <style>
      .cls-1, .cls-5 {
        fill: none;
      }

      .cls-2 {
        fill: #fff;
        stroke: #3cc3b3;
      }

      .cls-3, .cls-4 {
        stroke: none;
      }

      .cls-4 {
        fill: #3cc3b3;
      }
    </style>
  </defs>
  <g id="Group_359" data-name="Group 359" transform="translate(-307 -627)">
    <g id="Path_739" data-name="Path 739" class="cls-1" transform="translate(307 627)">
      <path class="cls-3" d="M2.431,0h9.726a2.431,2.431,0,0,1,2.431,2.431s0,4.477,0,7.569c-.011,1.482-.137,2.432-1.384,2.667S10.942,10.942,9.6,10.942H2.431A2.431,2.431,0,0,1,0,8.51V2.431A2.431,2.431,0,0,1,2.431,0Z"/>
      <path class="cls-4" d="M 12.99481296539307 11.6872501373291 C 13.00309276580811 11.6872501373291 13.01106262207031 11.68651008605957 13.01913261413574 11.68497943878174 C 13.40196514129639 11.61280155181885 13.57686519622803 11.57969379425049 13.58889293670654 9.997330665588379 C 13.5893030166626 6.905419826507568 13.58889293670654 2.431599855422974 13.58889293670654 2.431479930877686 C 13.58889293670654 1.642159819602966 12.94673252105713 0.9999998807907104 12.1574125289917 0.9999998807907104 L 2.431483030319214 0.9999998807907104 C 1.642162919044495 0.9999998807907104 1.000002980232239 1.642159819602966 1.000002980232239 2.431479930877686 L 1.000002980232239 8.510190010070801 C 1.000002980232239 9.29951000213623 1.642162919044495 9.941669464111328 2.431483030319214 9.941669464111328 L 9.598742485046387 9.941669464111328 C 10.59751319885254 9.941669464111328 11.37610340118408 10.56387996673584 12.00171279907227 11.06383991241455 C 12.3309326171875 11.32693004608154 12.78180313110352 11.6872501373291 12.99481296539307 11.6872501373291 M 12.99481010437012 12.68725299835205 C 11.84086418151855 12.68725299835205 10.86571598052979 10.94166946411133 9.598742485046387 10.94166946411133 L 2.431483030319214 10.94166946411133 C 1.088612914085388 10.94166946411133 2.938842726507573e-06 9.853059768676758 2.938842726507573e-06 8.510190010070801 L 2.938842726507573e-06 2.431479930877686 C 2.938842726507573e-06 1.08860981464386 1.088612914085388 -1.425170950142274e-07 2.431483030319214 -1.425170950142274e-07 L 12.1574125289917 -1.425170950142274e-07 C 13.50028324127197 -1.425170950142274e-07 14.58889293670654 1.08860981464386 14.58889293670654 2.431479930877686 C 14.58889293670654 2.431479930877686 14.5893030166626 6.908679962158203 14.58889293670654 10.00080966949463 C 14.57791328430176 11.48260974884033 14.45195293426514 12.43245029449463 13.20441341400146 12.66767024993896 C 13.13390350341797 12.68096351623535 13.06393623352051 12.68725299835205 12.99481010437012 12.68725299835205 Z"/>
    </g>
    <g id="Rectangle_14" data-name="Rectangle 14" class="cls-2" transform="translate(310.039 629.431)">
      <rect class="cls-3" width="8.436" height="1" rx="0.5"/>
      <rect class="cls-5" x="0.5" y="0.5" width="7.436"/>
    </g>
    <g id="Rectangle_15" data-name="Rectangle 15" class="cls-2" transform="translate(310.039 631.863)">
      <rect class="cls-3" width="8.436" height="1" rx="0.5"/>
      <rect class="cls-5" x="0.5" y="0.5" width="7.436"/>
    </g>
    <g id="Rectangle_16" data-name="Rectangle 16" class="cls-2" transform="translate(310.039 634.294)">
      <rect class="cls-3" width="4.789" height="1" rx="0.5"/>
      <rect class="cls-5" x="0.5" y="0.5" width="3.789"/>
    </g>
  </g>
</svg>
