<svg xmlns="http://www.w3.org/2000/svg" xmlns:xlink="http://www.w3.org/1999/xlink" viewBox="0 0 20.698 18">
  <defs>
    <style>
      .cls-1, .cls-5, .cls-6, .cls-7 {
        fill: none;
      }

      .cls-2 {
        fill: #fff;
        stroke: #b47eb9;
        stroke-width: 4px;
      }

      .cls-3, .cls-4 {
        stroke: none;
      }

      .cls-4 {
        fill: #b47eb9;
      }

      .cls-5 {
        clip-path: url(#clip);
      }

      .cls-6 {
        clip-path: url(#clip-2);
      }

      .cls-7 {
        clip-path: url(#clip-3);
      }
    </style>
    <clipPath id="clip">
      <use xlink:href="#fill"/>
    </clipPath>
    <clipPath id="clip-2">
      <use xlink:href="#fill-2"/>
    </clipPath>
    <clipPath id="clip-3">
      <use xlink:href="#fill-3"/>
    </clipPath>
  </defs>
  <g id="Group_360" data-name="Group 360" transform="translate(-307 -627)">
    <g id="Path_739" data-name="Path 739" class="cls-1" transform="translate(307 627)">
      <path class="cls-3" d="M3.45,0h13.8A3.45,3.45,0,0,1,20.7,3.45s0,6.352,0,10.739c-.016,2.1-.194,3.45-1.964,3.784s-3.21-2.449-5.116-2.449H3.45A3.45,3.45,0,0,1,0,12.074V3.45A3.45,3.45,0,0,1,3.45,0Z"/>
      <path class="cls-4" d="M 18.43633270263672 16.9999885559082 C 18.4738826751709 16.9999885559082 18.5116024017334 16.99646759033203 18.54843330383301 16.98951721191406 C 19.18837356567383 16.86886787414551 19.34518241882324 16.61150741577148 19.45095252990723 16.35825729370117 C 19.64577102661133 15.89176559448242 19.69067192077637 15.15216064453125 19.69794273376465 14.18515300750732 C 19.69852256774902 9.798405647277832 19.69794273376465 3.449777841567993 19.69794273376465 3.449657917022705 C 19.69794273376465 2.098907947540283 18.59903335571289 0.9999979138374329 17.24828338623047 0.9999979138374329 L 3.449653148651123 0.9999979138374329 C 2.098913192749023 0.9999979138374329 1.000003218650818 2.098907947540283 1.000003218650818 3.449657917022705 L 1.000003218650818 12.07379817962646 C 1.000003218650818 13.42454814910889 2.098913192749023 14.52345752716064 3.449653148651123 14.52345752716064 L 13.61818313598633 14.52345752716064 C 14.88842296600342 14.52345752716064 15.88590335845947 15.32059764862061 16.7659740447998 16.0239086151123 C 17.36645317077637 16.5037784576416 17.98737335205078 16.9999885559082 18.43633270263672 16.9999885559082 M 18.43633460998535 17.99999237060547 C 16.79918098449707 17.99999237060547 15.41569423675537 15.52345752716064 13.61818313598633 15.52345752716064 L 3.449653148651123 15.52345752716064 C 1.544463157653809 15.52345752716064 3.191223186149728e-06 13.97898769378662 3.191223186149728e-06 12.07379817962646 L 3.191223186149728e-06 3.449657917022705 C 3.191223186149728e-06 1.544467926025391 1.544463157653809 -2.0837401280005e-06 3.449653148651123 -2.0837401280005e-06 L 17.24828338623047 -2.0837401280005e-06 C 19.15347290039062 -2.0837401280005e-06 20.69794273376465 1.544467926025391 20.69794273376465 3.449657917022705 C 20.69794273376465 3.449657917022705 20.69852256774902 9.801657676696777 20.69794273376465 14.18861770629883 C 20.68236351013184 16.29090881347656 20.50365257263184 17.63849830627441 18.73371315002441 17.97220802307129 C 18.6336784362793 17.99106788635254 18.5344066619873 17.99999237060547 18.43633460998535 17.99999237060547 Z"/>
    </g>
    <g id="Rectangle_14" data-name="Rectangle 14" class="cls-2" transform="translate(311.312 630.45)">
      <rect id="fill" class="cls-3" width="11.968" height="1.029" rx="0.514"/>
      <path class="cls-5" d="M0,-0.9714285135269165h11.968313217163086M9.968313217163086,0v1.0285714864730835M11.968313217163086,2h-11.968313217163086M2,1.0285714864730835v-1.0285714864730835"/>
    </g>
    <g id="Rectangle_15" data-name="Rectangle 15" class="cls-2" transform="translate(311.312 633.899)">
      <rect id="fill-2" class="cls-3" width="11.968" height="1.029" rx="0.514"/>
      <path class="cls-6" d="M0,-0.9714285135269165h11.968313217163086M9.968313217163086,0v1.0285714864730835M11.968313217163086,2h-11.968313217163086M2,1.0285714864730835v-1.0285714864730835"/>
    </g>
    <g id="Rectangle_16" data-name="Rectangle 16" class="cls-2" transform="translate(311.312 637.349)">
      <rect id="fill-3" class="cls-3" width="6.794" height="1.029" rx="0.514"/>
      <path class="cls-7" d="M0,-0.9714285135269165h6.793827056884766M4.793827056884766,0v1.0285714864730835M6.793827056884766,2h-6.793827056884766M2,1.0285714864730835v-1.0285714864730835"/>
    </g>
  </g>
</svg>
