<svg xmlns="http://www.w3.org/2000/svg" viewBox="0 0 14.999 19.721">
    <defs>
        <style>
            .cls-1{fill:#fff}
        </style>
    </defs>
    <g id="Group_383" data-name="Group 383">
        <path id="Path_788" d="M86.716 0c.181.039.362.069.539.116A4.26 4.26 0 0 1 90.3 2.858a.225.225 0 0 1-.019.2c-.3.32-.62.628-.948.955-.05-.208-.085-.4-.143-.585a3.062 3.062 0 0 0-5.962.4 7.9 7.9 0 0 0-.046 1.209q-.006 2.473 0 4.949a.4.4 0 0 1-.131.32c-.293.281-.574.57-.859.855-.042.042-.092.085-.173.158-.027-.266-.069-.489-.069-.716 0-2.118-.012-4.237 0-6.355A4.3 4.3 0 0 1 85.7.035.78.78 0 0 0 85.826 0z" class="cls-1" data-name="Path 788" transform="translate(-78.785)"/>
        <path id="Path_789" d="M14.174 55.4c.277.281.558.562.824.828L.828 70.4 0 69.576Q7.077 62.5 14.174 55.4z" class="cls-1" data-name="Path 789" transform="translate(0 -53.266)"/>
        <path id="Path_790" d="M84.05 264.107v1.193h.57a.617.617 0 1 1 .008 1.233h-2.389a.616.616 0 1 1 0-1.229h.566v-1.224A6.17 6.17 0 0 1 79 262.716l.867-.867c.162.1.339.227.528.335a4.418 4.418 0 0 0 2.018.632 10.153 10.153 0 0 0 2.816-.119 4.9 4.9 0 0 0 3.709-4.256c.046-.478.027-.963.039-1.441v-.3h1.233c0 .424.008.844 0 1.263a6.131 6.131 0 0 1-4.861 5.974c-.421.085-.849.108-1.299.17z" class="cls-1" data-name="Path 790" transform="translate(-75.957 -246.813)"/>
        <path id="Path_791" d="M135.814 184.827v.454c0 1.025.012 2.053-.008 3.077a4.3 4.3 0 0 1-6.594 3.447 2.066 2.066 0 0 1-.189-.131.086.086 0 0 1-.023-.027c.293-.293.582-.578.878-.878a3.354 3.354 0 0 0 1.306.451 3.057 3.057 0 0 0 3.351-2.6c.065-.562.035-1.14.046-1.71a2.638 2.638 0 0 1 .035-.894c.108-.258.4-.439.609-.655.181-.185.358-.377.539-.562.019.009.036.02.05.028z" class="cls-1" data-name="Path 791" transform="translate(-124.031 -177.682)"/>
        <path id="Path_792" d="M17.761 256.3h1.229v.528a6.328 6.328 0 0 0 .177 1.922.178.178 0 0 1-.027.154c-.3.308-.6.609-.917.921a7.756 7.756 0 0 1-.462-3.525z" class="cls-1" data-name="Path 792" transform="translate(-17.064 -246.428)"/>
    </g>
</svg>
