<svg xmlns="http://www.w3.org/2000/svg" viewBox="0 0 13.543 7.109">
  <defs>
    <style>
      .cls-1 {
        fill: #3cc3b3;
      }
    </style>
  </defs>
  <path id="Path_820" data-name="Path 820" class="cls-1" d="M6.772-8.075a3.614,3.614,0,0,1-.938,2.51A3.061,3.061,0,0,1,3.459-4.526a3.268,3.268,0,0,1-1.9-.6,5.561,5.561,0,0,1-1.589-1.9,5.792,5.792,0,0,1-1.533,1.8,3.05,3.05,0,0,1-1.847.635,3.219,3.219,0,0,1-2.415-.971A3.527,3.527,0,0,1-6.772-8.12a3.526,3.526,0,0,1,.943-2.51,3.165,3.165,0,0,1,2.415-1.005q2.033,0,3.4,2.459,1.393-2.415,3.47-2.415a3.12,3.12,0,0,1,2.4.983A3.58,3.58,0,0,1,6.772-8.075Zm-10.1,2.1a2.063,2.063,0,0,0,1.353-.511A5.576,5.576,0,0,0-.752-8.12,5.29,5.29,0,0,0-1.926-9.731a2.123,2.123,0,0,0-1.421-.522,1.871,1.871,0,0,0-1.415.59A2.177,2.177,0,0,0-5.323-8.1,2.174,2.174,0,0,0-4.779-6.57,1.876,1.876,0,0,0-3.324-5.975Zm6.648-4.234a2.05,2.05,0,0,0-1.353.517A5.879,5.879,0,0,0,.741-8.075a5.449,5.449,0,0,0,1.19,1.617,2.116,2.116,0,0,0,1.415.528,1.854,1.854,0,0,0,1.415-.6,2.171,2.171,0,0,0,.562-1.544,2.134,2.134,0,0,0-.567-1.544A1.9,1.9,0,0,0,3.324-10.208Z" transform="translate(6.771 11.635)"/>
</svg>
