<svg xmlns="http://www.w3.org/2000/svg" viewBox="0 0 22.053 16.819">
    <defs>
        <style>
            .cls-1{fill:none}.cls-2,.cls-3{stroke:none}.cls-3{fill:#fff}
        </style>
    </defs>
    <g id="Path_806" class="cls-1" data-name="Path 806">
        <path d="M-2067-7127.181a3 3 0 0 1-3-3V-7141a3 3 0 0 1 3-3h11.681a3 3 0 0 1 3 3v2.952l1.293-.85c.852-.558 3.078-.5 3.078 1.4v4.206c0 1.795-2.227 1.7-3.078 1.141l-1.293-.85v2.825a3 3 0 0 1-3 3z" class="cls-2" transform="translate(2070 7144)"/>
        <path d="M-2055.32-7129.18c.553 0 1.002-.449 1.002-1V-7141c0-.552-.45-1-1.001-1H-2067a1 1 0 0 0-1 1v10.82a1 1 0 0 0 1 1h11.68m5.373-4.663v-3.353a.358.358 0 0 0-.04.008l-1.232.81-1.294.851 1.293.85 1.262.83a.181.181 0 0 0 .011.004m-5.372 6.662H-2067a3 3 0 0 1-3-3V-7141a3 3 0 0 1 3-2.999h11.68a3.001 3.001 0 0 1 3.002 3v2.951l1.293-.85c.288-.188.733-.307 1.197-.307.906 0 1.881.451 1.881 1.704v4.206c0 1.112-.855 1.498-1.708 1.498-.524 0-1.046-.145-1.37-.358l-1.293-.85v2.826a3 3 0 0 1-3.001 3z" class="cls-3" transform="translate(2070 7144)"/>
    </g>
</svg>
