<svg xmlns="http://www.w3.org/2000/svg" viewBox="0 0 425.022 256.807">
    <defs>
        <style>
            .cls-1{fill:#fff}.cls-2{fill:none;stroke:#2a2522;stroke-miterlimit:10;stroke-width:2px}
        </style>
    </defs>
    <g id="Group_349" data-name="Group 349" transform="translate(.022)">
        <path id="Path_918" d="M17.366 36.049c3.2 8.674 10.043 13.924 15.065 12.1s6.391-10.5 3.2-18.945c-3.2-8.674-10.043-13.924-15.065-12.1s-6.391 10.272-3.2 18.945" class="cls-1" data-name="Path 918" transform="translate(18.805 20.19)"/>
        <ellipse id="Ellipse_52" cx="9.587" cy="16.663" class="cls-2" data-name="Ellipse 52" rx="9.587" ry="16.663" transform="rotate(-20.811 125.813 -62.548)"/>
        <path id="Path_919" d="M34.277 34.7c-21-.457-32.184 85.825-16.891 130.106 0 0 24.2 7.989 43.141 5.935 7.989-2.054-7.532-66.195-7.532-66.195s.913-69.39-18.717-69.847" class="cls-1" data-name="Path 919" transform="translate(11.938 43.222)"/>
        <path id="Path_920" d="M34.277 34.7c-21-.457-32.184 85.825-16.891 130.106 0 0 24.2 7.989 43.141 5.935 7.989-2.054-7.532-66.195-7.532-66.195s.912-69.388-18.718-69.846z" class="cls-2" data-name="Path 920" transform="translate(11.938 43.222)"/>
        <path id="Path_921" d="M48.269 201.519c-9.359-47.249-8.446-37.891-8.446-37.891m25.793 44.282l6.848-42.456M50.323 43.793s11.413 49.532 52.043 21.913M34.345 39s-66.195 20.771-12.1 52.727" class="cls-2" data-name="Path 921" transform="translate(0 48.738)"/>
        <path id="Path_922" d="M181.693 25.423c36.293 3.88 13.467 82.173 21 132.846 1.37 9.13-46.793-2.054-46.793-2.054s0-133.53 25.793-130.791" class="cls-1" data-name="Path 922" transform="translate(198.69 31.271)"/>
        <path id="Path_923" d="M181.693 25.423c36.293 3.88 13.467 82.173 21 132.846 1.37 9.13-46.793-2.054-46.793-2.054s0-133.531 25.793-130.792z" class="cls-2" data-name="Path 923" transform="translate(198.69 31.271)"/>
        <path id="Path_924" d="M187.06 112.46l-2.283-26.478m-21.227 28.989S158.3 93.743 158.3 83.7" class="cls-2" data-name="Path 924" transform="translate(201.768 106.069)"/>
        <path id="Path_925" d="M162.81 25.032c.457 10.043 2.739 18.489 8.445 18.945 5.706.685 11.185-6.848 12.326-16.663.457-3.88 4.337-21.913 4.337-21.913h-23.282c0-.228-2.054 14.152-1.826 19.63" class="cls-1" data-name="Path 925" transform="translate(207.53 5.642)"/>
        <path id="Path_926" d="M162.81 25.032c.457 10.043 2.739 18.489 8.445 18.945 5.706.685 11.185-6.848 12.326-16.663.457-3.88 4.337-21.913 4.337-21.913h-23.282c0-.228-2.054 14.152-1.826 19.631z" class="cls-2" data-name="Path 926" transform="translate(207.53 5.642)"/>
        <path id="Line_39" d="M21 0H0" class="cls-2" data-name="Line 39" transform="translate(369.655 30.673)"/>
        <path id="Path_927" d="M173.8 29.2s60.716 24.424 5.022 47.477" class="cls-2" data-name="Path 927" transform="translate(221.648 36.168)"/>
        <path id="Path_928" d="M164.393 24.323c36.293 3.88 13.467 82.173 21 132.846 1.37 9.13-46.793-2.054-46.793-2.054s0-133.53 25.793-130.791" class="cls-1" data-name="Path 928" transform="translate(176.501 29.861)"/>
        <path id="Path_929" d="M164.393 24.323c36.293 3.88 13.467 82.173 21 132.846 1.37 9.13-46.793-2.054-46.793-2.054s0-133.531 25.793-130.792z" class="cls-2" data-name="Path 929" transform="translate(176.501 29.861)"/>
        <path id="Path_930" d="M169.76 111.36l-2.283-26.478m-21.227 28.989S141 92.643 141 82.6" class="cls-2" data-name="Path 930" transform="translate(179.58 104.658)"/>
        <path id="Path_931" d="M145.51 23.932c.457 10.043 2.739 18.489 8.445 18.945 5.706.685 11.185-6.848 12.326-16.663.457-3.88 4.337-21.913 4.337-21.913h-23.282c0-.228-2.054 14.152-1.826 19.63" class="cls-1" data-name="Path 931" transform="translate(185.341 4.231)"/>
        <path id="Path_932" d="M145.51 23.932c.457 10.043 2.739 18.489 8.445 18.945 5.706.685 11.185-6.848 12.326-16.663.457-3.88 4.337-21.913 4.337-21.913h-23.282c0-.228-2.054 14.152-1.826 19.631z" class="cls-2" data-name="Path 932" transform="translate(185.341 4.231)"/>
        <path id="Line_40" d="M20.771 0H0" class="cls-2" data-name="Line 40" transform="translate(330.395 28.163)"/>
        <path id="Path_933" d="M147.093 23.223c36.293 3.88 13.467 82.173 21 132.846 1.37 9.13-46.793-2.054-46.793-2.054s0-133.53 25.793-130.791" class="cls-1" data-name="Path 933" transform="translate(154.313 28.45)"/>
        <path id="Path_934" d="M147.093 23.223c36.293 3.88 13.467 82.173 21 132.846 1.37 9.13-46.793-2.054-46.793-2.054s0-133.531 25.793-130.792z" class="cls-2" data-name="Path 934" transform="translate(154.313 28.45)"/>
        <path id="Path_935" d="M152.46 110.26l-2.283-26.478m-21.227 28.989S123.7 91.543 123.7 81.5" class="cls-2" data-name="Path 935" transform="translate(157.391 103.247)"/>
        <path id="Path_936" d="M128.21 22.83c.457 10.043 2.739 18.489 8.445 18.945 5.706.685 11.185-6.848 12.326-16.663.457-3.88 4.337-21.913 4.337-21.913h-23.282s-2.054 14.152-1.826 19.63" class="cls-1" data-name="Path 936" transform="translate(163.153 2.822)"/>
        <path id="Path_937" d="M128.21 22.83c.457 10.043 2.739 18.489 8.445 18.945 5.706.685 11.185-6.848 12.326-16.663.457-3.88 4.337-21.913 4.337-21.913h-23.282s-2.054 14.153-1.826 19.631z" class="cls-2" data-name="Path 937" transform="translate(163.153 2.822)"/>
        <path id="Line_41" d="M20.771 0H0" class="cls-2" data-name="Line 41" transform="translate(290.906 25.652)"/>
        <path id="Path_938" d="M129.793 22.227c36.293 3.88 13.467 82.173 21 132.846 1.37 9.13-46.793-2.054-46.793-2.054s0-133.759 25.793-130.792" class="cls-1" data-name="Path 938" transform="translate(132.124 27.163)"/>
        <path id="Path_939" d="M129.793 22.227c36.293 3.88 13.467 82.173 21 132.846 1.37 9.13-46.793-2.054-46.793-2.054s0-133.759 25.793-130.792z" class="cls-2" data-name="Path 939" transform="translate(132.124 27.163)"/>
        <path id="Path_940" d="M135.16 109.389l-2.283-26.478m-21.228 28.76S106.4 90.443 106.4 80.4" class="cls-2" data-name="Path 940" transform="translate(135.203 101.836)"/>
        <path id="Path_941" d="M110.91 21.73c.456 10.043 2.739 18.489 8.446 18.945 5.706.685 11.185-6.848 12.326-16.663.457-3.88 4.337-21.913 4.337-21.913h-23.283s-2.054 14.152-1.826 19.63" class="cls-1" data-name="Path 941" transform="translate(140.964 1.411)"/>
        <path id="Path_942" d="M110.91 21.73c.456 10.043 2.739 18.489 8.446 18.945 5.706.685 11.185-6.848 12.326-16.663.457-3.88 4.337-21.913 4.337-21.913h-23.283s-2.054 14.153-1.826 19.631z" class="cls-2" data-name="Path 942" transform="translate(140.964 1.411)"/>
        <path id="Line_42" d="M20.771 0H0" class="cls-2" data-name="Line 42" transform="translate(251.418 23.141)"/>
        <path id="Path_943" d="M112.493 22.227c36.293 3.88 13.467 82.173 21 132.846 1.37 9.13-46.793-2.054-46.793-2.054s0-133.759 25.793-130.791" class="cls-1" data-name="Path 943" transform="translate(109.936 27.163)"/>
        <path id="Path_944" d="M112.493 22.227c36.293 3.88 13.467 82.173 21 132.846 1.37 9.13-46.793-2.054-46.793-2.054s0-133.759 25.793-130.792z" class="cls-2" data-name="Path 944" transform="translate(109.936 27.163)"/>
        <path id="Path_945" d="M117.86 109.389l-2.283-26.478m-21.227 28.76S89.1 90.443 89.1 80.4" class="cls-2" data-name="Path 945" transform="translate(113.014 101.836)"/>
        <path id="Path_946" d="M93.609 21.73c.456 10.043 2.739 18.489 8.445 18.945 5.706.685 11.185-6.848 12.326-16.663.457-3.88 4.337-21.913 4.337-21.913H95.663s-2.283 14.152-2.054 19.63" class="cls-1" data-name="Path 946" transform="translate(118.777 1.411)"/>
        <path id="Path_947" d="M93.609 21.73c.456 10.043 2.739 18.489 8.445 18.945 5.706.685 11.185-6.848 12.326-16.663.457-3.88 4.337-21.913 4.337-21.913H95.663s-2.282 14.153-2.054 19.631z" class="cls-2" data-name="Path 947" transform="translate(118.777 1.411)"/>
        <path id="Line_43" d="M20.771 0H0" class="cls-2" data-name="Line 43" transform="translate(211.929 23.141)"/>
        <path id="Path_948" d="M95.193 21.123c36.293 3.88 13.467 82.173 21 132.846 1.37 9.13-46.793-2.054-46.793-2.054s0-133.53 25.793-130.791" class="cls-1" data-name="Path 948" transform="translate(87.747 25.756)"/>
        <path id="Path_949" d="M95.193 21.123c36.293 3.88 13.467 82.173 21 132.846 1.37 9.13-46.793-2.054-46.793-2.054s0-133.531 25.793-130.792z" class="cls-2" data-name="Path 949" transform="translate(87.747 25.756)"/>
        <path id="Path_950" d="M94.426 24.5S28.688 39.108 84.383 62.162m28.76 116.411L110.86 152.1m-21.227 28.984s-5.25-21.228-5.25-31.271" class="cls-2" data-name="Path 950" transform="translate(78.243 30.14)"/>
        <path id="Path_951" d="M76.309 20.63c.456 10.043 2.739 18.489 8.445 18.945 5.706.685 11.185-6.848 12.326-16.663C97.537 19.261 101.646 1 101.646 1H78.363s-2.283 14.38-2.054 19.63" class="cls-1" data-name="Path 951" transform="translate(96.588)"/>
        <path id="Path_952" d="M76.309 20.63c.456 10.043 2.739 18.489 8.445 18.945 5.706.685 11.185-6.848 12.326-16.663C97.537 19.261 101.646 1 101.646 1H78.363s-2.282 14.38-2.054 19.63z" class="cls-2" data-name="Path 952" transform="translate(96.588)"/>
        <path id="Line_44" d="M20.771 0H0" class="cls-2" data-name="Line 44" transform="translate(172.441 20.63)"/>
    </g>
</svg>
