<svg xmlns="http://www.w3.org/2000/svg" viewBox="0 0 17 17">
    <defs>
        <style>
            .cls-1{fill:#fff;stroke:#fff}
        </style>
    </defs>
    <path id="Path_784" d="M3.311 0a2.876 2.876 0 0 1 1.25.837 51.56 51.56 0 0 0 1.856 1.856 1.654 1.654 0 0 1 .012 2.543c-.437.381-.831.812-1.25 1.237a17.773 17.773 0 0 0 4.348 4.355c.45-.45.887-.893 1.331-1.337a1.552 1.552 0 0 1 2.262-.069q1.246 1.181 2.424 2.43a3.72 3.72 0 0 1 .456.837v.625c-.244.337-.475.687-.743 1.012-.225.269-.5.5-.743.756a2.846 2.846 0 0 1-1.443.806l-.444.112H11.5l-.144-.056a21.417 21.417 0 0 1-2.256-.675 15.91 15.91 0 0 1-5.435-4A14.243 14.243 0 0 1 .35 5.854C.194 5.373.112 4.867 0 4.373v-.937a5.329 5.329 0 0 1 .431-1.281A6.221 6.221 0 0 1 2.686 0zM.993 3.942a5.952 5.952 0 0 0 .65 2.58 16.492 16.492 0 0 0 7.416 7.628 7.169 7.169 0 0 0 2.574.812 2.5 2.5 0 0 0 2.349-.775c.244-.281.525-.531.793-.8.281-.287.325-.569.05-.85a97.386 97.386 0 0 0-2.405-2.405.546.546 0 0 0-.831.037c-.437.431-.868.868-1.306 1.3a.981.981 0 0 1-1.406.112A18.515 18.515 0 0 1 4.4 7.1a.966.966 0 0 1 .112-1.374c.431-.437.868-.868 1.3-1.306a.569.569 0 0 0 .044-.856.9.9 0 0 0-.131-.137Q4.673 2.365 3.6 1.306C3.186.893 2.936.893 2.524 1.3c-.25.25-.487.512-.756.75a2.32 2.32 0 0 0-.775 1.892z" class="cls-1" data-name="Path 784" transform="translate(.5 .5)"/>
</svg>
