<svg xmlns="http://www.w3.org/2000/svg" viewBox="0 0 20.267 19">
    <defs>
        <style>
            .cls-1{fill:#b47eb9}
        </style>
    </defs>
    <path id="STAR" d="M12.9 21.263l-1.476 6.179a.633.633 0 0 0 .94.692l5.549-3.3 5.547 3.3a.633.633 0 0 0 .94-.691l-1.476-6.179 4.9-4.151A.633.633 0 0 0 27.468 16l-6.46-.533L18.5 9.608a.633.633 0 0 0-1.164 0l-2.512 5.858L8.363 16a.633.633 0 0 0-.357 1.114zm2.4-4.567a.632.632 0 0 0 .53-.382l2.08-4.851 2.077 4.85a.632.632 0 0 0 .53.382l5.316.438-4.029 3.414a.632.632 0 0 0-.206.63l1.219 5.1-4.577-2.72a.63.63 0 0 0-.647 0l-4.585 2.723 1.219-5.1a.632.632 0 0 0-.206-.63l-4.028-3.416z" class="cls-1" transform="translate(-7.782 -9.224)"/>
</svg>
