<svg xmlns="http://www.w3.org/2000/svg" id="Group_339" data-name="Group 339" viewBox="0 0 208.585 251.422">
    <defs>
        <style>
            .cls-1{fill:#b47eb9}.cls-2{fill:#f6f0f7}
        </style>
    </defs>
    <path id="Path_913" d="M27.25 65.483V40.645c0-12.419 1.694-20.887 4.516-25.685A16.067 16.067 0 0 1 36 9.879a9.747 9.747 0 0 1 5.08-1.411c3.1 0 7.056 1.129 11.855 3.952l.565.282 82.983 34.717 1.694-3.952-1.977 3.669a48.924 48.924 0 0 1 23.992 25.685c4.516 10.161 5.645 20.887 5.645 29.354v41.774l-28.79-13.266a3.966 3.966 0 0 0-5.081 1.411l-21.451 30.2L83.418 58.709a4.185 4.185 0 0 0-7.9-.565L55.757 99.918 24.71 86.087a3.928 3.928 0 0 0-3.952.282 4.825 4.825 0 0 0-1.976 3.669v36.975c0 18.064 4.234 31.612 10.726 41.774a58.733 58.733 0 0 0 23.709 20.887h.283l49.959 20.887 30.2 39.233a4.443 4.443 0 0 0 4.8 1.411 4.245 4.245 0 0 0 2.823-3.952v-27.1h-4.234l-1.694 3.952a32.292 32.292 0 0 0 12.137 2.54 22.367 22.367 0 0 0 11.29-2.823c5.081-2.823 9.032-7.621 11.855-13.83s3.952-13.548 4.234-22.016V175a4.234 4.234 0 0 0-8.468 0v12.984c0 10.161-2.258 18.064-5.645 22.863a15.175 15.175 0 0 1-5.927 5.363 15.626 15.626 0 0 1-7.339 1.694 21.544 21.544 0 0 1-8.75-1.976 3.928 3.928 0 0 0-3.952.282 4.4 4.4 0 0 0-1.976 3.669v14.391l-23.145-30.2a7.483 7.483 0 0 0-1.694-1.411l-50.805-21.452-1.694 3.952 1.976-3.669a49.9 49.9 0 0 1-20.887-17.782c-5.645-8.75-9.314-20.322-9.314-37.257V95.966l28.79 12.7a4.6 4.6 0 0 0 5.645-1.976l16.371-35 26.532 101.329a3.9 3.9 0 0 0 3.387 3.1 4.025 4.025 0 0 0 4.234-1.694l24.838-34.717 31.612 14.677a3.928 3.928 0 0 0 3.952-.282 4.825 4.825 0 0 0 1.976-3.669v-47.976a82.161 82.161 0 0 0-6.492-32.741c-5.081-11.572-13.83-22.863-28.225-29.919h-.282L56.6 4.8l-1.689 3.95 1.976-3.669C51.806 1.976 46.443 0 41.08 0a18.159 18.159 0 0 0-9.88 2.823 17.965 17.965 0 0 0-5.645 5.645c-2.258 3.387-3.952 7.9-5.363 13.266a92.125 92.125 0 0 0-1.692 18.91v24.839a4.341 4.341 0 0 0 4.234 4.234 4.23 4.23 0 0 0 4.516-4.234" class="cls-1" data-name="Path 913" transform="translate(33.717)"/>
    <path id="Path_914" d="M18.346 6.2C7.056 6.2 0 17.49 0 42.893V128.7c0 35 16.088 51.088 32.177 58.991l.565 31.612 26.25-20.887 56.451 24.274a23.78 23.78 0 0 0 10.161 2.258c8.75 0 15.524-5.645 19.193-15.806l-7.9-10.161-49.963-20.889h-.282a58.733 58.733 0 0 1-23.709-20.887c-6.492-10.161-10.726-23.709-10.726-41.774V78.175a4.825 4.825 0 0 1 1.976-3.669 3.041 3.041 0 0 1 2.258-.565 3.58 3.58 0 0 1 1.694.282l31.048 13.83L108.95 46.28a3.3 3.3 0 0 1 3.1-2.258L60.967 22.571c0 2.258-.282 4.516-.282 6.774v24.838a4.234 4.234 0 1 1-8.468 0V29.345c0-3.669.282-7.056.565-10.443l-20.6-8.75C27.1 7.611 22.58 6.2 18.346 6.2M116.571 46c.282.282.282.847.565 1.129l27.1 103.587 3.387-4.8v-41.492c0-17.5-5.081-44.878-31.048-58.426m-4.8 14.677l-16.371 35a4.78 4.78 0 0 1-3.952 2.54 3.58 3.58 0 0 1-1.694-.282L60.967 84.666v30.484c0 16.653 3.952 28.508 9.314 37.257A50.3 50.3 0 0 0 90.6 170.189l50.806 21.451a7.484 7.484 0 0 1 1.694 1.411l4.234 5.363a69.386 69.386 0 0 0 .565-7.9v-29.921l-1.976 2.54a4.024 4.024 0 0 1-3.387 1.694h-.847a4.239 4.239 0 0 1-3.387-3.1z" class="cls-2" data-name="Path 914" transform="translate(0 11.3)"/>
    <path id="Path_915" d="M19.065 10.8c-.282 3.1-.565 6.492-.565 10.443v24.839a4.234 4.234 0 0 0 8.468 0V21.243a50.025 50.025 0 0 1 .282-6.774zm59.273 24.838a4.37 4.37 0 0 0-3.1 2.258L55.475 79.67 24.427 65.839a3.58 3.58 0 0 0-1.694-.282 5.317 5.317 0 0 0-2.258.565 4.825 4.825 0 0 0-1.975 3.669v36.975c0 18.064 4.234 31.612 10.726 41.774a58.733 58.733 0 0 0 23.709 20.887h.282l49.959 20.887 7.9 10.161a40.033 40.033 0 0 0 2.258-10.726l-4.234-5.363a7.484 7.484 0 0 0-1.694-1.411L56.6 161.523a46.866 46.866 0 0 1-20.04-17.5c-5.645-8.75-9.314-20.322-9.314-37.257V76.283l28.79 12.7a3.58 3.58 0 0 0 1.694.282 4.257 4.257 0 0 0 3.952-2.54l16.371-35 26.532 101.611a3.9 3.9 0 0 0 3.387 3.1h.847a4.024 4.024 0 0 0 3.387-1.694l1.976-2.54v-14.67l-3.387 4.8L83.7 38.743a1.466 1.466 0 0 0-.565-1.129c-.282-.282-.565-.282-1.129-.565z" class="cls-1" data-name="Path 915" transform="translate(33.717 19.683)"/>
</svg>
