<svg xmlns="http://www.w3.org/2000/svg" viewBox="0 0 120 120">
    <defs>
        <style>
            .cls-1{fill:#f7f7f7}.cls-2,.cls-3{fill:#b47eb9}.cls-2{opacity:.47}
        </style>
    </defs>
    <g id="Group_639" data-name="Group 639" transform="translate(-140 -746)">
        <path id="_7bf5944663c147746ce4ed7fb9c35ca0" d="M0 0h120v120H0z" class="cls-1" data-name="7bf5944663c147746ce4ed7fb9c35ca0" transform="translate(140 746)"/>
        <g id="Group_638" data-name="Group 638" transform="translate(168 775)">
            <path id="Path_741" d="M57.228 50.355a5.184 5.184 0 0 1-5.184 5.184h-19.3L25.978 60.9v-5.329h-2.185a5.184 5.184 0 0 1-5.168-5.217v-28.2a5.184 5.184 0 0 1 5.184-5.184h12.047v-3.75H23.793a8.95 8.95 0 0 0-8.933 8.933v28.2a8.95 8.95 0 0 0 7.368 8.8v9.52l11.835-9.39h17.932a8.95 8.95 0 0 0 8.982-8.933z" class="cls-2" data-name="Path 741" transform="translate(-14.86 -5.95)"/>
            <path id="Path_742" d="M38.79 34.843a1.875 1.875 0 0 0 1.842-1.63l3.26-7.189L47.3 33.75l5.168 11.411a1.875 1.875 0 0 0 1.712 1.092h.147a1.875 1.875 0 0 0 1.63-1.092l4.679-10.319h9.471a1.875 1.875 0 0 0 1.63-1.858V17.693A8.95 8.95 0 0 0 62.8 8.76H34.763a8.95 8.95 0 0 0-8.933 8.933v6.684a1.875 1.875 0 0 0 3.749 0v-6.684a5.184 5.184 0 0 1 5.184-5.184H63a5.184 5.184 0 0 1 5.184 5.184v13.384h-8.691a1.875 1.875 0 0 0-1.842 1.63l-3.26 7.368-3.537-7.808-5.169-11.411v-.1l-.245-.2-.114-.147-.13-.147-.13-.114-.147-.114-.163-.1h-1.63l-.147.082-.147.114-.13.114-.13.147-.163.163-.1.179v.1l-4.791 10.26h-9.781a1.875 1.875 0 0 0-1.875 1.875v13.041a8.95 8.95 0 0 0 8.9 8.787h17.933l11.884 9.455V54.8a8.95 8.95 0 0 0 7.368-8.8v-4.735a1.875 1.875 0 0 0-3.749 0v4.727a5.184 5.184 0 0 1-5.184 5.184h-2.2v5.249l-6.765-5.363H34.763a5.184 5.184 0 0 1-5.184-5.184V34.794z" class="cls-3" data-name="Path 742" transform="translate(-7.947 -8.76)"/>
        </g>
    </g>
</svg>
