<svg xmlns="http://www.w3.org/2000/svg" viewBox="0 0 21.938 13.078">
  <defs>
    <style>
      .cls-1 {
        fill: #fff;
      }
    </style>
  </defs>
  <path id="Path_805" data-name="Path 805" class="cls-1" d="M-13.808,0l-.932-3.059h-4.685L-20.355,0h-2.936l4.535-12.9h3.331L-10.872,0ZM-15.39-5.344q-1.292-4.157-1.455-4.7t-.233-.861q-.29,1.125-1.661,5.563ZM-3.226,0l-.519-1.336h-.07A3.959,3.959,0,0,1-5.208-.154a4.5,4.5,0,0,1-1.868.33A3.02,3.02,0,0,1-9.3-.633a3.105,3.105,0,0,1-.813-2.3A2.593,2.593,0,0,1-9.022-5.243a6.341,6.341,0,0,1,3.3-.822l1.705-.053v-.431A1.336,1.336,0,0,0-5.546-8.042a6.969,6.969,0,0,0-2.769.712L-9.2-9.141a7.988,7.988,0,0,1,3.762-.888,4.686,4.686,0,0,1,3.032.861A3.183,3.183,0,0,1-1.354-6.548V0Zm-.791-4.553-1.037.035a3.321,3.321,0,0,0-1.74.422,1.325,1.325,0,0,0-.571,1.178q0,1.134,1.3,1.134a2.06,2.06,0,0,0,1.49-.536,1.883,1.883,0,0,0,.558-1.424Z" transform="translate(23.291 12.902)"/>
</svg>
