<svg width="39" height="39" fill-rule="evenodd" clip-rule="evenodd" stroke-linejoin="round" stroke-miterlimit="1.414" viewBox="-2 -2 39 39" id="social-telegram" x="521" y="552" xmlns="http://www.w3.org/2000/svg"><circle cx="17.5" cy="17.5" r="17.5" fill="#469acb"/><path d="M8.675 17.206l4.216 1.415 1.634 4.72c.105.3.515.413.788.212l2.35-1.72a.762.762 0 0 1 .855-.022l4.238 2.767c.292.19.706.047.78-.27l3.104-13.425c.08-.347-.3-.635-.666-.507l-17.302 6c-.426.146-.423.69.005.833zm5.585.66l8.24-4.56c.147-.082.3.1.172.204l-6.8 5.682c-.24.2-.392.467-.436.757l-.232 1.54c-.03.207-.352.227-.416.028l-.89-2.814c-.102-.32.046-.663.362-.84z" fill="#fff" fill-rule="nonzero"/></svg>