<svg xmlns="http://www.w3.org/2000/svg" viewBox="0 0 120 120">
    <defs>
        <style>
            .cls-1{fill:#f7f7f7}.cls-2{fill:#d0d0d0}
        </style>
    </defs>
    <g id="Group_662" data-name="Group 662" transform="translate(-294 -1025)">
        <g id="Group_658" data-name="Group 658" transform="translate(154 279)">
            <path id="_7bf5944663c147746ce4ed7fb9c35ca0" d="M0 0h120v120H0z" class="cls-1" data-name="7bf5944663c147746ce4ed7fb9c35ca0" transform="translate(140 746)"/>
        </g>
        <path id="Path_1093" d="M-730.187-3084.636c-5.111-1.916-7.813-4.651-7.813-7.908a25.691 25.691 0 0 1 1.965-9.909 25.406 25.406 0 0 1 5.358-8.091 24.912 24.912 0 0 1 7.947-5.456 24.667 24.667 0 0 1 2.42-.9 15.075 15.075 0 0 1-3.3-2.5A14.9 14.9 0 0 1-728-3130a14.9 14.9 0 0 1 4.394-10.606A14.9 14.9 0 0 1-713-3145a14.9 14.9 0 0 1 10.607 4.393A14.9 14.9 0 0 1-698-3130a14.9 14.9 0 0 1-4.393 10.606 15.075 15.075 0 0 1-3.3 2.5 24.667 24.667 0 0 1 2.42.9 24.912 24.912 0 0 1 7.947 5.456 25.406 25.406 0 0 1 5.358 8.091 25.691 25.691 0 0 1 1.965 9.909c0 3.257-2.7 5.992-7.813 7.908A50.842 50.842 0 0 1-713-3082a50.842 50.842 0 0 1-17.187-2.636zm9.414-28.265a19.894 19.894 0 0 0-6.349 4.358 20.282 20.282 0 0 0-4.28 6.464 20.531 20.531 0 0 0-1.57 7.916c0 2.6 2.158 4.786 6.241 6.317A40.618 40.618 0 0 0-713-3085.74a40.618 40.618 0 0 0 13.73-2.106c4.082-1.531 6.241-3.715 6.241-6.317a20.531 20.531 0 0 0-1.57-7.916 20.282 20.282 0 0 0-4.28-6.464 19.894 19.894 0 0 0-6.349-4.358 19.524 19.524 0 0 0-7.773-1.6 19.524 19.524 0 0 0-7.772 1.601zm0-24.878A10.924 10.924 0 0 0-724-3130a10.926 10.926 0 0 0 3.222 7.779A10.924 10.924 0 0 0-713-3119a10.924 10.924 0 0 0 7.778-3.222A10.926 10.926 0 0 0-702-3130a10.924 10.924 0 0 0-3.222-7.778A10.928 10.928 0 0 0-713-3141a10.929 10.929 0 0 0-7.778 3.222z" class="cls-2" data-name="Path 1093" transform="translate(1067 4200)"/>
    </g>
</svg>
