<svg xmlns="http://www.w3.org/2000/svg" viewBox="0 0 27.187 27.588">
    <defs>
        <style>
            .cls-1{fill:#b47eb9}
        </style>
    </defs>
    <g id="Group_527" data-name="Group 527" transform="translate(-614.305 -338.5)">
        <path id="Path_5" d="M17.913 28.165c-4.045 0-8.558-1.947-12.218-5.6C-.158 16.729-1.745 8.607 2 3.674l1.368 1.037C.19 8.895 1.743 16.2 6.905 21.354s12.372 6.6 16.433 3.315L24.416 26a10.192 10.192 0 0 1-6.5 2.163z" class="cls-1" data-name="Path 5" transform="translate(614.325 337.923)"/>
        <path id="Path_6" d="M26.594 23.478l-6.477-6.5-1.164 1.168a6.475 6.475 0 0 1-9.182 0 6.529 6.529 0 0 1 0-9.2l1.168-1.171L4.458 1.27 5.671.06l7.687 7.712-2.374 2.381a4.812 4.812 0 0 0 0 6.785 4.762 4.762 0 0 0 6.755 0l2.379-2.386 7.69 7.715-1.213 1.21z" class="cls-1" data-name="Path 6" transform="translate(613.684 338.44)"/>
    </g>
</svg>
