<svg width="39" height="39" fill-rule="evenodd" clip-rule="evenodd" stroke-linejoin="round" stroke-miterlimit="1.414" viewBox="-2 -2 39 39" id="social-viber" x="560" y="552" xmlns="http://www.w3.org/2000/svg"><circle cx="17.5" cy="17.5" r="17.5" fill="#765597"/><g fill="#fff" fill-rule="nonzero"><path d="M24.8 15.893c.025-2.82-2.442-5.404-5.498-5.762-.06-.006-.127-.017-.197-.027-.15-.024-.308-.05-.465-.05-.627 0-.794.43-.838.685-.043.248-.002.456.12.62.21.274.574.323.867.363.084.01.165.02.233.037 2.745.598 3.67 1.537 4.122 4.188.01.065.016.146.02.23.02.316.062.976.79.976.06 0 .125-.004.193-.014.676-.1.655-.703.645-.993-.003-.08-.005-.16.002-.21 0-.013.003-.026.003-.04z"/><path d="M18.462 9.096c.08.005.158.01.223.02 4.508.676 6.582 2.756 7.156 7.182.01.075.014.167.015.264.006.346.02 1.065.812 1.08h.024c.25 0 .447-.072.59-.217.247-.25.23-.626.216-.926-.004-.075-.008-.145-.007-.205.057-4.526-3.967-8.63-8.61-8.782a.27.27 0 0 0-.056.003 2.076 2.076 0 0 1-.22-.006 3.436 3.436 0 0 0-.238-.01c-.74 0-.88.51-.9.816-.04.703.66.753.997.778zm7.16 12.92a10.3 10.3 0 0 1-.286-.218c-.492-.387-1.016-.74-1.522-1.086a34.71 34.71 0 0 1-.315-.213c-.65-.446-1.233-.66-1.785-.66-.742 0-1.39.397-1.923 1.185-.237.35-.524.52-.878.52-.21 0-.447-.06-.706-.173-2.096-.925-3.59-2.344-4.447-4.215-.412-.904-.28-1.496.45-1.977.413-.272 1.183-.78 1.13-1.754-.064-1.105-2.568-4.432-3.624-4.81a2.107 2.107 0 0 0-1.398-.004C9.105 9.01 8.234 9.708 7.8 10.63c-.42.89-.4 1.937.056 3.025 1.316 3.147 3.167 5.89 5.5 8.155 2.285 2.217 5.093 4.03 8.346 5.396.293.123.6.19.826.238l.19.044a.31.31 0 0 0 .08.012h.026c1.53 0 3.368-1.36 3.932-2.914.496-1.36-.407-2.03-1.133-2.57zM19.14 12.69c-.264.007-.81.02-1 .56-.09.253-.078.473.032.652.162.265.474.346.757.39 1.024.16 1.55.713 1.656 1.74.05.477.38.812.805.812.03 0 .064 0 .097-.006.51-.06.76-.425.736-1.087.008-.687-.363-1.472-.994-2.096-.634-.627-1.398-.98-2.09-.963z"/></g></svg>