<svg xmlns="http://www.w3.org/2000/svg" viewBox="0 0 320 64">
  <defs>
    <style>
      .cls-1, .cls-3 {
        fill: none;
      }

      .cls-2, .cls-5 {
        fill: #fff;
      }

      .cls-4, .cls-5 {
        stroke: none;
      }
    </style>
  </defs>
  <g id="Group_87" data-name="Group 87" transform="translate(-33 -6070)">
    <path id="Union_24" data-name="Union 24" class="cls-1" d="M256,64H192V0H320V64ZM128,64H64V0H192V64ZM0,64V0H64V64Z" transform="translate(33 6070)"/>
    <g id="SOUND_MINUS" data-name="SOUND MINUS" transform="translate(114.429 6088.771)">
      <path id="Path_793" data-name="Path 793" class="cls-2" d="M34.307,23.236l3.7-3.7a.814.814,0,0,0-1.153-1.151l-3.7,3.705-3.7-3.705A.814.814,0,0,0,28.3,19.534l3.7,3.7-3.7,3.7a.814.814,0,0,0,1.153,1.151l3.7-3.7,3.7,3.7A.814.814,0,0,0,38,26.937Z" transform="translate(-9.23 -8.702)"/>
      <path id="Path_794" data-name="Path 794" class="cls-2" d="M23.422,39.5a1.071,1.071,0,0,0,.473-.111,1.058,1.058,0,0,0,.583-.945V13.115a1.055,1.055,0,0,0-1.688-.845l-8.654,6.474H9.624A1.054,1.054,0,0,0,8.569,19.8V31.761a1.054,1.054,0,0,0,1.055,1.055h4.51l8.654,6.474A1.065,1.065,0,0,0,23.422,39.5Zm-1.055-3.163-7.248-5.422a1.058,1.058,0,0,0-.632-.21H10.681V20.855h3.806a1.058,1.058,0,0,0,.632-.21l7.248-5.422Z" transform="translate(-8.569 -12.06)"/>
    </g>
    <g id="Group_84" data-name="Group 84" transform="translate(50 6091)">
      <path id="Path_797" data-name="Path 797" class="cls-2" d="M15.2,22.979q-5.089,0-10.178,0a14.236,14.236,0,0,1-1.745-.042A3.409,3.409,0,0,1,.582,21.029a3.38,3.38,0,0,1-.389-1.656C.2,18.313.2,17.256.2,16.2c0-3.215.006-6.429,0-9.644A3.6,3.6,0,0,1,.867,4.327,3.5,3.5,0,0,1,3.776,2.843c1.576-.012,3.155,0,4.731,0A.217.217,0,0,0,8.741,2.7c.193-.416.392-.831.6-1.241a2.261,2.261,0,0,1,.733-.8A3.356,3.356,0,0,1,12.1,0c2.081.012,4.164,0,6.245,0a3.188,3.188,0,0,1,2.478,1.137,3.494,3.494,0,0,1,.424.742c.151.294.285.6.436.89a.2.2,0,0,0,.154.068c.629.006,1.256,0,1.885,0,.938,0,1.879,0,2.817,0a3.552,3.552,0,0,1,2.321.8A3.426,3.426,0,0,1,30.2,6.369c.012,3.4,0,6.794,0,10.193v2.79a3.572,3.572,0,0,1-3.663,3.63q-5.343,0-10.682,0c-.22,0-.439,0-.656,0ZM15.191,21.1h9.273c.727,0,1.454.009,2.179,0a1.645,1.645,0,0,0,1.351-.706,1.832,1.832,0,0,0,.329-1.146q0-2.76,0-5.521V6.588c0-.08,0-.157,0-.237A1.693,1.693,0,0,0,26.637,4.73c-1.707,0-3.413,0-5.12,0A3.8,3.8,0,0,1,21,4.712a.865.865,0,0,1-.689-.46c-.276-.54-.546-1.086-.793-1.641a1.18,1.18,0,0,0-1.134-.727c-.772-.024-1.543-.006-2.315-.006-1.365,0-2.731-.015-4.1.009a1.119,1.119,0,0,0-1.066.65c-.214.451-.427.9-.647,1.348a2.748,2.748,0,0,1-.279.5.978.978,0,0,1-.816.347q-2.707,0-5.417,0a1.6,1.6,0,0,0-1.074.395,1.732,1.732,0,0,0-.614,1.389V19.233c0,.074,0,.148,0,.223a1.706,1.706,0,0,0,1.719,1.65H5.8Q10.5,21.106,15.191,21.1Z" transform="translate(-0.193 0.001)"/>
      <path id="Path_798" data-name="Path 798" class="cls-2" d="M297.431,212.074a6.566,6.566,0,1,1-6.554-6.574A6.573,6.573,0,0,1,297.431,212.074Zm-11.252-.018a4.687,4.687,0,1,0,4.681-4.678A4.7,4.7,0,0,0,286.179,212.056Z" transform="translate(-275.867 -199.4)"/>
    </g>
    <g id="Group_85" data-name="Group 85" transform="translate(245 6086)">
      <path id="Path_788" data-name="Path 788" class="cls-2" d="M89.838,0c.3.064.6.115.892.191a7.046,7.046,0,0,1,5.033,4.536.372.372,0,0,1-.032.331c-.5.529-1.026,1.038-1.567,1.58-.083-.344-.14-.663-.236-.968a5.065,5.065,0,0,0-9.862.656,13.07,13.07,0,0,0-.076,2q-.01,4.09,0,8.186a.667.667,0,0,1-.217.529c-.484.465-.949.943-1.421,1.414-.07.07-.153.14-.287.261-.045-.44-.115-.809-.115-1.185-.006-3.5-.019-7.008,0-10.512A7.109,7.109,0,0,1,88.157.057,1.29,1.29,0,0,0,88.367,0Z" transform="translate(-76.721)"/>
      <path id="Path_789" data-name="Path 789" class="cls-2" d="M23.444,55.4c.459.465.924.93,1.363,1.37Q13.092,68.485,1.37,80.207c-.44-.44-.911-.9-1.37-1.363Q11.706,67.138,23.444,55.4Z" transform="translate(0 -51.871)"/>
      <path id="Path_790" data-name="Path 790" class="cls-2" d="M87.352,268.951v1.975h.943a1.021,1.021,0,1,1,.013,2.039h-3.95a1.019,1.019,0,1,1,0-2.032h.936v-2.026A10.205,10.205,0,0,1,79,266.651l1.433-1.433c.268.172.561.376.873.554a7.308,7.308,0,0,0,3.338,1.045,16.793,16.793,0,0,0,4.657-.2,8.1,8.1,0,0,0,6.135-7.04c.076-.79.045-1.593.064-2.383.006-.159,0-.318,0-.5h2.039c0,.7.013,1.4,0,2.09a10.14,10.14,0,0,1-8.04,9.881C88.8,268.811,88.091,268.849,87.352,268.951Z" transform="translate(-73.967 -240.347)"/>
      <path id="Path_791" data-name="Path 791" class="cls-2" d="M140.27,184.845v.752c0,1.695.019,3.4-.013,5.09a7.109,7.109,0,0,1-10.907,5.7,3.422,3.422,0,0,1-.312-.217.142.142,0,0,1-.038-.045c.484-.484.962-.956,1.452-1.452a5.548,5.548,0,0,0,2.16.745,5.057,5.057,0,0,0,5.542-4.3c.108-.93.057-1.886.076-2.829a4.363,4.363,0,0,1,.057-1.478c.178-.427.663-.726,1.007-1.083.3-.306.592-.624.892-.93C140.219,184.813,140.244,184.832,140.27,184.845Z" transform="translate(-120.782 -173.027)"/>
      <path id="Path_792" data-name="Path 792" class="cls-2" d="M17.77,256.3H19.8c0,.287.006.58,0,.873a10.467,10.467,0,0,0,.293,3.179.3.3,0,0,1-.045.255c-.491.51-.994,1.007-1.516,1.523A12.828,12.828,0,0,1,17.77,256.3Z" transform="translate(-16.617 -239.972)"/>
    </g>
    <g id="Group_86" data-name="Group 86" transform="translate(304 6089)">
      <g id="Union_23" data-name="Union 23" class="cls-3" transform="translate(0 0)">
        <path class="cls-4" d="M3,25.806a3,3,0,0,1-3-3V3A3,3,0,0,1,3,0H24.306a3,3,0,0,1,3,3V8.624L29.56,7.142c1.48-.972,5.36-.866,5.36,2.431V16.9c0,3.127-3.881,2.961-5.36,1.988L27.306,17.4v5.4a3,3,0,0,1-3,3Z"/>
        <path class="cls-5" d="M 24.30630111694336 23.80570030212402 C 24.85754013061523 23.80570030212402 25.30600166320801 23.35724067687988 25.30600166320801 22.80599975585938 L 25.30600166320801 17.4039192199707 L 25.30600166320801 13.69666004180908 L 28.40427017211914 15.73246002197266 L 30.65841102600098 17.21359062194824 C 30.83139038085938 17.32732963562012 31.33306121826172 17.50776100158691 31.94282150268555 17.50773048400879 C 32.386962890625 17.50770950317383 32.67898941040039 17.40937042236328 32.80418014526367 17.31735038757324 C 32.83884048461914 17.2918701171875 32.92000198364258 17.23221969604492 32.92000198364258 16.8966007232666 L 32.92000198364258 9.573300361633301 C 32.92000198364258 9.058509826660156 32.75094985961914 8.931059837341309 32.66971206665039 8.869810104370117 C 32.45217132568359 8.70580005645752 32.06870269775391 8.607890129089355 31.64394187927246 8.607890129089355 C 31.13581085205078 8.607890129089355 30.76006126403809 8.746740341186523 30.65804100036621 8.813759803771973 L 28.40444183349609 10.29485988616943 L 25.30600166320801 12.33120059967041 L 25.30600166320801 8.623499870300293 L 25.30600166320801 3.000600099563599 C 25.30600166320801 2.448870182037354 24.85754013061523 2.000000238418579 24.30630111694336 2.000000238418579 L 2.999701023101807 2.000000238418579 C 2.448461055755615 2.000000238418579 2.000000953674316 2.448870182037354 2.000000953674316 3.000600099563599 L 2.000000953674316 22.80599975585938 C 2.000000953674316 23.35724067687988 2.448461055755615 23.80570030212402 2.999701023101807 23.80570030212402 L 24.30630111694336 23.80570030212402 M 24.30630111694336 25.80570030212402 L 2.999701023101807 25.80570030212402 C 1.342800974845886 25.80570030212402 9.918212526827119e-07 24.46290016174316 9.918212526827119e-07 22.80599975585938 L 9.918212526827119e-07 3.000600099563599 C 9.918212526827119e-07 1.343700170516968 1.342800974845886 1.510620109002048e-07 2.999701023101807 1.510620109002048e-07 L 24.30630111694336 1.510620109002048e-07 C 25.96320152282715 1.510620109002048e-07 27.30600166320801 1.343700170516968 27.30600166320801 3.000600099563599 L 27.30600166320801 8.623499870300293 L 29.55960083007812 7.14240026473999 C 30.06044769287109 6.813377380371094 30.83647537231445 6.607889652252197 31.6439380645752 6.607889652252197 C 33.22188186645508 6.607889652252197 34.92000198364258 7.392536163330078 34.92000198364258 9.573300361633301 C 34.92000198364258 12.86910057067871 34.92000198364258 13.77000045776367 34.92000198364258 16.8966007232666 C 34.92000198364258 18.83450508117676 33.42886734008789 19.50765419006348 31.94293212890625 19.50773239135742 C 31.03147125244141 19.50778007507324 30.12212753295898 19.25458526611328 29.55960083007812 18.88470077514648 L 27.30600166320801 17.4039192199707 L 27.30600166320801 22.80599975585938 C 27.30600166320801 24.46290016174316 25.96320152282715 25.80570030212402 24.30630111694336 25.80570030212402 Z"/>
      </g>
      <path id="Path_796" data-name="Path 796" class="cls-2" d="M34.307,23.236l3.7-3.7a.814.814,0,0,0-1.153-1.151l-3.7,3.705-3.7-3.705A.814.814,0,0,0,28.3,19.534l3.7,3.7-3.7,3.7a.814.814,0,0,0,1.153,1.151l3.7-3.7,3.7,3.7A.814.814,0,0,0,38,26.937Z" transform="translate(-19.867 -10.198)"/>
    </g>
    <g id="Group_83" data-name="Group 83" transform="translate(213.727 6103.849) rotate(135)">
      <path id="Path_5" data-name="Path 5" class="cls-2" d="M19.32,26.385c-4.358,0-9.219-2.1-13.163-6.032C-.148,14.065-1.858,5.314,2.181,0l1.47,1.117C.227,5.625,1.9,13.5,7.461,19.047s13.328,7.108,17.7,3.572l1.161,1.436a10.98,10.98,0,0,1-7.007,2.33Z" transform="translate(0 3.336)"/>
      <path id="Path_6" data-name="Path 6" class="cls-2" d="M23.848,25.229l-6.978-7-1.255,1.258a6.976,6.976,0,0,1-9.892,0,7.034,7.034,0,0,1,0-9.916L6.982,8.309,0,1.3,1.307,0,9.589,8.308,7.031,10.874a5.184,5.184,0,0,0,0,7.309,5.13,5.13,0,0,0,7.277,0l2.563-2.57,8.285,8.312-1.307,1.3Z" transform="translate(4.134 0)"/>
    </g>
  </g>
</svg>
