<svg xmlns="http://www.w3.org/2000/svg" viewBox="0 0 22.053 16.819">
  <defs>
    <style>
      .cls-1 {
        fill: none;
      }

      .cls-2, .cls-3 {
        stroke: none;
      }

      .cls-3 {
        fill: #b47eb9;
      }
    </style>
  </defs>
  <g id="Path_806" data-name="Path 806" class="cls-1" transform="translate(2070 7144)">
    <path class="cls-2" d="M-2067-7127.181a3,3,0,0,1-3-3V-7141a3,3,0,0,1,3-3h11.681a3,3,0,0,1,3,3v2.952l1.293-.85c.852-.558,3.078-.5,3.078,1.4v4.206c0,1.795-2.227,1.7-3.078,1.141l-1.293-.85v2.825a3,3,0,0,1-3,3Z"/>
    <path class="cls-3" d="M -2055.3193359375 -7128.1806640625 C -2054.2158203125 -7128.1806640625 -2053.318115234375 -7129.07763671875 -2053.318115234375 -7130.18017578125 L -2053.318115234375 -7133.00537109375 L -2053.318115234375 -7134.859375 L -2051.768798828125 -7133.8408203125 L -2050.4765625 -7132.99169921875 C -2050.357666015625 -7132.91357421875 -2050.040771484375 -7132.7978515625 -2049.6552734375 -7132.7978515625 C -2049.408447265625 -7132.7978515625 -2049.19091796875 -7132.84912109375 -2049.073486328125 -7132.935546875 C -2049.032470703125 -7132.9658203125 -2048.94677734375 -7133.02880859375 -2048.94677734375 -7133.29638671875 L -2048.94677734375 -7137.50244140625 C -2048.94677734375 -7137.69482421875 -2048.94677734375 -7138.20556640625 -2049.827880859375 -7138.20556640625 C -2050.14404296875 -7138.20556640625 -2050.3896484375 -7138.11962890625 -2050.475830078125 -7138.0634765625 L -2051.768798828125 -7137.21337890625 L -2053.318115234375 -7136.1943359375 L -2053.318115234375 -7138.048828125 L -2053.318115234375 -7141.00048828125 C -2053.318115234375 -7142.10302734375 -2054.2158203125 -7143 -2055.3193359375 -7143 L -2067 -7143 C -2068.102783203125 -7143 -2068.999755859375 -7142.10302734375 -2068.999755859375 -7141.00048828125 L -2068.999755859375 -7130.18017578125 C -2068.999755859375 -7129.07763671875 -2068.102783203125 -7128.1806640625 -2067 -7128.1806640625 L -2055.3193359375 -7128.1806640625 M -2055.3193359375 -7127.1806640625 L -2067 -7127.1806640625 C -2068.65673828125 -7127.1806640625 -2069.999755859375 -7128.5234375 -2069.999755859375 -7130.18017578125 L -2069.999755859375 -7141.00048828125 C -2069.999755859375 -7142.65673828125 -2068.65673828125 -7144 -2067 -7144 L -2055.3193359375 -7144 C -2053.66259765625 -7144 -2052.318115234375 -7142.65673828125 -2052.318115234375 -7141.00048828125 L -2052.318115234375 -7138.048828125 L -2051.025390625 -7138.89892578125 C -2050.737060546875 -7139.08740234375 -2050.29150390625 -7139.20556640625 -2049.827880859375 -7139.20556640625 C -2048.921630859375 -7139.20556640625 -2047.946899414062 -7138.7548828125 -2047.946899414062 -7137.50244140625 C -2047.946899414062 -7135.60888671875 -2047.946899414062 -7135.0927734375 -2047.946899414062 -7133.29638671875 C -2047.946899414062 -7132.18408203125 -2048.802001953125 -7131.7978515625 -2049.655029296875 -7131.7978515625 C -2050.1787109375 -7131.79736328125 -2050.701416015625 -7131.943359375 -2051.025390625 -7132.15576171875 L -2052.318115234375 -7133.00537109375 L -2052.318115234375 -7130.18017578125 C -2052.318115234375 -7128.5234375 -2053.66259765625 -7127.1806640625 -2055.3193359375 -7127.1806640625 Z"/>
  </g>
</svg>
