<svg xmlns="http://www.w3.org/2000/svg" viewBox="0 0 32 32">
    <defs>
        <style>
            .cls-1{opacity:.244}
        </style>
    </defs>
    <path id="vk-alternitive" d="M33 29.444V4.556A3.571 3.571 0 0 0 29.436 1H4.564A3.467 3.467 0 0 0 1 4.556v24.888A3.466 3.466 0 0 0 4.564 33h24.872A3.57 3.57 0 0 0 33 29.444zm-6.784-9.588a20.908 20.908 0 0 1 2.508 2.907.491.491 0 0 1 .025.044c.2.338.252.6.151.8a1.345 1.345 0 0 1-.93.5h-3.553a2.484 2.484 0 0 1-1.39-.5 8.6 8.6 0 0 1-1.417-1.426c-.69-.8-1.287-1.493-1.888-1.493a.681.681 0 0 0-.224.037c-.457.146-1.036.795-1.036 2.528a.818.818 0 0 1-.729.852H16.1a8.774 8.774 0 0 1-6-2.894c-3.14-3.307-5.959-9.94-5.984-10-.178-.428.19-.661.59-.661H8.3a.741.741 0 0 1 .747.553 23.987 23.987 0 0 0 1.362 2.843c1.25 2.192 2.02 3.084 2.633 3.084a.673.673 0 0 0 .327-.087c.8-.443.652-3.3.617-3.892a3.813 3.813 0 0 0-.411-1.838 1.773 1.773 0 0 0-1.1-.619 1.313 1.313 0 0 1 .473-.4 6.6 6.6 0 0 1 2.524-.313h.548a6.04 6.04 0 0 1 1.732.181c.78.187.8.693.727 2.418a40.13 40.13 0 0 0-.041 1.7c0 .14-.005.3-.005.455-.025.882-.053 1.879.569 2.288a.513.513 0 0 0 .268.078c.217 0 .866 0 2.624-3.017a22.215 22.215 0 0 0 1.41-3.02.94.94 0 0 1 .263-.325.617.617 0 0 1 .3-.069h4.222c.462 0 .775.069.834.245.1.283-.02 1.145-1.948 3.751l-.859 1.138c-1.752 2.296-1.752 2.414.1 4.153z" class="cls-1" transform="translate(-1 -1)"/>
</svg>
