<svg xmlns="http://www.w3.org/2000/svg" viewBox="0 0 4.219 14.521">
    <defs>
        <style>
            .cls-1{fill:#e86767}
        </style>
    </defs>
    <path id="Path_801" d="M4.521-5.039H1.3l-.5-9.238h4.22zM.84-1.621A1.8 1.8 0 0 1 1.367-3 2.165 2.165 0 0 1 2.9-3.5a2.1 2.1 0 0 1 1.509.5 1.827 1.827 0 0 1 .513 1.382A1.778 1.778 0 0 1 4.39-.249 2.108 2.108 0 0 1 2.9.244a2.179 2.179 0 0 1-1.513-.493A1.753 1.753 0 0 1 .84-1.621z" class="cls-1" data-name="Path 801" transform="translate(-.801 14.277)"/>
</svg>
