<svg xmlns="http://www.w3.org/2000/svg" viewBox="0 0 428.259 398.026">
    <defs>
        <style>
            .cls-1{fill:#fff}.cls-1,.cls-2,.cls-3,.cls-4{stroke:#505050}.cls-2{fill:none;stroke-miterlimit:10;stroke-width:2px}.cls-3{fill:#b47eb9}
        </style>
    </defs>
    <g id="Group_319" data-name="Group 319" transform="translate(0 -2.963)">
        <path id="Path_860" d="M248.362 27.086L224.036 18 1 105.925v174.091l24.326 12.016" class="cls-1" data-name="Path 860" transform="translate(0 27.055)"/>
        <path id="Path_861" d="M248.362 27.086L224.036 18 1 105.925v174.091l24.326 12.016" class="cls-2" data-name="Path 861" transform="translate(0 27.055)"/>
        <path id="Path_862" d="M9.3 286.047v-177.9L232.336 21.1v175.557z" class="cls-1" data-name="Path 862" transform="translate(16.026 33.041)"/>
        <path id="Path_863" d="M9.3 286.047v-177.9L232.336 21.1v175.557z" class="cls-2" data-name="Path 863" transform="translate(16.026 33.041)"/>
        <path id="Path_864" d="M36.241 122.341S44.74 78.965 29.5 69" class="cls-2" data-name="Path 864" transform="translate(55.029 125.528)"/>
        <path id="Line_17" d="M0 0l24.326 8.206" class="cls-2" data-name="Line 17" transform="translate(1 132.98)"/>
        <path id="Path_865" d="M111.552 47.227L130.9 39.9l-9.672 15.533s12.9-5.569 13.189 5.569c.586 10.844-2.345 14.654-9.379 17-4.982 1.758-9.965.586-12.309-2.931m-48.07 1.757c0-9.672 0-15.533 11.723-20.223C87.519 52.5 86.64 58.071 86.64 63.64c0 9.379-21.4 20.223-21.1 33.7L89.571 86.5M20.4 133.1l9.672-19.93v36.93M16.3 202.854l26.084-55.686 37.222 13.189 18.757-68.581 17.292 27.257 34.584-60.375S176.323 95 177.789 93.827s21.4-50.7 21.4-50.7" class="cls-2" data-name="Path 865" transform="translate(29.542 69.34)"/>
        <path id="Path_866" d="M68.378 78.425c-21.688 7.62-35.756 88.218-24.912 120.164 7.034 20.223 53.341 22.274 53.341 22.274 10.258-24.912-6.741-102.872-11.43-115.182-4.689-12.6-4.689-31.653-17-27.257" class="cls-1" data-name="Path 866" transform="translate(74.768 142.48)"/>
        <path id="Path_867" d="M68.378 78.425c-21.688 7.62-35.756 88.218-24.912 120.164 7.034 20.223 53.341 22.274 53.341 22.274 10.258-24.912-6.741-102.872-11.43-115.182-4.69-12.602-4.69-31.652-16.999-27.256z" class="cls-2" data-name="Path 867" transform="translate(74.768 142.48)"/>
        <path id="Path_868" d="M53.584 166.376C42.446 163.739 44.5 123 44.5 123" class="cls-1" data-name="Path 868" transform="translate(83.7 229.793)"/>
        <path id="Path_869" d="M53.584 166.376C42.446 163.739 44.5 123 44.5 123" class="cls-2" data-name="Path 869" transform="translate(83.7 229.793)"/>
        <path id="Path_870" d="M73.974 166.132C65.182 166.718 55.51 138 51.7 125.1" class="cls-1" data-name="Path 870" transform="translate(97.893 233.847)"/>
        <path id="Path_871" d="M73.974 166.132C65.182 166.718 55.51 138 51.7 125.1" class="cls-2" data-name="Path 871" transform="translate(97.893 233.847)"/>
        <path id="Path_872" d="M75.181 79.471c3.517 10.551 1.172 20.809-5.569 22.86-6.448 2.052-14.654-4.4-18.171-14.947C49.682 82.109 44.7 72.73 44.7 72.73L64.337 61.3c3.224 2.931 9.086 12.9 10.844 18.171" class="cls-1" data-name="Path 872" transform="translate(84.377 110.66)"/>
        <path id="Path_873" d="M75.181 79.471c3.517 10.551 1.172 20.809-5.569 22.86-6.448 2.052-14.654-4.4-18.171-14.947C49.682 82.109 44.7 72.73 44.7 72.73L64.337 61.3c3.223 2.931 9.085 12.9 10.844 18.171z" class="cls-2" data-name="Path 873" transform="translate(84.377 110.66)"/>
        <path id="Path_874" d="M84.621 95.33s47.773 36.049 41.618-19.93M69.381 93.864s-71.512 16.413-14.068 45.428" class="cls-2" data-name="Path 874" transform="translate(61.748 137.885)"/>
        <path id="Line_18" d="M0 14.654L19.637 0" class="cls-2" data-name="Line 18" transform="translate(137.87 186.614)"/>
        <path id="Path_875" d="M139.613 63.8S100.926 91.646 76.6 59.7" class="cls-2" data-name="Path 875" transform="translate(145.971 107.571)"/>
        <path id="Path_876" d="M117.229 55.225c21.688 7.62 24.326 119.285 21.981 128.957-7.327 31.653-45.135 9.965-50.41 10.551 0 0 6.741-99.941 11.43-112.251 4.4-12.6 4.4-31.653 17-27.257" class="cls-1" data-name="Path 876" transform="translate(169.527 97.685)"/>
        <path id="Path_877" d="M117.229 55.225c21.688 7.62 24.326 119.285 21.981 128.957-7.327 31.653-45.135 9.965-50.41 10.551 0 0 6.741-99.941 11.43-112.251 4.396-12.603 4.396-31.653 16.999-27.257z" class="cls-2" data-name="Path 877" transform="translate(169.527 97.685)"/>
        <path id="Path_878" d="M126.239 148.049v-39.567M85.5 141.308c11.43-.293 21.4-37.808 21.4-37.808" class="cls-2" data-name="Path 878" transform="translate(163.155 192.141)"/>
        <path id="Path_879" d="M115.259 64.577c-4.1 10.258-12.9 16.413-19.05 13.775C89.761 75.715 88 65.457 92.4 55.2c2.052-4.689 7.913-14.654 11.137-17l23.154 8.5c0 3.81-9.672 13.775-11.43 17.878" class="cls-1" data-name="Path 879" transform="translate(171.79 66.058)"/>
        <path id="Path_880" d="M115.259 64.577c-4.1 10.258-12.9 16.413-19.05 13.775C89.761 75.715 88 65.457 92.4 55.2c2.052-4.689 7.913-14.654 11.137-17l23.154 8.5c-.002 3.809-9.673 13.774-11.432 17.877z" class="cls-2" data-name="Path 880" transform="translate(171.79 66.058)"/>
        <path id="Line_19" d="M0 0l20.223 11.43" class="cls-2" data-name="Line 19" transform="translate(266.24 118.912)"/>
        <path id="Path_881" d="M121.864 10.7l2.636 23.447 9.086 81.477M103.4 159.879s7.62-36.635 27.257-72.392" class="cls-2" data-name="Path 881" transform="translate(197.717 12.96)"/>
        <path id="Path_882" d="M123.7 23.445l2.931 24.326c17.292 8.792 62.134-17.585 62.134-17.585L169.714 25.2l16.12-21.1c-.293-.293-42.2 27.257-62.134 19.343" class="cls-3" data-name="Path 882" transform="translate(236.913 .215)"/>
        <path id="Path_883" d="M123.7 23.445l2.931 24.326c17.292 8.792 62.134-17.585 62.134-17.585L169.714 25.2l16.12-21.1c-.293-.292-42.204 27.258-62.134 19.345z" class="cls-2" data-name="Path 883" transform="translate(236.913 .215)"/>
        <path id="Path_884" d="M142.907 12.9c8.206 8.206-21.1 11.137-18.171 17.878" class="cls-4" data-name="Path 884" transform="translate(238.514 17.208)"/>
        <path id="Path_885" d="M142.907 12.9c8.206 8.206-21.1 11.137-18.171 17.878" class="cls-2" data-name="Path 885" transform="translate(238.514 17.208)"/>
        <path id="Path_886" d="M173.664 30.108l-2.93-24.326C153.442-3.01 108.6 23.367 108.6 23.367l2.931 26.377c.293.293 42.2-27.257 62.134-19.637" class="cls-3" data-name="Path 886" transform="translate(207.757)"/>
        <path id="Path_887" d="M173.664 30.108l-2.93-24.326C153.442-3.01 108.6 23.367 108.6 23.367l2.931 26.377c.293.294 42.204-27.256 62.133-19.636z" class="cls-2" data-name="Path 887" transform="translate(207.757)"/>
    </g>
</svg>
