<svg xmlns="http://www.w3.org/2000/svg" viewBox="0 0 453.656 424.121">
    <defs>
        <style>
            .cls-1,.cls-3,.cls-6{fill:none}.cls-1,.cls-4{stroke:#b47eb9}.cls-1,.cls-2,.cls-3,.cls-4{stroke-miterlimit:10;stroke-width:2px}.cls-2,.cls-4,.cls-7{fill:#fff}.cls-2,.cls-3{stroke:#505050}.cls-5{fill:#3cc3b3}.cls-8{fill:#505050}
        </style>
    </defs>
    <g id="Group_299" data-name="Group 299" transform="translate(.035 -.03)">
        <path id="Path_751" d="M5.3 236.611l5.684-47.073m31.625 48.239S33.136 196.1 36.05 184" class="cls-1" data-name="Path 751" transform="translate(1.966 83.651)"/>
        <path id="Path_753" d="M42.6 9.7l23.463-8.6 215.4 85.11v168.47l-23.318 11.659" class="cls-2" data-name="Path 753" transform="translate(19.025)"/>
        <path id="Path_755" d="M258.518 264.507V91.518L42.1 6.7v170.8z" class="cls-2" data-name="Path 755" transform="translate(18.797 2.561)"/>
        <path id="Line_4" d="M23.755 0L0 10.347" class="cls-3" data-name="Line 4" transform="translate(275.857 85.481)"/>
        <path id="Path_757" d="M231.983 227.049V95.742L57.1 27.1v129.559z" class="cls-2" data-name="Path 757" transform="translate(25.657 11.891)"/>
        <path id="Path_759" d="M94.306 91.18c-17.343 24.775 25.212 21.277 23.609 70.828l44.6 17.925c1.599-59.606-47.077-117.463-68.209-88.753z" class="cls-3" data-name="Path 759" transform="translate(40.77 37.73)"/>
        <path id="Path_760" d="M114.249 107.482S89.766 143.625 51 93.2" class="cls-3" data-name="Path 760" transform="translate(22.867 42.123)"/>
        <path id="Path_762" d="M78.73 81.986c.874 11.222 7.724 19.82 15.157 19.237s12.825-10.056 11.95-21.277-7.724-19.82-15.157-19.237c-7.58.583-12.825 10.056-11.95 21.277z" class="cls-3" data-name="Path 762" transform="translate(35.506 27.25)"/>
        <path id="Path_763" d="M113.289 105.222S163.714 34.686 90.7 65.436" class="cls-3" data-name="Path 763" transform="translate(41.024 25.874)"/>
        <path id="Path_765" d="M25.483 89.112C1.436 97.127.125 218.088 1.291 228.872c1.02 10.784 55.817-2.332 55.817-2.332s-7.433-94.873-12.679-108.14c-5.247-13.4-5.247-33.952-18.946-29.288z" class="cls-4" data-name="Path 765" transform="translate(0 39.944)"/>
        <path id="Path_767" d="M21.089 83.13c4.664 11.367 14.282 18.217 21.569 15.3 7.142-2.912 9.182-14.571 4.372-25.939C44.844 67.1 38.286 56.315 34.643 53.4L8.7 63.019c-.29 4.226 10.495 15.448 12.389 20.111z" class="cls-4" data-name="Path 767" transform="translate(3.519 23.92)"/>
        <path id="Path_768" d="M17.9 102.8s21.132 67.913 58.732 32.5" class="cls-1" data-name="Path 768" transform="translate(7.729 46.513)"/>
        <path id="Line_5" d="M22.443 0L0 14.428" class="cls-1" data-name="Line 5" transform="translate(25.191 93.059)"/>
        <path id="Path_769" d="M116.776 153.8s-5.684 66.455 4.955 71.411c10.639 5.1 24.192-9.473 48.53 5.1s-47.073 7.724-30.313 21.715 26.232-1.02 45.907 11.513" class="cls-3" data-name="Path 769" transform="translate(52.257 69.839)"/>
        <path id="Path_770" d="M169.891 234.419c8.015 6.121 18.508 18.8 15.74 22.443s-17.634-3.061-25.8-9.327c-8.015-6.121-8.307-11.076-5.538-14.719s7.578-4.664 15.594 1.6" class="cls-5" data-name="Path 770" transform="translate(69.387 104.642)"/>
        <path id="Path_771" d="M169.891 234.419c8.015 6.121 18.508 18.8 15.74 22.443s-17.634-3.061-25.8-9.327c-8.015-6.121-8.307-11.076-5.538-14.719s7.582-4.664 15.598 1.603z" class="cls-6" data-name="Path 771" transform="translate(69.387 104.642)"/>
        <path id="Path_772" d="M195.106 234.005s-20.257 5.829-17.78 23.318L154.3 240.418c15.885-6.558 17.78-23.318 17.78-23.318z" class="cls-5" data-name="Path 772" transform="translate(70.112 98.789)"/>
        <path id="Path_773" d="M195.106 232.915s-20.257 5.829-17.78 23.318L154.3 239.327a32.057 32.057 0 0 0 19.026-20.917z" class="cls-6" data-name="Path 773" transform="translate(70.112 99.879)"/>
        <path id="Path_774" d="M179.356 219.316c9.181 4.226 22.152 14.428 20.257 18.654s-17.78 1.02-26.961-3.206-10.493-9.036-8.744-13.262c1.895-4.226 6.267-6.412 15.448-2.186" class="cls-5" data-name="Path 774" transform="translate(74.203 98.76)"/>
        <path id="Path_775" d="M179.356 219.316c9.181 4.226 22.152 14.428 20.257 18.654s-17.78 1.02-26.961-3.206-10.493-9.036-8.744-13.262c1.892-4.227 6.267-6.413 15.448-2.186z" class="cls-6" data-name="Path 775" transform="translate(74.203 98.76)"/>
        <path id="Path_777" d="M272.763 251.9c-2.04 1.749-4.518 3.5-7.287 3.5-3.061 0-8.016-3.5-8.016-3.5-4.955 7.578-8.161 20.986-8.161 32.645 0 17.343 7.287 23.9 16.177 23.9s16.177-6.7 16.177-23.9c.147-15.445-8.89-32.645-8.89-32.645z" class="cls-2" data-name="Path 777" transform="translate(113.561 114.705)"/>
        <path id="Path_778" d="M213.661 215.109s14.719 46.344 41.826 41.68c27.253-4.663 23.9-1.02 17.343-17.78-6.558-16.614-33.228-28.418-40.952-30.022-7.87-1.6-14.428-4.372-19.091-1.749-4.663 2.769.874 7.87.874 7.87" class="cls-7" data-name="Path 778" transform="translate(96.007 93.785)"/>
        <path id="Path_779" d="M213.661 215.109s14.719 46.344 41.826 41.68c27.253-4.663 23.9-1.02 17.343-17.78-6.558-16.614-33.228-28.418-40.952-30.022-7.87-1.6-14.428-4.372-19.091-1.749-4.664 2.771.874 7.871.874 7.871z" class="cls-3" data-name="Path 779" transform="translate(96.007 93.785)"/>
        <path id="Path_780" d="M269.342 247.761s-8.744-.291.874-9.619 11.367-19.529 26.378-27.981 27.4 3.206 30.75 3.789 9.619 1.312-5.246 14.865-29.584 16.614-32.062 16.905c-2.623.146-20.695 2.04-20.695 2.04" class="cls-7" data-name="Path 780" transform="translate(121.063 94.215)"/>
        <path id="Path_781" d="M269.342 247.761s-8.744-.291.874-9.619 11.367-19.529 26.378-27.981 27.4 3.206 30.75 3.789 9.619 1.312-5.246 14.865-29.584 16.614-32.062 16.905c-2.623.147-20.694 2.041-20.694 2.041z" class="cls-3" data-name="Path 781" transform="translate(121.063 94.215)"/>
        <path id="Path_782" d="M267.375 251.786c5.829-1.02 8.89 10.93 27.253 4.372 18.217-6.7 14.428-7 0-13.7-14.282-6.85-21.569-2.478-23.026-.292-1.312 1.895-11.95 10.784-4.226 9.619" class="cls-7" data-name="Path 782" transform="translate(120.553 108.699)"/>
        <path id="Path_783" d="M267.375 251.786c5.829-1.02 8.89 10.93 27.253 4.372 18.217-6.7 14.428-7 0-13.7-14.282-6.85-21.569-2.478-23.026-.292-1.312 1.895-11.951 10.785-4.227 9.62z" class="cls-3" data-name="Path 783" transform="translate(120.553 108.699)"/>
        <path id="Path_784" d="M262.441 263.907s-2.915-9.764 0-14.865c1.02-1.749.583-3.643-.583-5.392-2.04-3.643-6.558-6.85-6.558-6.85" class="cls-3" data-name="Path 784" transform="translate(116.305 107.799)"/>
        <path id="Path_785" d="M271.079 231.04c10.056-1.166-12.1 5.829-12.679 15.739" class="cls-8" data-name="Path 785" transform="translate(117.723 105.107)"/>
        <path id="Path_786" d="M271.079 231.04c10.056-1.166-12.1 5.829-12.679 15.739" class="cls-3" data-name="Path 786" transform="translate(117.723 105.107)"/>
        <path id="Path_787" d="M258.5 253.158a13.447 13.447 0 0 1 11.367-6.558" class="cls-8" data-name="Path 787" transform="translate(117.769 112.281)"/>
        <path id="Path_788" d="M258.5 253.158a13.447 13.447 0 0 1 11.367-6.558" class="cls-3" data-name="Path 788" transform="translate(117.769 112.281)"/>
    </g>
</svg>
