<svg xmlns="http://www.w3.org/2000/svg" width="20.93" height="17.672" viewBox="0 0 20.93 17.672">
    <defs>
        <style>
            .cls-1,.cls-2{fill:#9a3ea2}.cls-3,.cls-4{stroke:none}.cls-4{fill:#fff}
        </style>
    </defs>
    <g id="Group_817" data-name="Group 817" transform="translate(-642 -37.328)">
        <rect id="Rectangle_841" width="17" height="3" class="cls-1" data-name="Rectangle 841" rx="1.5" transform="translate(642 40)"/>
        <rect id="Rectangle_842" width="17" height="3" class="cls-1" data-name="Rectangle 842" rx="1.5" transform="translate(642 46)"/>
        <rect id="Rectangle_843" width="17" height="3" class="cls-1" data-name="Rectangle 843" rx="1.5" transform="translate(642 52)"/>
        <g id="Path_2689" class="cls-2" data-name="Path 2689">
            <path d="M-399.595-2359.205l-.074-.007a8.965 8.965 0 0 0-.094-.009c-.575-.052-.871-.159-1.604-.723-.711-.548-2.996-2.965-3.299-3.286a2.48 2.48 0 0 1 .011-3.489 2.463 2.463 0 0 1 1.752-.725c.661 0 1.283.257 1.75.725l1.584 1.583 5.517-5.518a2.459 2.459 0 0 1 1.75-.725 2.46 2.46 0 0 1 1.75.725 2.46 2.46 0 0 1 .726 1.75 2.46 2.46 0 0 1-.725 1.751l-6.956 6.956-.024.024-.026.023c-.78.68-1.258.908-1.964.942l-.074.003z" class="cls-3" transform="translate(1051.756 2409.707)"/>
            <path d="M-399.57-2360.207c.423-.02.688-.116 1.356-.697l6.956-6.956a1.475 1.475 0 1 0-2.087-2.087l-6.224 6.225-2.291-2.29a1.47 1.47 0 0 0-1.043-.432 1.477 1.477 0 0 0-1.044 2.518s2.514 2.668 3.19 3.19c.677.521.754.486 1.188.529m-.052 2.005l-.148-.015-.085-.008c-.82-.075-1.275-.274-2.123-.927-.738-.569-2.774-2.711-3.409-3.385a3.48 3.48 0 0 1 .024-4.888 3.457 3.457 0 0 1 2.459-1.019c.928 0 1.8.361 2.457 1.017l.876.877 4.81-4.81a3.453 3.453 0 0 1 2.458-1.019c.929 0 1.801.362 2.458 1.018a3.454 3.454 0 0 1 1.018 2.458c0 .928-.362 1.801-1.018 2.457l-6.956 6.956-.049.049-.052.045c-.818.713-1.501 1.135-2.572 1.187l-.148.007z" class="cls-4" transform="translate(1051.756 2409.707)"/>
        </g>
    </g>
</svg>
