<svg xmlns="http://www.w3.org/2000/svg" width="96" height="96" viewBox="0 0 96 96">
    <defs>
        <style>
            .cls-1{fill:none}.cls-2{fill:#3cc3b3}.cls-3{fill:#9a3ea2}
        </style>
    </defs>
    <g id="Group_690" data-name="Group 690" transform="translate(-211 -2046)">
        <path id="Rectangle_605" d="M0 0h96v96H0z" class="cls-1" data-name="Rectangle 605" transform="translate(211 2046)"/>
        <path id="Subtraction_6" d="M38.8 37.8a84.313 84.313 0 0 1-10.821-.754 79.1 79.1 0 0 1-11.6-2.374C10.414 32.944 2.837 29.756.628 24.39c-1.743-4.233.143-9.126 5.606-14.541a64.518 64.518 0 0 1 8.949-7.731C17.356.673 19.09 0 20.64 0c1.971 0 3.479 1.12 5.225 2.416A19.213 19.213 0 0 0 38.8 6.931c6.86 0 10.644-2.471 13.685-4.457C54.436 1.2 56.118.1 58.066.1a8.62 8.62 0 0 1 5.068 2.1 50.039 50.039 0 0 1 7.611 7.651c4.671 5.523 6.031 10.5 4.042 14.786a14.824 14.824 0 0 1-5.657 5.97 37.588 37.588 0 0 1-9.2 4.091 68.832 68.832 0 0 1-10.767 2.352 75.954 75.954 0 0 1-10.363.75zM38 14.17a22.117 22.117 0 0 0-11.217 2.788c-3 1.8-4.646 4.188-4.646 6.73s1.65 4.932 4.646 6.73A22.117 22.117 0 0 0 38 33.206a22.115 22.115 0 0 0 11.223-2.786c3-1.8 4.646-4.188 4.646-6.73s-1.65-4.932-4.646-6.73a22.115 22.115 0 0 0-11.216-2.788z" class="cls-2" data-name="Subtraction 6" transform="translate(221.341 2073.493)"/>
        <path id="Subtraction_7" d="M16.457 32.915a16.462 16.462 0 0 1-6.406-31.622 16.462 16.462 0 0 1 12.812 30.328 16.355 16.355 0 0 1-6.406 1.294zm0-30.172a12.346 12.346 0 0 0-4.8 23.716 12.346 12.346 0 0 0 9.605-22.746 12.265 12.265 0 0 0-4.805-.97z" class="cls-3" data-name="Subtraction 7" transform="translate(242.543 2092.143)"/>
    </g>
</svg>
