<svg xmlns="http://www.w3.org/2000/svg" id="round-close-24px" width="24" height="24" viewBox="0 0 24 24">
    <defs>
        <style>
            .cls-1{fill:none}.cls-2{fill:#a0a0a0}
        </style>
    </defs>
    <path id="Path_2621" d="M0 0h24v24H0z" class="cls-1" data-name="Path 2621"/>
    <path id="Path_2622" d="M18.3 5.71a1 1 0 0 0-1.41 0L12 10.59 7.11 5.7A1 1 0 0 0 5.7 7.11L10.59 12 5.7 16.89a1 1 0 0 0 1.41 1.41L12 13.41l4.89 4.89a1 1 0 0 0 1.41-1.41L13.41 12l4.89-4.89a1 1 0 0 0 0-1.4z" class="cls-2" data-name="Path 2622"/>
</svg>
