<svg xmlns="http://www.w3.org/2000/svg" viewBox="0 0 32 32">
    <defs>
        <style>
            .cls-1{opacity:.244}
        </style>
    </defs>
    <path id="facebook" d="M29.444 1H4.556A3.566 3.566 0 0 0 1 4.556v24.888A3.565 3.565 0 0 0 4.556 33H17V20.556h-3.556v-4.4H17v-3.645c0-3.847 2.155-6.549 6.7-6.549h3.205V10.6h-2.133a2.348 2.348 0 0 0-2.439 2.556v3H26.9l-1.01 4.4h-3.557V33h7.111A3.565 3.565 0 0 0 33 29.444V4.556A3.566 3.566 0 0 0 29.444 1z" class="cls-1" transform="translate(-1 -1)"/>
</svg>
