<svg xmlns="http://www.w3.org/2000/svg" id="flamp" width="120" height="30" viewBox="0 0 120 30">
    <defs>
        <style>
            .cls-1{fill:#303540}.cls-2{clip-path:url(#clip-path)}.cls-3{fill:#fefefe}.cls-4{fill:#fff}.cls-5{fill:#2e6be5}
        </style>
        <clipPath id="clip-path">
            <path id="Rectangle_856" d="M0 0h120v30H0z" data-name="Rectangle 856"/>
        </clipPath>
    </defs>
    <path id="Rectangle_855" d="M0 0h56v30H0z" class="cls-1" data-name="Rectangle 855"/>
    <g id="Group_826" data-name="Group 826">
        <g id="Group_822" class="cls-2" data-name="Group 822">
            <path id="Path_2713" d="M21.22 21.22a4.281 4.281 0 1 0 6.054 0 4.3 4.3 0 0 0-6.054 0" class="cls-3" data-name="Path 2713" transform="translate(-9.274 -9.274)"/>
        </g>
        <g id="Group_823" class="cls-2" data-name="Group 823">
            <path id="Path_2714" d="M26.63 12.988v6.589a6.974 6.974 0 0 1-7.018 7.023h-6.589a9.539 9.539 0 0 0 13.446-.161 9.639 9.639 0 0 0 .161-13.446M12.7 19.684a6.974 6.974 0 0 1 7.018-7.018h6.589a9.539 9.539 0 0 0-13.446.161 9.64 9.64 0 0 0-.161 13.447z" class="cls-4" data-name="Path 2714" transform="translate(-4.666 -4.631)"/>
        </g>
        <g id="Group_824" class="cls-2" data-name="Group 824">
            <path id="Rectangle_858" d="M0 0h90v30H0z" class="cls-5" data-name="Rectangle 858" transform="translate(30)"/>
        </g>
        <g id="Group_825" class="cls-2" data-name="Group 825">
            <path id="Path_2715" d="M81.375 22.732A4.393 4.393 0 0 1 78 18.393C78 15.608 80.3 14 82.768 14H94.5v3.374h-6.857V20h5.3v3.267h-5.3v4.661H84v-10.66h-1.286a1.2 1.2 0 0 0-1.286 1.125 1.274 1.274 0 0 0 .857 1.179zM96.214 14h3.75v13.929h-3.75zm10.232 3.429c2.786 0 4.768 1.339 4.768 4.125v6.375h-3.161v-1.071a3.477 3.477 0 0 1-3.214 1.392 3.347 3.347 0 0 1-3.536-3.428c0-1.554 1.232-3.429 4.286-3.429h2.2v-.16c0-1.179-.429-1.607-1.393-1.607a1.273 1.273 0 0 0-1.446 1.232h-3.214c.161-1.982 1.768-3.428 4.714-3.428m1.393 6.589v-.59h-1.554c-.911 0-1.607.483-1.607 1.179 0 .751.536 1.126 1.446 1.126a1.63 1.63 0 0 0 1.714-1.714m14.3-4.768a3.161 3.161 0 0 1 3.054-1.767c2.571 0 3.7 1.607 3.7 4.178v6.268h-3.482v-5.574c0-1.178-.214-1.874-1.232-1.874-1.125 0-1.446.857-1.446 1.982v5.465h-3.486v-5.573c0-1.178-.268-1.874-1.339-1.874-1.125 0-1.5.964-1.5 2.142v5.357h-3.589V17.75h3.378v1.5a3.142 3.142 0 0 1 3.054-1.821 2.9 2.9 0 0 1 2.893 1.821m11.786-.107a3.448 3.448 0 0 1 3.214-1.714c2.679 0 4.286 2.25 4.286 5.411 0 3.214-1.661 5.41-4.286 5.41a3.521 3.521 0 0 1-3.107-1.392v4.821h-3.54V17.75h3.429zm1.929 6.321c1.5 0 2.089-1.233 2.089-2.625s-.536-2.571-2.089-2.571c-1.446 0-2.089 1.179-2.089 2.571.054 1.392.643 2.625 2.089 2.625" class="cls-4" data-name="Path 2715" transform="translate(-36.214 -6.5)"/>
        </g>
    </g>
</svg>
