<svg xmlns="http://www.w3.org/2000/svg" viewBox="0 0 4.32 13.86">
    <defs>
        <style>
            .cls-1{fill:#fff}
        </style>
    </defs>
    <path id="Path_1067" d="M2.07 0h-4.14v-9h4.14zm.09-11.88a1.864 1.864 0 0 1-.16.774 1.955 1.955 0 0 1-.45.63 2.088 2.088 0 0 1-.684.423A2.378 2.378 0 0 1 0-9.9a2.378 2.378 0 0 1-.864-.153 2.088 2.088 0 0 1-.684-.423 1.955 1.955 0 0 1-.45-.63 1.864 1.864 0 0 1-.162-.774 1.822 1.822 0 0 1 .16-.756 1.955 1.955 0 0 1 .45-.63 2.214 2.214 0 0 1 .686-.434A2.26 2.26 0 0 1 0-13.86a2.26 2.26 0 0 1 .864.162 2.214 2.214 0 0 1 .684.432 1.955 1.955 0 0 1 .45.63 1.822 1.822 0 0 1 .162.756z" class="cls-1" data-name="Path 1067" transform="translate(2.16 13.86)"/>
</svg>
