<svg xmlns="http://www.w3.org/2000/svg" width="24" height="24" viewBox="0 0 24 24">
    <defs>
        <style>
            .cls-1{fill:#fff;fill-rule:evenodd}
        </style>
    </defs>
    <path id="iconmonstr-instagram-6" d="M21.231 0H2.769A2.769 2.769 0 0 0 0 2.769v18.46A2.77 2.77 0 0 0 2.769 24h18.463A2.769 2.769 0 0 0 24 21.229V2.769A2.769 2.769 0 0 0 21.231 0zM12 7.385A4.616 4.616 0 1 1 7.385 12 4.615 4.615 0 0 1 12 7.385zm9 12.693a.923.923 0 0 1-.924.922H3.924A.923.923 0 0 1 3 20.078V10h1.9a7.559 7.559 0 0 0-.2.971A6.991 6.991 0 0 0 4.616 12a7.384 7.384 0 1 0 14.768 0 6.967 6.967 0 0 0-.081-1.028A7.559 7.559 0 0 0 19.1 10H21v10.078zM21 6.1a.924.924 0 0 1-.924.923H17.9a.923.923 0 0 1-.923-.923V3.923A.922.922 0 0 1 17.9 3h2.174a.923.923 0 0 1 .926.923z" class="cls-1"/>
</svg>
