<svg xmlns="http://www.w3.org/2000/svg" width="18.041" height="21.728" viewBox="0 0 18.041 21.728">
    <defs>
        <style>
            .cls-1{fill:#9a3ea2}
        </style>
    </defs>
    <g id="Group_594" data-name="Group 594" transform="translate(-948 -62)">
        <path id="Subtraction_1" d="M9.021 12.185a18.523 18.523 0 0 1-6.2-.941C.975 10.559 0 9.583 0 8.42A9.1 9.1 0 0 1 4.961.3 5.579 5.579 0 0 0 9.3 2.349 5.61 5.61 0 0 0 13.456.5a9.126 9.126 0 0 1 4.585 7.92c0 1.163-.975 2.14-2.819 2.824a18.523 18.523 0 0 1-6.201.941z" class="cls-1" data-name="Subtraction 1" transform="translate(948 71.543)"/>
        <circle id="Ellipse_59" cx="4.5" cy="4.5" r="4.5" class="cls-1" data-name="Ellipse 59" transform="translate(952.622 62)"/>
    </g>
</svg>
