<svg xmlns="http://www.w3.org/2000/svg" id="_2" width="200" height="50.774" data-name="2" viewBox="0 0 200 50.774">
    <defs>
        <style>
            .cls-1,.cls-2{fill:#9a3ea2}.cls-1{opacity:.47}.cls-3{fill:#383838}
        </style>
    </defs>
    <g id="Group_286" data-name="Group 286">
        <path id="Path_741" d="M49.154 43.278a4.2 4.2 0 0 1-4.2 4.2H29.335l-5.476 4.341V47.5h-1.768a4.2 4.2 0 0 1-4.183-4.222V20.451a4.2 4.2 0 0 1 4.2-4.2h9.751V13.22h-9.768a7.244 7.244 0 0 0-7.231 7.231v22.827a7.244 7.244 0 0 0 5.964 7.122v7.706l9.58-7.6h14.514a7.244 7.244 0 0 0 7.27-7.231z" class="cls-1" data-name="Path 741" transform="translate(-14.86 -7.335)"/>
        <path id="Path_742" d="M36.32 29.872a1.517 1.517 0 0 0 1.491-1.319l2.639-5.819 2.758 6.254 4.183 9.236a1.517 1.517 0 0 0 1.385.884h.119a1.517 1.517 0 0 0 1.319-.884L54 29.872h7.666a1.517 1.517 0 0 0 1.32-1.5V15.991a7.244 7.244 0 0 0-7.23-7.231h-22.7a7.244 7.244 0 0 0-7.231 7.231V21.4a1.517 1.517 0 0 0 3.035 0v-5.41a4.2 4.2 0 0 1 4.2-4.2h22.854a4.2 4.2 0 0 1 4.2 4.2v10.834h-7.036a1.517 1.517 0 0 0-1.491 1.319l-2.639 5.964-2.863-6.32-4.185-9.236v-.079l-.2-.158-.092-.119-.106-.119-.106-.092-.119-.092-.132-.079H39.83l-.119.066-.119.092-.106.092-.106.119-.132.132-.079.145v.079l-3.879 8.3h-7.916a1.517 1.517 0 0 0-1.517 1.517V38.91a7.244 7.244 0 0 0 7.2 7.112h14.518l9.619 7.653v-7.652a7.244 7.244 0 0 0 5.964-7.123v-3.829a1.517 1.517 0 0 0-3.035 0V38.9a4.2 4.2 0 0 1-4.2 4.2h-1.777v4.249L48.67 43H33.061a4.2 4.2 0 0 1-4.2-4.2v-8.968z" class="cls-2" data-name="Path 742" transform="translate(-11.355 -8.76)"/>
    </g>
    <g id="Group_285" data-name="Group 285" transform="translate(68.537 12.069)">
        <path id="Path_743" d="M70.127 7.09H53.28v2.427h7.028v19.395h2.765V9.517h7.053z" class="cls-3" data-name="Path 743" transform="translate(-53.28 -7.09)"/>
        <path id="Path_744" d="M89.294 20.27a8.043 8.043 0 0 0-7.922 8.453c0 5.024 3.43 8.453 8.188 8.453a8.731 8.731 0 0 0 6.388-2.415l-1.208-1.63a7.028 7.028 0 0 1-4.963 2.029 5.664 5.664 0 0 1-5.8-5.555h13.046v-.628c0-4.915-2.814-8.707-7.729-8.707zM84 27.7a5.362 5.362 0 0 1 5.253-5.338 5.217 5.217 0 0 1 5.289 5.362z" class="cls-3" data-name="Path 744" transform="translate(-65.395 -14.932)"/>
        <path id="Path_745" d="M98.937 28.522c-.628 4.758-1.57 6.5-3.067 6.5v2.065c3.1 0 4.831-2.258 5.555-8.26l.737-6.038h6.5v13.885h2.5V20.6H99.976z" class="cls-3" data-name="Path 745" transform="translate(-62.382 -14.864)"/>
        <path id="Path_746" d="M119.574 20.27a8.043 8.043 0 0 0-7.922 8.453c0 5.024 3.43 8.453 8.188 8.453a8.731 8.731 0 0 0 6.388-2.415l-1.208-1.63a7.029 7.029 0 0 1-4.963 2.029 5.664 5.664 0 0 1-5.8-5.555h13.018v-.628c.025-4.915-2.834-8.707-7.701-8.707zm-5.29 7.43a5.374 5.374 0 0 1 5.253-5.338 5.217 5.217 0 0 1 5.289 5.362z" class="cls-3" data-name="Path 746" transform="translate(-59.108 -14.932)"/>
        <path id="Path_747" d="M123.694 23.26l-6.413-16.17h-3.961v21.822h2.91V11.788l6.847 17.124h1.22l6.8-17.124v17.124h2.91V7.09h-4z" class="cls-3" data-name="Path 747" transform="translate(-40.814 -7.09)"/>
        <path id="Path_748" d="M156.2 20.27a8.043 8.043 0 0 0-7.922 8.453c0 5.024 3.43 8.453 8.188 8.453a8.743 8.743 0 0 0 6.388-2.415l-1.208-1.63a7.028 7.028 0 0 1-4.963 2.029 5.664 5.664 0 0 1-5.8-5.555h13.018v-.628c.032-4.915-2.83-8.707-7.701-8.707zm-5.286 7.43a5.362 5.362 0 0 1 5.265-5.338 5.217 5.217 0 0 1 5.289 5.362z" class="cls-3" data-name="Path 748" transform="translate(-51.502 -14.932)"/>
        <path id="Path_749" d="M178.069 34.488V20.6h-11.195l-1.027 7.922c-.628 4.758-1.57 5.833-3.067 6.038v6.159h2.5v-4.033h12.149v4.094h2.524v-6.292zm-2.5 0h-9.552c1.208-.93 1.932-2.633 2.331-5.664l.737-6.038h6.5z" class="cls-3" data-name="Path 749" transform="translate(-48.49 -14.864)"/>
    </g>
</svg>
