<svg xmlns="http://www.w3.org/2000/svg" id="Symbol_4_4" width="42" height="41.166" data-name="Symbol 4 – 4" viewBox="0 0 42 41.166">
    <defs>
        <style>
            .cls-1,.cls-2{fill:#b47eb9}.cls-1{opacity:.47}
        </style>
    </defs>
    <g id="Group_286" data-name="Group 286">
        <path id="Path_741" d="M42.664 37.59a3.4 3.4 0 0 1-3.4 3.4H26.6l-4.44 3.52v-3.5h-1.438a3.4 3.4 0 0 1-3.391-3.423V19.082a3.4 3.4 0 0 1 3.4-3.4h7.906V13.22h-7.915a5.873 5.873 0 0 0-5.862 5.862V37.59a5.873 5.873 0 0 0 4.84 5.777v6.248l7.767-6.162H39.23a5.873 5.873 0 0 0 5.895-5.862z" class="cls-1" data-name="Path 741" transform="translate(-14.86 -8.449)"/>
        <path id="Path_742" d="M34.335 25.877a1.23 1.23 0 0 0 1.209-1.07l2.14-4.718 2.236 5.071 3.391 7.489a1.23 1.23 0 0 0 1.123.717h.1a1.23 1.23 0 0 0 1.07-.717l3.07-6.772h6.215a1.23 1.23 0 0 0 1.07-1.22V14.622a5.873 5.873 0 0 0-5.866-5.862h-18.4a5.873 5.873 0 0 0-5.862 5.862v4.386a1.23 1.23 0 1 0 2.461 0v-4.386a3.4 3.4 0 0 1 3.4-3.4h18.529a3.4 3.4 0 0 1 3.4 3.4v8.783h-5.7a1.23 1.23 0 0 0-1.209 1.07l-2.14 4.835-2.321-5.124L38.86 16.7v-.064l-.16-.128-.075-.1-.086-.1-.086-.075-.1-.075-.103-.058h-1.07l-.1.053-.1.075-.08.072-.086.1-.107.107-.064.118v.064L33.5 23.416h-6.418a1.23 1.23 0 0 0-1.23 1.23V33.2a5.873 5.873 0 0 0 5.841 5.766H43.46l7.8 6.2v-6.2a5.873 5.873 0 0 0 4.835-5.777v-3.1a1.23 1.23 0 0 0-2.461 0v3.1a3.4 3.4 0 0 1-3.4 3.4h-1.446v3.445l-4.44-3.52H31.692a3.4 3.4 0 0 1-3.4-3.4v-7.269z" class="cls-2" data-name="Path 742" transform="translate(-14.094 -8.76)"/>
    </g>
</svg>
