<svg xmlns="http://www.w3.org/2000/svg" width="200" height="200" viewBox="0 0 200 200">
    <defs>
        <style>
            .cls-1{fill:none}.cls-2{fill:#eaeaea}
        </style>
    </defs>
    <g id="Group_755" data-name="Group 755" transform="translate(-191 -6469)">
        <path id="Rectangle_674" d="M0 0h200v200H0z" class="cls-1" data-name="Rectangle 674" transform="translate(191 6469)"/>
        <path id="Subtraction_11" d="M87.017 97.959H3a3 3 0 0 1-3-3V13.272a13.335 13.335 0 0 0 22.76 9.194 13.246 13.246 0 0 0 3.905-9.428 13.333 13.333 0 1 0 26.666 0 13.334 13.334 0 0 0 26.667 0 13.333 13.333 0 0 0 26.665.166 13.335 13.335 0 0 0 26.667.008v81.745a3 3 0 0 1-3 3h-16.206V40.313H87.017v57.645zM20.145 40.313v29.764h47.414V40.313zm113.187-29.764H0V3a3 3 0 0 1 3-3h127.332a3 3 0 0 1 3 3v7.549z" class="cls-2" data-name="Subtraction 11" transform="translate(224.335 6521.382)"/>
    </g>
</svg>
