<svg xmlns="http://www.w3.org/2000/svg" width="96" height="96" viewBox="0 0 96 96">
    <defs>
        <style>
            .cls-1{fill:#9a3ea2}.cls-2{fill:#3cc3b3}.cls-3{fill:none}.cls-4,.cls-5{stroke:none}.cls-5{fill:#fff}
        </style>
    </defs>
    <g id="Group_693" data-name="Group 693" transform="translate(-211 -2413)">
        <path id="Subtraction_8" d="M6.857 66.515A6.865 6.865 0 0 1 0 59.657V0h13.714v59.657a6.865 6.865 0 0 1-6.857 6.858zM2.057 1.33v57.71a4.8 4.8 0 0 0 9.6 0V1.33z" class="cls-1" data-name="Subtraction 8" transform="translate(268.6 2427.4)"/>
        <path id="Rectangle_610" d="M0 0h7.543a.686.686 0 0 1 .686.686.686.686 0 0 1-.686.686H0V0z" class="cls-1" data-name="Rectangle 610" transform="translate(268.6 2432.886)"/>
        <rect id="Rectangle_614" width="17.829" height="2.743" class="cls-1" data-name="Rectangle 614" rx="1" transform="translate(266.543 2426.029)"/>
        <path id="Rectangle_611" d="M0 0h7.543a.686.686 0 0 1 .686.686.686.686 0 0 1-.686.686H0V0z" class="cls-1" data-name="Rectangle 611" transform="translate(268.6 2438.371)"/>
        <path id="Rectangle_612" d="M0 0h7.543a.686.686 0 0 1 .686.686.686.686 0 0 1-.686.686H0V0z" class="cls-1" data-name="Rectangle 612" transform="translate(268.6 2443.857)"/>
        <path id="Rectangle_613" d="M0 0h7.543a.686.686 0 0 1 .686.686.686.686 0 0 1-.686.686H0V0z" class="cls-1" data-name="Rectangle 613" transform="translate(268.6 2450.029)"/>
        <g id="Union_3" class="cls-2" data-name="Union 3">
            <path d="M23.801 50.176H12.25a13.98 13.98 0 0 1-7.17-1.959 14.08 14.08 0 0 1-4.92-4.981 14.079 14.079 0 0 1-1.92-6.733 13.979 13.979 0 0 1 1.817-7.206L5.833 19.06a14.121 14.121 0 0 1 2.304-3.047V11.85A8.414 8.414 0 0 1 3.63 4.405C3.631-.229 7.402-4 12.037-4h11.36c4.635 0 8.406 3.77 8.406 8.405a8.408 8.408 0 0 1-3.888 7.092v4.517a14.122 14.122 0 0 1 2.303 3.047l5.776 10.236a13.98 13.98 0 0 1 1.818 7.207 14.08 14.08 0 0 1-1.921 6.733 14.08 14.08 0 0 1-4.92 4.98 13.98 13.98 0 0 1-7.17 1.96z" class="cls-4" transform="translate(236.628 2447.738)"/>
            <path d="M23.801 46.176c7.655 0 12.47-8.247 8.71-14.914l-5.777-10.235a9.985 9.985 0 0 0-2.82-3.188V8.782A4.407 4.407 0 0 0 23.397 0H12.037a4.406 4.406 0 1 0 0 8.812h.1v9.027a9.985 9.985 0 0 0-2.82 3.188L3.54 31.262C-.221 37.93 4.595 46.176 12.25 46.176H23.8m0 8H12.25c-6.47 0-12.282-3.336-15.545-8.923-3.262-5.588-3.312-12.287-.132-17.922L2.35 17.095a18.333 18.333 0 0 1 1.786-2.616v-.53A12.346 12.346 0 0 1-.369 4.406C-.369-2.434 5.197-8 12.037-8h11.36c6.84 0 12.406 5.565 12.406 12.406a12.39 12.39 0 0 1-3.888 9.02v1.053c.664.81 1.26 1.684 1.787 2.616l5.776 10.236c3.18 5.636 3.13 12.336-.133 17.923-3.263 5.587-9.073 8.922-15.544 8.922z" class="cls-5" transform="translate(236.628 2447.738)"/>
        </g>
        <path id="Rectangle_615" d="M0 0h96v96H0z" class="cls-3" data-name="Rectangle 615" transform="translate(211 2413)"/>
    </g>
</svg>
