<svg xmlns="http://www.w3.org/2000/svg" width="24" height="22.852" viewBox="0 0 24 22.852">
    <defs>
        <style>
            .cls-1{fill:#fff;fill-rule:evenodd}
        </style>
    </defs>
    <g id="social-facebook-messenger" transform="translate(-9.143 -9.543)">
        <g id="Group_53" data-name="Group 53" transform="translate(9.143 9.543)">
            <path id="Path_441" d="M33.064 18.937c-.079-.407-.141-.819-.233-1.225a5.922 5.922 0 0 0-.238-.747q-.161-.46-.362-.905a8.226 8.226 0 0 0-.46-.852 11.263 11.263 0 0 0-.687-1.01q-.427-.535-.9-1.029a9.22 9.22 0 0 0-1.544-1.307 11.674 11.674 0 0 0-1.155-.723q-.752-.4-1.54-.718a10.971 10.971 0 0 0-1.238-.4 17.673 17.673 0 0 0-1.254-.29 6.731 6.731 0 0 0-.7-.092c-.4-.037-.8-.086-1.207-.1a18.53 18.53 0 0 0-2.287.122c-.19.024-.378.065-.566.1-.322.068-.646.122-.967.208a15.267 15.267 0 0 0-2.4.894 10.789 10.789 0 0 0-1.81 1.089 11.365 11.365 0 0 0-1.944 1.8 10.694 10.694 0 0 0-1.043 1.44 8.255 8.255 0 0 0-.761 1.587c-.1.31-.213.615-.3.928a7.478 7.478 0 0 0-.158.759 9.188 9.188 0 0 0-.112.738c-.017.132.006.27 0 .405a4.308 4.308 0 0 0-.046.448c.02.438.049.876.093 1.313.033.312.095.622.158.929a5.563 5.563 0 0 0 .175.6c.093.284.178.575.3.848.158.366.33.727.517 1.077a9.6 9.6 0 0 0 1.005 1.49 11.185 11.185 0 0 0 2.1 1.971.23.23 0 0 1 .111.208V32.393a.275.275 0 0 0 .076-.014l.409-.215 1.125-.595c.345-.182.692-.359 1.039-.539.407-.215.813-.441 1.224-.661a.492.492 0 0 1 .374-.072 6.877 6.877 0 0 0 .694.17c.4.069.793.136 1.192.175.428.043.859.066 1.29.072a9.822 9.822 0 0 0 1.666-.1c.349-.052.7-.086 1.049-.154q.469-.09.928-.226c.422-.124.848-.244 1.257-.407.454-.178.894-.4 1.333-.606a9.938 9.938 0 0 0 1.57-.977 10.329 10.329 0 0 0 1.547-1.376c.319-.355.621-.725.908-1.1a7.445 7.445 0 0 0 .537-.83c.158-.273.293-.556.425-.84a7.267 7.267 0 0 0 .316-.741q.16-.475.28-.963a5.747 5.747 0 0 0 .168-.759q.09-.674.115-1.355a6.12 6.12 0 0 0-.078-1.355zm-10.72 4.852c-.244-.244-.483-.48-.718-.718-.356-.359-.708-.723-1.063-1.083l-1.225-1.25a.082.082 0 0 0-.121-.017q-.849.453-1.705.9c-.417.218-.842.431-1.264.646s-.853.45-1.281.672-.852.438-1.276.661c-.092.046-.182.1-.273.149l-.014-.019 6.475-6.551c.177.18.351.353.524.524l1.734 1.71c.273.27.546.542.812.813a.087.087 0 0 0 .126.019c.514-.279 1.034-.552 1.552-.826.5-.261 1-.517 1.494-.78.467-.244.93-.5 1.394-.747q.569-.3 1.144-.589l.095-.057.02.026-6.439 6.518z" class="cls-1" data-name="Path 441" transform="translate(-9.143 -9.543)"/>
        </g>
    </g>
</svg>
