<svg xmlns="http://www.w3.org/2000/svg" id="otz" width="120" height="29.46" viewBox="0 0 120 29.46">
    <defs>
        <style>
            .cls-1{fill:#b74746}
        </style>
    </defs>
    <path id="Path_2705" d="M0 14.73A14.73 14.73 0 1 0 14.73 0 14.71 14.71 0 0 0 0 14.73zm5.106 0a9.649 9.649 0 0 1 8.936-9.624v5.106a4.452 4.452 0 0 0-3.83 4.419 4.505 4.505 0 0 0 4.517 4.517 4.493 4.493 0 0 0 .687-8.936V5.106a9.635 9.635 0 1 1-10.31 9.624zm7.66-12.177a1.964 1.964 0 1 1 1.964 1.964 1.97 1.97 0 0 1-1.964-1.964z" class="cls-1" data-name="Path 2705"/>
    <path id="Path_2706" d="M39.856 18.134h-4.223a.982.982 0 0 1-1.08-1.08v-4.222a.942.942 0 0 1 1.08-1.08h4.223a.982.982 0 0 1 1.08 1.08v4.223a.982.982 0 0 1-1.08 1.079zm3.633-5.5c0-2.357-1.178-3.535-3.437-3.535h-4.615C33.08 9.1 32 10.278 32 12.635v4.419c0 2.357 1.178 3.535 3.437 3.535h4.615c2.259 0 3.437-1.178 3.437-3.535z" class="cls-1" data-name="Path 2706" transform="translate(-.576 -.164)"/>
    <path id="Path_2707" d="M56.489 9.1H45v2.553h4.517v9.034h2.553v-9.034h4.419z" class="cls-1" data-name="Path 2707" transform="translate(-.81 -.164)"/>
    <path id="Path_2708" d="M69.588 12.637c0-2.259-1.08-3.437-3.241-3.437H58v2.553h7.856c.786 0 1.178.295 1.178.982s-.393.982-1.178.982h-3.339v2.553h3.339c.786 0 1.178.295 1.178.982s-.393.982-1.178.982H58v2.553h7.856c2.455 0 3.732-.982 3.732-3.044a4.648 4.648 0 0 0-.687-2.651 5.5 5.5 0 0 0 .687-2.455z" class="cls-1" data-name="Path 2708" transform="translate(-1.044 -.166)"/>
    <path id="Path_2709" d="M78.956 18.134h-4.223a.982.982 0 0 1-1.08-1.08v-4.222a.942.942 0 0 1 1.08-1.08h4.223a.982.982 0 0 1 1.08 1.08v4.223a.982.982 0 0 1-1.08 1.079zm3.633-5.5c0-2.357-1.178-3.535-3.437-3.535h-4.615c-2.357 0-3.437 1.178-3.437 3.535v4.419c0 2.357 1.178 3.535 3.437 3.535h4.615c2.259 0 3.437-1.178 3.437-3.535z" class="cls-1" data-name="Path 2709" transform="translate(-1.28 -.164)"/>
    <path id="Path_2710" d="M93.136 17.152c0-.687-.393-.982-1.08-.982h-5.3v1.964h5.3a.957.957 0 0 0 1.08-.982zm0-4.517c0-.687-.393-.982-1.08-.982h-5.3v1.964h5.3c.687 0 1.08-.294 1.08-.982zm2.553 4.517c0 2.357-1.178 3.437-3.437 3.437H84.2V9.1h8.052c2.259 0 3.437 1.178 3.437 3.437A3.244 3.244 0 0 1 95 14.8a4.19 4.19 0 0 1 .689 2.352z" class="cls-1" data-name="Path 2710" transform="translate(-1.516 -.164)"/>
    <path id="Path_2711" d="M108.689 20.688h-2.553v-8.053l-6.383 8.052H97.2V9.1h2.553v8.052l6.383-8.052h2.553z" class="cls-1" data-name="Path 2711" transform="translate(-1.75 -.164)"/>
    <path id="Path_2712" d="M117.369 14.894l4.615-5.794h-2.946l-3.638 4.517h-2.651V9.1H110.2v11.588h2.553V16.17h2.647l3.633 4.517h2.946z" class="cls-1" data-name="Path 2712" transform="translate(-1.984 -.164)"/>
</svg>
