<svg xmlns="http://www.w3.org/2000/svg" width="386.048" height="418.033" viewBox="0 0 386.048 418.033">
    <defs>
        <style>
            .cls-1{fill:#f6f0f7}.cls-2{fill:#b47eb9}
        </style>
    </defs>
    <g id="Group_699" data-name="Group 699" transform="translate(-732.615 -7323.967)">
        <path id="Path_2632" d="M-8.772-22.833a7.248 7.248 0 0 1-.128-1.419v-1.419a20.012 20.012 0 0 1 2-9.288 28.508 28.508 0 0 1 4.966-6.9 48.306 48.306 0 0 1 6.386-5.483 63.618 63.618 0 0 0 6.385-5.224A27.981 27.981 0 0 0 15.8-58.7a15.336 15.336 0 0 0 2-8 14.034 14.034 0 0 0-1.161-5.289 16.584 16.584 0 0 0-3.548-5.289 17.926 17.926 0 0 0-6.192-4 24.1 24.1 0 0 0-9.095-1.548 26.523 26.523 0 0 0-7.676 1.032 31.123 31.123 0 0 0-6.192 2.58 33.282 33.282 0 0 0-5.031 3.419q-2.257 1.871-4.064 3.548l-6.579-5.934a33.116 33.116 0 0 1 14-10.256 52.837 52.837 0 0 1 19.673-3.411 29.174 29.174 0 0 1 11.739 2.193 25.523 25.523 0 0 1 8.321 5.612 22.629 22.629 0 0 1 4.9 7.611 22.733 22.733 0 0 1 1.613 8.191 22.79 22.79 0 0 1-2.128 10.384 30.038 30.038 0 0 1-5.353 7.482 52.969 52.969 0 0 1-6.9 5.934 68.237 68.237 0 0 0-6.9 5.676 28.821 28.821 0 0 0-5.357 6.773 18.265 18.265 0 0 0-2.128 9.159zm-2.58 16.9a7.408 7.408 0 0 1 2-5.483 7.235 7.235 0 0 1 5.353-2 7.633 7.633 0 0 1 5.547 2 7.278 7.278 0 0 1 2.064 5.482A7.326 7.326 0 0 1 1.548-.516 7.5 7.5 0 0 1-4 1.548 7.11 7.11 0 0 1-9.352-.516a7.457 7.457 0 0 1-2-5.418z" class="cls-1" data-name="Path 2632" transform="translate(977 7628)"/>
        <path id="Path_2639" d="M-7.5-44.936h-7.872v-9.922a26.813 26.813 0 0 1 7.216-2.706 38.6 38.6 0 0 1 8.2-.82q9.676 0 14.186 4.387t4.51 12.177a17.631 17.631 0 0 1-1.274 6.72 17.107 17.107 0 0 1-3.69 5.576 21.123 21.123 0 0 1-5.863 4.141 25.239 25.239 0 0 1-7.872 2.259v8.2h-5.248v-11.644a34.121 34.121 0 0 0 6.437-1.886 14.444 14.444 0 0 0 4.592-2.952 11.6 11.6 0 0 0 2.788-4.387 18.1 18.1 0 0 0 .943-6.191 17.109 17.109 0 0 0-.574-4.387 11.834 11.834 0 0 0-1.8-3.895 9.425 9.425 0 0 0-3.157-2.788A9.437 9.437 0 0 0-.615-54.12a17.255 17.255 0 0 0-4.469.451A6.9 6.9 0 0 0-7.5-52.562zm-1.561 40.18a5.016 5.016 0 0 1 1.722-4.018 6.815 6.815 0 0 1 4.592-1.476 7.143 7.143 0 0 1 4.674 1.476 4.915 4.915 0 0 1 1.8 4.018 4.828 4.828 0 0 1-1.8 3.936A7.143 7.143 0 0 1-2.747.656 6.815 6.815 0 0 1-7.339-.82a4.924 4.924 0 0 1-1.722-3.936z" class="cls-1" data-name="Path 2639" transform="translate(903 7632)"/>
        <path id="Path_2640" d="M24.552-59.4a22.148 22.148 0 0 1-2.845 11.273 20.418 20.418 0 0 1-7.615 7.669 20.343 20.343 0 0 1-10.3 2.737 12.4 12.4 0 0 1-1.9-.108L.325-22h-5.962L-7.1-47.966a23.5 23.5 0 0 0 6.016.7q7.1 0 10.6-3.848a13.442 13.442 0 0 0 3.5-9.376q0-6.233-3.848-9.62a13.546 13.546 0 0 0-9.276-3.384q-6.45 0-9.946 3.713t-3.5 10.7v2.114H-24.39a22.384 22.384 0 0 1-.108-3.089q0-8.238 3.6-13.387a20.115 20.115 0 0 1 9.214-7.371A30.6 30.6 0 0 1-.325-83.033q11.87 0 18.374 6.341T24.552-59.4zM-9.864 0v-14.417H4.444V0z" class="cls-1" data-name="Path 2640" transform="translate(942 7407)"/>
        <path id="Path_2633" d="M-12.972-57.408a2.636 2.636 0 0 1-1.472-2.576 7.264 7.264 0 0 1 .92-3.266 13.645 13.645 0 0 1 2.116-3.082A51.668 51.668 0 0 1-.46-75.716a22.369 22.369 0 0 1 11.96-3.4q5.428-.092 8.28 2.668a9.654 9.654 0 0 1 2.852 7.268 17.809 17.809 0 0 1-1.748 7.544 64.4 64.4 0 0 1-7.636 11.96L8.924-44.62l-2.76 2.852a15.676 15.676 0 0 0-2.07 4.462 21.419 21.419 0 0 0-1.15 4 41.262 41.262 0 0 0-.368 5.8v2.346a14.41 14.41 0 0 1-.368 3.22A5.2 5.2 0 0 1 .46-19.136a7.185 7.185 0 0 1-4.692 2.116A11.289 11.289 0 0 1-5.7-17.2a2.784 2.784 0 0 1-2.438-1.518 10.41 10.41 0 0 1-.506-3.726q.184-5.244.368-7.912a31.169 31.169 0 0 1 1.012-5.8 18.451 18.451 0 0 1 2.668-5.8A48.966 48.966 0 0 1 0-47.426q2.852-2.99 3.312-3.542a79.924 79.924 0 0 0 7.36-8.556q2.668-4.048 2.668-6.624a4.406 4.406 0 0 0-2.392-3.864 2.637 2.637 0 0 0-1.2-.276 10.351 10.351 0 0 0-4.784 1.7A40.864 40.864 0 0 0-.69-64.63a25.874 25.874 0 0 0-3.91 3.818q-2.944 3.956-5.98 3.956a5.666 5.666 0 0 1-2.392-.552zM1.288-6.164a2.938 2.938 0 0 1 .736 2.024A4.339 4.339 0 0 1 .276-.874 8.642 8.642 0 0 1-3.5 1.1a7.916 7.916 0 0 1-1.472.184 6.519 6.519 0 0 1-3.5-.966 3.028 3.028 0 0 1-1.564-2.714A4.256 4.256 0 0 1-9.66-4.14a5.549 5.549 0 0 1 2.53-2.944A7.824 7.824 0 0 1-3.22-8.1a6.542 6.542 0 0 1 2.576.51 4.828 4.828 0 0 1 1.932 1.426z" class="cls-2" data-name="Path 2633" transform="translate(1048 7574)"/>
        <path id="Path_2646" d="M-6.68 0v-13.36H6.68V0zm0-20v-6.64q0-8.32 8.64-13.52l1.12-.64a6.566 6.566 0 0 0 3.6-5.84 6.52 6.52 0 0 0-1.96-4.72 6.416 6.416 0 0 0-4.76-2h-6.64q-6.16 0-6.64 6.72h-6.72Q-18.44-60-6.68-60H6.68a12.776 12.776 0 0 1 9.36 3.92 12.868 12.868 0 0 1 3.92 9.44q0 8.64-7.6 12l-1.04.48q-3.6 1.6-4.12 3.12a14.3 14.3 0 0 0-.52 4.4V-20z" class="cls-2" data-name="Path 2646" transform="translate(785 7462)"/>
        <path id="Path_2641" d="M-9.864 0v-10.677H.813V0zm0-21.409v-2.927q0-10.352 7.967-19.458l3.415-3.956q8.509-9.756 8.509-15.989a9.065 9.065 0 0 0-3.74-7.642Q2.547-74.2-3.794-74.2a44.66 44.66 0 0 0-17.615 4.011v-9.051a64.923 64.923 0 0 1 18.753-3.034q11.057 0 17.561 4.959a15.983 15.983 0 0 1 6.5 13.414 16.962 16.962 0 0 1-1.87 8.211q-1.87 3.442-7.181 8.482L9-44.064q-5.041 4.77-6.612 7.994a20.08 20.08 0 0 0-1.572 8.7v5.962z" class="cls-1" data-name="Path 2641" transform="translate(918 7742)"/>
        <path id="Path_2634" d="M16.994-46.922a16.257 16.257 0 0 1-1.053 6.016 14 14 0 0 1-3.352 4.9 31.51 31.51 0 0 1-4.941 3.932Q5.006-30.379.881-28.23L.107-17.617l-3.867.9-1.074-14.607 2.492-1.076q7.434-3.652 10.313-6.768a10.6 10.6 0 0 0 2.879-7.455A8.88 8.88 0 0 0 7.734-53.8 12.492 12.492 0 0 0-.58-56.418q-8.293 0-16.371 6.445l-.816-5.887A28.389 28.389 0 0 1-.322-61.875q7.691 0 12.5 4.061a13.523 13.523 0 0 1 4.816 10.892zM1.611 0h-6.875v-8.637h6.875z" class="cls-1" data-name="Path 2634" transform="translate(1029 7680)"/>
        <path id="Path_2638" d="M3.525-37.5c0-11.55 4.2-14.85 16.65-23.55 11.55-8.1 17.7-15 17.7-27.45 0-18.3-14.25-29.85-36.45-29.85-13.05 0-22.05 3.3-28.5 8.7a36.441 36.441 0 0 0-11.25 17.1 8.32 8.32 0 0 0-.45 2.55c0 3.3 2.7 5.1 5.55 5.85a16.528 16.528 0 0 0 2.7.3c2.7 0 5.1-1.35 6.3-4.95 3.45-10.2 11.1-17.25 24.9-17.25 14.25 0 22.8 7.05 22.8 18.15 0 7.65-3.3 11.55-14.4 19.35-8.85 6-10.5 7.5-13.5 11.4-4.05 5.1-5.55 10.05-5.55 19.5v4.2c0 3.9 3 5.85 6.9 5.85 3.75 0 6.6-1.95 6.6-5.85zm-6.9 18.75c-5.85 0-10.35 4.05-10.35 10.35s4.5 10.35 10.35 10.35A10 10 0 0 0 6.975-8.4a10 10 0 0 0-10.35-10.35z" class="cls-2" data-name="Path 2638" transform="translate(914 7552)"/>
        <path id="Path_2647" d="M-17.688-60.057a3 3 0 0 1-2.7-.492 2.886 2.886 0 0 1-1.229-2.458 5.162 5.162 0 0 1 1.106-3.236A4.587 4.587 0 0 1-17.606-68a80.165 80.165 0 0 1 15.239-1.56q9.667 0 14.87 3.81a11.939 11.939 0 0 1 5.2 10.118 16.434 16.434 0 0 1-.737 5.12 10.844 10.844 0 0 1-2.417 4.055 33.335 33.335 0 0 1-2.908 2.826q-1.229 1.024-3.6 2.663-2.622 1.8-3.891 2.826a19.869 19.869 0 0 0-2.826 2.949 11.947 11.947 0 0 0-2.217 4.138 7.174 7.174 0 0 1-1.966 3.2 4.528 4.528 0 0 1-3.2 1.311A4.152 4.152 0 0 1-9.208-27.9a3.472 3.472 0 0 1-.942-3.154 16.282 16.282 0 0 1 1.556-4.466 14.9 14.9 0 0 1 2.785-3.687q1.72-1.679 2.908-2.622t3.4-2.5q2.7-1.884 4.014-2.99a12.745 12.745 0 0 0 2.54-3.113 8.237 8.237 0 0 0 1.229-4.383q0-7.209-11.879-7.209a56.667 56.667 0 0 0-14.091 1.967zM-6.3-19.585h.492a4.484 4.484 0 0 1 3.277 1.393 4.484 4.484 0 0 1 1.393 3.277v1.315a4.484 4.484 0 0 1-1.393 3.277 4.484 4.484 0 0 1-3.277 1.388H-6.3a4.484 4.484 0 0 1-3.277-1.393A4.484 4.484 0 0 1-10.97-13.6v-1.311a4.484 4.484 0 0 1 1.393-3.277A4.484 4.484 0 0 1-6.3-19.585z" class="cls-1" data-name="Path 2647" transform="translate(786.796 7638)"/>
        <path id="Path_2645" d="M-7.992-22.533l-2.664-13.32.333-1.554 13.209-8.436q6.327-4.329 6.327-9.546 0-6.549-5.994-10.046t-16.539-4.051l-.222-1.221 3.663-5.883 1.554-.444A34.374 34.374 0 0 1 4.163-74.37a23 23 0 0 1 9.046 6.549 14.109 14.109 0 0 1 3.33 9.1 16.84 16.84 0 0 1-1.887 8.214 19.694 19.694 0 0 1-4.606 5.717 75.063 75.063 0 0 1-7.382 5.272q-3.108 2-4.551 3.108l-.333 1L.111-24.864l-.333.888-6.771 1.887zm3.885 23.865A5.806 5.806 0 0 1-8.714-.5 6.568 6.568 0 0 1-10.323-5a6.848 6.848 0 0 1 1.887-4.879 6.549 6.549 0 0 1 4.995-2 5.981 5.981 0 0 1 4.662 1.832 6.438 6.438 0 0 1 1.665 4.5A6.742 6.742 0 0 1 .944-.666a6.73 6.73 0 0 1-5.051 1.998z" class="cls-2" data-name="Path 2645" transform="translate(837 7697)"/>
        <path id="Path_2631" d="M-2.442-23.434q-.853 0-1.042-1.137a166.67 166.67 0 0 1 1.8-25.863q.474-2.937 1.516-6.916 1.232-5.116 1.8-8.716a43.274 43.274 0 0 0 .568-6.726 27.147 27.147 0 0 0-1.137-8.337Q.211-83.5-1.21-83.5h-1.042q-3.316 0-3.316 5.874a41.668 41.668 0 0 0 .668 5.782 3.974 3.974 0 0 1-1.611.379q-.663 0-.758-.379a30.362 30.362 0 0 1-.663-5.874A12.1 12.1 0 0 1-6.8-83.023a4.559 4.559 0 0 1 1.706-1.847 4.9 4.9 0 0 1 2.653-.711q3.884 0 5.116 2.084a17.918 17.918 0 0 1 1.468 4.879 33.333 33.333 0 0 1 .521 5.732 68.152 68.152 0 0 1-3.032 18.852A81.691 81.691 0 0 0-.5-42.95a104.948 104.948 0 0 0-.9 13.926l.095 5.305q0-.095-.047-.095H-1.4a2.98 2.98 0 0 1-1.042.38zm0 11.274a1.883 1.883 0 0 1-1.468-.711 2.335 2.335 0 0 1-.616-1.563 2.514 2.514 0 0 1 .758-1.753 2.3 2.3 0 0 1 1.705-.805 2.069 2.069 0 0 1 1.563.806 2.5 2.5 0 0 1 .711 1.658q0 2.368-2.653 2.368z" class="cls-2" data-name="Path 2631" transform="translate(1114 7574)"/>
        <path id="Path_2648" d="M-.438-35.516L-8.2-28.5a11.565 11.565 0 0 1-.7-4.09q0-8.088 8.32-15.2l2.65-2.185 1.023-.93Q10.9-57.688 10.9-63.963q0-9.529-10.133-9.529-4.09 0-9.668 2.975a2.847 2.847 0 0 1-.465-1.069q0-1.813 5.276-3.649a31.223 31.223 0 0 1 10.3-1.836q13.619 0 13.619 10.412 0 7.251-10.412 13.991a41.959 41.959 0 0 0-4 2.789L4.256-48.81Q-.857-44.162-.857-38.4a11.741 11.741 0 0 0 .419 2.884zM-6.946-9.16a15.574 15.574 0 0 0-5.438-6.6l6.879-6.554A19.972 19.972 0 0 1-.16-15.761z" class="cls-2" data-name="Path 2648" transform="translate(745 7571)"/>
        <path id="Path_2635" d="M7.087-20.439H-9.8v-1.688a20.861 20.861 0 0 1 .978-7 15.5 15.5 0 0 1 2.91-4.91 89.562 89.562 0 0 1 8.687-7.82q3.6-2.933 3.6-5.376a4.956 4.956 0 0 0-1.444-3.8 6.2 6.2 0 0 0-4.376-1.354A7.037 7.037 0 0 0-4.666-50.3q-2.066 2.088-2.644 7.287l-17.24-2.133q.889-9.509 6.909-15.307T.822-66.25q9.687 0 15.641 4.043 8.087 5.465 8.087 14.574a14.061 14.061 0 0 1-2.088 7.287q-2.088 3.51-8.531 8.576-4.488 3.555-5.665 5.71a11.688 11.688 0 0 0-1.179 5.621zm-17.462 4.488H7.709V0h-18.084z" class="cls-1" data-name="Path 2635" transform="translate(1076 7467)"/>
        <path id="Path_2643" d="M-6.72-22.656a26.513 26.513 0 0 1 1.488-9.216 30.725 30.725 0 0 1 3.7-7.152 38.8 38.8 0 0 1 4.752-5.568q2.54-2.448 4.748-4.416a49.444 49.444 0 0 0 3.648-3.552 4.709 4.709 0 0 0 1.44-3.12 3.021 3.021 0 0 0-.768-1.584 2.824 2.824 0 0 0-2.4-1.008 9.578 9.578 0 0 0-4.464 1.488A53.567 53.567 0 0 0 .1-53.328a71.659 71.659 0 0 0-5.568 4.56l-5.092-11.808a38.145 38.145 0 0 1 11.04-6.96 32.357 32.357 0 0 1 12.48-2.544 26.064 26.064 0 0 1 5.808.624 13.078 13.078 0 0 1 4.8 2.112A11.022 11.022 0 0 1 26.88-63.5a12.052 12.052 0 0 1 1.248 5.712 18.954 18.954 0 0 1-1.536 8.016 23.054 23.054 0 0 1-3.792 5.804 35.177 35.177 0 0 1-5.088 4.608q-2.832 2.112-5.424 4.32a34.046 34.046 0 0 0-4.7 4.9 16.116 16.116 0 0 0-2.976 6.336l-5.664.576zM9.12-8.736A9.5 9.5 0 0 1 8.256-4.8a10.723 10.723 0 0 1-2.592 3.5 13.062 13.062 0 0 1-4.272 2.548 16.08 16.08 0 0 1-5.712.96q-3.84 0-5.664-2.352a8.892 8.892 0 0 1-1.824-5.616 10.889 10.889 0 0 1 .672-3.7 10.146 10.146 0 0 1 2.064-3.408 10.806 10.806 0 0 1 3.408-2.5 10.594 10.594 0 0 1 4.608-.96q5.28 0 7.728 2.3A7.069 7.069 0 0 1 9.12-8.736z" class="cls-1" data-name="Path 2643" transform="translate(850 7430)"/>
        <path id="Path_2630" d="M-1.626-59.077q0 .488.7.867t1.3.7q2.331.921 2.331 2.222 0 .759-.3.786A2.76 2.76 0 0 1 1.3-54.85a5.4 5.4 0 0 0-1.138-.434 18.536 18.536 0 0 0-4.281-.516 8.263 8.263 0 0 1-3.144-.434q-.813-.406-.813-2.249a13.16 13.16 0 0 1 1.382-4.905A14.753 14.753 0 0 1-3.74-68.02a14.832 14.832 0 0 1 4.309-2.439 46.051 46.051 0 0 1 6.938-2.222 29.572 29.572 0 0 1 6.856-.921 10.493 10.493 0 0 1 7.723 2.818q2.845 2.818 2.845 8.184a22.34 22.34 0 0 1-1.084 6.314 45.449 45.449 0 0 1-3.147 7.615 69.8 69.8 0 0 1-4.878 8.049 70.031 70.031 0 0 1-6.558 7.994 47.784 47.784 0 0 0-4.851 5.5 7.619 7.619 0 0 0-1.703 4.364 3.425 3.425 0 0 0 .081.569q.081.406.135.813t.081.65a7.224 7.224 0 0 1 .028.732q0 2.331-1.68 2.331-1.463 0-3.008-2.385A9.656 9.656 0 0 1-3.2-25.419q0-4.119 4.471-9.837t14.284-14.228a39.865 39.865 0 0 0 4.417-4.255 5.727 5.727 0 0 0 1.274-3.767 4.855 4.855 0 0 0-1.87-4.092q-1.87-1.436-5.664-1.436a39.376 39.376 0 0 0-6.5.65 35.055 35.055 0 0 0-6.314 1.6q-2.524.948-2.524 1.707zM-6.721-.325q-.976 0-2.927-1.653A5.322 5.322 0 0 1-11.6-6.233a12.655 12.655 0 0 1 1.03-4.553 21.6 21.6 0 0 1 2.412-4.553q1.382-1.951 2.3-1.951a3.2 3.2 0 0 1 2.06 1.084 8.871 8.871 0 0 1 1.87 2.6 6.729 6.729 0 0 1 .732 2.927 12.891 12.891 0 0 1-.921 3.984 19.483 19.483 0 0 1-2.219 4.473Q-5.637-.325-6.721-.325z" class="cls-1" data-name="Path 2630" transform="translate(1082 7672)"/>
        <path id="Path_2642" d="M-7.252-12.936a16.266 16.266 0 0 1 4.361-4.7 44.066 44.066 0 0 1 5.439-3.332q2.842-1.47 5.733-2.891a26.206 26.206 0 0 0 5.243-3.381 16.7 16.7 0 0 0 4.9-6.321 19.834 19.834 0 0 0 1.47-7.791 10.514 10.514 0 0 0-2.548-7.448 9.28 9.28 0 0 0-7.154-2.744A13.7 13.7 0 0 0 5-50.47a16.678 16.678 0 0 0-4.8 2.989 16.4 16.4 0 0 0-3.528 4.41A11.118 11.118 0 0 0-4.7-37.632a17.285 17.285 0 0 0 .245 2.842 7.72 7.72 0 0 0 .931 2.646 5.922 5.922 0 0 0 1.862 1.96 5.378 5.378 0 0 0 3.038.784 9.818 9.818 0 0 0 4.165-.98 10.184 10.184 0 0 0 3.675-2.94l.686.49a11.075 11.075 0 0 1-3.724 3.283 10.039 10.039 0 0 1-5 1.323 8.639 8.639 0 0 1-6.468-2.4 8.911 8.911 0 0 1-2.352-6.517 11.323 11.323 0 0 1 1.762-6.077 18.188 18.188 0 0 1 4.557-4.949A23.448 23.448 0 0 1 4.851-51.5a19.6 19.6 0 0 1 6.713-1.225 15.661 15.661 0 0 1 9.751 2.94q3.871 2.94 3.871 9.114a11.6 11.6 0 0 1-1.274 5.341 18.405 18.405 0 0 1-3.43 4.655 30.291 30.291 0 0 1-4.851 3.92 49.009 49.009 0 0 1-5.537 3.136q-2.058.98-4.557 2.107a52.254 52.254 0 0 0-4.851 2.5 29.912 29.912 0 0 0-4.263 2.989 10.912 10.912 0 0 0-2.793 3.381zm-4.018 5.684a3.484 3.484 0 0 1 2.548 1.078 3.484 3.484 0 0 1 1.078 2.548 3.484 3.484 0 0 1-1.078 2.548A3.484 3.484 0 0 1-11.27 0a3.484 3.484 0 0 1-2.548-1.078A3.484 3.484 0 0 1-14.9-3.626a3.484 3.484 0 0 1 1.078-2.548 3.484 3.484 0 0 1 2.552-1.078z" class="cls-2" data-name="Path 2642" transform="rotate(-24 17949.359 1267.049)"/>
        <path id="Path_2636" d="M-10.25-15.375V-20.5H0v-5.125h5.125v-5.125H-10.25v5.125H-20.5v-10.25h5.125V-41H10.25v5.125h5.125v10.25H10.25v5.125H5.125v5.125zm0 10.25v-5.125H5.125v5.125z" class="cls-2" data-name="Path 2636" transform="translate(993 7721)"/>
        <path id="Path_2644" d="M-16.539-21.867a23.554 23.554 0 0 1 1.554-8.991 42.135 42.135 0 0 1 3.441-6.715q1.887-2.942 3.441-5.273a8.355 8.355 0 0 0 1.554-4.662 5.82 5.82 0 0 0-.888-3.386 6.119 6.119 0 0 0-2.331-2 10.091 10.091 0 0 0-3.385-.944 35.687 35.687 0 0 0-4.051-.222h-2.331V-74.7q2-.333 3.5-.555t2.72-.333q1.221-.111 2.386-.167t2.719-.056A37.937 37.937 0 0 1 3.219-74.2a25.418 25.418 0 0 1 8.713 4.6 20.914 20.914 0 0 1 5.606 7.215 21.5 21.5 0 0 1 2 9.324 19.688 19.688 0 0 1-1.943 8.825 80.2 80.2 0 0 1-4.273 7.6q-2.331 3.663-4.273 7.215A15.5 15.5 0 0 0 7.1-21.867zm14.763-6.993a10.11 10.11 0 0 1 1.443-4.662q1.443-2.664 3.163-5.717t3.164-6.271a15.391 15.391 0 0 0 1.443-6.327 12.847 12.847 0 0 0-3.774-9.657Q-.111-65.157-8.1-65.157h-2.886v2.664H-8.1a19.2 19.2 0 0 1 4.884.611A12.3 12.3 0 0 1 .888-60a9.2 9.2 0 0 1 2.83 3.33 10.438 10.438 0 0 1 1.054 4.828 15.251 15.251 0 0 1-1.442 6.387Q1.887-42.291.167-39.294T-3-33.633a10.248 10.248 0 0 0-1.44 4.773zm-14.763 10.323H7.215V0h-23.754zM.555-7.992v-2.553H-9.879v2.553z" class="cls-1" data-name="Path 2644" transform="translate(837 7555)"/>
        <path id="Path_2637" d="M6.48-48.6a18.612 18.612 0 0 1-1.687 8.37 8.922 8.922 0 0 1-5.738 4.59A6.188 6.188 0 0 0-5-32.4a11.608 11.608 0 0 0-1.21 5.265v7.56h-4.185v-6.75a17.765 17.765 0 0 1 1.822-8.5A9.415 9.415 0 0 1-2.7-39.42a6.687 6.687 0 0 0 3.915-3.308 11.2 11.2 0 0 0 1.215-5.2v-32.8A10.837 10.837 0 0 0 .608-86.94q-1.822-2.7-6.142-2.7h-5.536q-4.32 0-6.142 2.7a10.837 10.837 0 0 0-1.823 6.21v5.265h-4.05v-4.455q0-6.48 2.835-10.125t9.72-3.645h4.59q6.885 0 9.653 3.645T6.48-79.92zM-12.015-7.425h7.425V0h-7.425z" class="cls-1" data-name="Path 2637" transform="translate(999 7515)"/>
    </g>
</svg>
