<svg xmlns="http://www.w3.org/2000/svg" width="104" height="164.5" viewBox="0 0 104 164.5">
    <defs>
        <style>
            .cls-1{fill:#f6f0f7;stroke:#fff;stroke-width:8px}.cls-2{fill:#fff}.cls-3{fill:#b47eb9}.cls-4{stroke:none}.cls-5{fill:none}
        </style>
    </defs>
    <g id="Group_712" data-name="Group 712" transform="translate(-335 -2906.5)">
        <g id="Rectangle_623" class="cls-1" data-name="Rectangle 623" transform="translate(343 2928)">
            <rect width="88" height="135" class="cls-4" rx="8"/>
            <rect width="96" height="143" x="-4" y="-4" class="cls-5" rx="12"/>
        </g>
        <rect id="Rectangle_624" width="23" height="28" class="cls-2" data-name="Rectangle 624" rx="10" transform="translate(376 3042)"/>
        <rect id="Rectangle_626" width="43" height="12" class="cls-2" data-name="Rectangle 626" rx="6" transform="translate(366 2974)"/>
        <rect id="Rectangle_651" width="12" height="12" class="cls-2" data-name="Rectangle 651" rx="6" transform="translate(350 2974)"/>
        <rect id="Rectangle_655" width="12" height="12" class="cls-2" data-name="Rectangle 655" rx="6" transform="translate(413 2974)"/>
        <rect id="Rectangle_627" width="43" height="12" class="cls-2" data-name="Rectangle 627" rx="6" transform="translate(366 2996)"/>
        <rect id="Rectangle_652" width="12" height="12" class="cls-2" data-name="Rectangle 652" rx="6" transform="translate(350 2996)"/>
        <rect id="Rectangle_656" width="12" height="12" class="cls-2" data-name="Rectangle 656" rx="6" transform="translate(413 2996)"/>
        <rect id="Rectangle_649" width="43" height="12" class="cls-2" data-name="Rectangle 649" rx="6" transform="translate(366 2952)"/>
        <rect id="Rectangle_658" width="43" height="12" class="cls-3" data-name="Rectangle 658" rx="6" transform="translate(366 2922)"/>
        <rect id="Rectangle_659" width="43" height="12" class="cls-3" data-name="Rectangle 659" rx="6" transform="rotate(90 -1256.5 1650)"/>
        <rect id="Rectangle_650" width="12" height="12" class="cls-2" data-name="Rectangle 650" rx="6" transform="translate(350 2952)"/>
        <rect id="Rectangle_654" width="12" height="12" class="cls-2" data-name="Rectangle 654" rx="6" transform="translate(413 2952)"/>
        <rect id="Rectangle_629" width="43" height="12" class="cls-2" data-name="Rectangle 629" rx="6" transform="translate(366 3018)"/>
        <rect id="Rectangle_653" width="12" height="12" class="cls-2" data-name="Rectangle 653" rx="6" transform="translate(350 3018)"/>
        <rect id="Rectangle_657" width="12" height="12" class="cls-2" data-name="Rectangle 657" rx="6" transform="translate(413 3018)"/>
    </g>
</svg>
