<svg xmlns="http://www.w3.org/2000/svg" width="104" height="151" viewBox="0 0 104 151">
    <defs>
        <style>
            .cls-1{fill:#f6f0f7;stroke-width:8px}.cls-1,.cls-4,.cls-5{stroke:#fff}.cls-2,.cls-4,.cls-5{fill:#fff}.cls-3{fill:#b47eb9}.cls-4{stroke-width:2px}.cls-6{stroke:none}.cls-7{fill:none}
        </style>
    </defs>
    <g id="Group_705" data-name="Group 705" transform="translate(-335 -3211)">
        <g id="Group_704" data-name="Group 704" transform="translate(0 291)">
            <g id="Rectangle_623" class="cls-1" data-name="Rectangle 623" transform="translate(343 2928)">
                <rect width="88" height="135" class="cls-6" rx="8"/>
                <rect width="96" height="143" x="-4" y="-4" class="cls-7" rx="12"/>
            </g>
            <rect id="Rectangle_624" width="64" height="18" class="cls-2" data-name="Rectangle 624" rx="9" transform="translate(355 2943)"/>
            <rect id="Rectangle_625" width="18" height="18" class="cls-3" data-name="Rectangle 625" rx="9" transform="translate(353 2972)"/>
            <rect id="Rectangle_628" width="12" height="12" class="cls-3" data-name="Rectangle 628" rx="6" transform="translate(356 2996)"/>
            <rect id="Rectangle_630" width="12" height="12" class="cls-3" data-name="Rectangle 630" rx="6" transform="translate(356 3016)"/>
            <rect id="Rectangle_626" width="43" height="12" class="cls-2" data-name="Rectangle 626" rx="6" transform="translate(376 2976)"/>
            <rect id="Rectangle_627" width="43" height="12" class="cls-2" data-name="Rectangle 627" rx="6" transform="translate(376 2996)"/>
            <rect id="Rectangle_629" width="43" height="12" class="cls-2" data-name="Rectangle 629" rx="6" transform="translate(376 3016)"/>
        </g>
        <g id="Rounded" transform="translate(356.997 3267.229)">
            <path id="Path_2652" d="M6.986 12.259l-2.119-2.135a.6.6 0 0 0-.861 0 .616.616 0 0 0 0 .867l2.552 2.571a.6.6 0 0 0 .861 0l6.46-6.508a.616.616 0 0 0 0-.867.6.6 0 0 0-.861 0z" class="cls-4" data-name="Path 2652" transform="translate(-3.828 -5.371)"/>
        </g>
        <path id="Path_2654" d="M12.169 5.566a.522.522 0 0 0-.739 0L8.865 8.125 6.3 5.561a.523.523 0 1 0-.739.739l2.564 2.565-2.564 2.564a.523.523 0 1 0 .739.739L8.865 9.6l2.565 2.565a.523.523 0 1 0 .739-.739L9.6 8.865 12.169 6.3a.526.526 0 0 0 0-.734z" class="cls-5" data-name="Path 2654" transform="translate(352.937 3284.224)"/>
        <path id="Path_2654-2" d="M12.169 5.566a.522.522 0 0 0-.739 0L8.865 8.125 6.3 5.561a.523.523 0 1 0-.739.739l2.564 2.565-2.564 2.564a.523.523 0 1 0 .739.739L8.865 9.6l2.565 2.565a.523.523 0 1 0 .739-.739L9.6 8.865 12.169 6.3a.526.526 0 0 0 0-.734z" class="cls-5" data-name="Path 2654" transform="translate(352.937 3304.056)"/>
    </g>
</svg>
