<svg xmlns="http://www.w3.org/2000/svg" viewBox="0 0 32.586 18.985">
    <defs>
        <style>
            .cls-1{fill:#505050}
        </style>
    </defs>
    <path id="Union_23" d="M650.192-6982.894l-8.485-8.485a1 1 0 0 1-.292-.715 1 1 0 0 1 .292-.714l8.485-8.486a1 1 0 0 1 1.414 0 1 1 0 0 1 0 1.415l-6.779 6.779H673a1 1 0 0 1 1 1 1 1 0 0 1-1 1h-28.185l6.792 6.792a1 1 0 0 1 0 1.415 1 1 0 0 1-.707.292 1 1 0 0 1-.708-.293z" class="cls-1" data-name="Union 23" transform="translate(-641.414 7001.586)"/>
</svg>
