<svg xmlns="http://www.w3.org/2000/svg" width="200" height="200" viewBox="0 0 200 200">
    <defs>
        <style>
            .cls-1{fill:none}.cls-2{fill:#eaeaea}
        </style>
    </defs>
    <g id="Group_761" data-name="Group 761" transform="translate(-647 -6467)">
        <path id="Rectangle_674" d="M0 0h200v200H0z" class="cls-1" data-name="Rectangle 674" transform="translate(647 6467)"/>
        <g id="Group_730" data-name="Group 730" transform="translate(699.381 6496.274)">
            <path id="Path_2663" d="M30.484 332.027c-5.076-16.9 3.877-36.709 31.927-39.985a102.873 102.873 0 0 0-18.683-.117c-5.893.42-11.762 1.2-18.594 1.919 5-7.824 12.418-11.182 19.815-13.636 13.132-4.357 23.354 1.863 32.52 11.23 1.964-5.172 6.168-6.322 10.943-6.524 10.314-.436 20.48.219 30.138 4.283 7.7 3.239 13.735 8.294 17.086 16.248-7.31-6.682-16.536-7.457-25.636-8.341a79.745 79.745 0 0 0-17.978.278c.767.286 1.525.6 2.3.854 9.253 3.05 13.073 9.2 13.538 18.755.621 12.771-4.164 23.955-11.388 34.228-.553.787-1.058 1.609-1.917 2.921a122.548 122.548 0 0 0-2.147-20.487 111.688 111.688 0 0 0-8.108-25.136 30.182 30.182 0 0 0-4.019-5.784c-2.611-3.368-5.592-3.418-9.175-2.117-7.11 2.582-13.075 7-18.911 11.615a239.4 239.4 0 0 0-21.711 19.796z" class="cls-2" data-name="Path 2663" transform="translate(-25.134 -278.789)"/>
            <path id="Path_2664" d="M120.848 431.975c-8.5 0-16.473-.041-24.444.032-1.78.016-2.076-.978-2.607-1.928a94.064 94.064 0 0 1-10.034-29.039 151.618 151.618 0 0 1-2.509-31.317 257.085 257.085 0 0 1 5.1-46.186c.419-2.039 5.612-4.8 7.964-4.245 2.724.637 5.066 4.435 4.09 6.727-3.687 8.656-4.735 17.644-4.321 26.716.838 18.346 6.5 35.871 13.8 53.078a240.756 240.756 0 0 0 11.474 23.328c.439.791.839 1.599 1.487 2.834z" class="cls-2" data-name="Path 2664" transform="translate(-44.912 -293.048)"/>
        </g>
    </g>
</svg>
