<svg xmlns="http://www.w3.org/2000/svg" width="121" height="164.398" viewBox="0 0 121 164.398">
    <defs>
        <style>
            .cls-1{fill:#f6f0f7}.cls-2,.cls-5{fill:#fff}.cls-3{fill:#b47eb9}.cls-4,.cls-5{stroke:none}
        </style>
    </defs>
    <g id="Group_702" data-name="Group 702" transform="translate(-834 -2978)">
        <g id="Path_2650" class="cls-1" data-name="Path 2650">
            <path d="M50.5 146.542l-3.857-4.674c-.128-.155-12.925-15.706-25.54-34.439-7.456-11.07-13.41-21.1-17.698-29.807C.81 72.35-1.208 67.488-2.592 63.167-4.19 58.177-5 53.717-5 49.913c0-7.418 1.47-14.617 4.372-21.396a54.749 54.749 0 0 1 5.125-9.332 55.415 55.415 0 0 1 6.78-8.122 55.752 55.752 0 0 1 8.211-6.697A55.706 55.706 0 0 1 28.915-.69C35.755-3.55 43.017-5 50.5-5c7.483 0 14.745 1.45 21.585 4.31a55.706 55.706 0 0 1 9.427 5.056 55.752 55.752 0 0 1 8.212 6.697 55.415 55.415 0 0 1 6.78 8.122 54.748 54.748 0 0 1 5.124 9.332A54.075 54.075 0 0 1 106 49.913c0 3.805-.81 8.264-2.408 13.254-1.384 4.32-3.402 9.184-5.997 14.455-4.288 8.708-10.242 18.736-17.698 29.807-12.615 18.733-25.412 34.284-25.54 34.439l-3.857 4.674z" class="cls-4" transform="translate(844 2988)"/>
            <path d="M50.5 0C22.61 0 0 22.347 0 49.913c0 27.566 50.5 88.772 50.5 88.772S101 77.48 101 49.913C101 22.347 78.39 0 50.5 0m0-10C83.86-10 111 16.877 111 49.913c0 30.284-47.384 88.588-52.787 95.137l-7.713 9.348-7.713-9.348C37.384 138.5-10 80.197-10 49.913-10 16.877 17.14-10 50.5-10z" class="cls-5" transform="translate(844 2988)"/>
        </g>
        <circle id="Ellipse_114" cx="20" cy="20" r="20" class="cls-2" data-name="Ellipse 114" transform="translate(874.5 3017.067)"/>
        <rect id="Rectangle_643" width="18" height="18" class="cls-3" data-name="Rectangle 643" rx="9" transform="translate(885.5 3028.062)"/>
    </g>
</svg>
