<svg xmlns="http://www.w3.org/2000/svg" width="32" height="31.89" viewBox="0 0 32 31.89">
    <defs>
        <style>
            .cls-1{fill:none}.cls-2{fill:#707070}.cls-3{fill:#b47eb9}.cls-4{fill:#fff}
        </style>
    </defs>
    <g id="Group_740" data-name="Group 740" transform="translate(-146 -6754)">
        <path id="Rectangle_708" d="M0 0h32v31.89H0z" class="cls-1" data-name="Rectangle 708" transform="translate(146 6754)"/>
        <path id="Rectangle_714" d="M0 0h26v16a2 2 0 0 1-2 2H2a2 2 0 0 1-2-2V0z" class="cls-2" data-name="Rectangle 714" transform="translate(149 6763)"/>
        <rect id="Rectangle_715" width="28" height="3" class="cls-3" data-name="Rectangle 715" rx="1.5" transform="translate(148 6759)"/>
        <path id="Path_2683" d="M5.545-.818h-2.5L2.619.621H.11l2.985-8.277h2.462L8.494.621H6zM4.26-4.992l-.392 1.486-.226.832H4.95l-.25-.891-.368-1.427zm7.718-.488a4.415 4.415 0 0 1 1.118.131 2.179 2.179 0 0 1 .856.428 1.919 1.919 0 0 1 .547.761 2.943 2.943 0 0 1 .19 1.118V.621h-2.235V.1h-.048a2.193 2.193 0 0 1-1.617.64 2.368 2.368 0 0 1-.648-.089 1.565 1.565 0 0 1-.565-.292 1.408 1.408 0 0 1-.4-.541 2.054 2.054 0 0 1-.149-.826A1.741 1.741 0 0 1 9.6-2.352a2.518 2.518 0 0 1 1.748-.523h1.082V-3.1a.934.934 0 0 0-.024-.2.487.487 0 0 0-.1-.2.54.54 0 0 0-.238-.155 1.24 1.24 0 0 0-.422-.059q-.238 0-.428.018a1.571 1.571 0 0 0-.351.071 1.716 1.716 0 0 0-.315.143 2.709 2.709 0 0 0-.333.232l-.845-1.433a2.665 2.665 0 0 1 1.159-.642 6.046 6.046 0 0 1 1.445-.155zm-.714 4.245a.609.609 0 0 0 .083.285q.083.155.392.155a.839.839 0 0 0 .476-.143.492.492 0 0 0 .214-.44v-.274h-.654a.484.484 0 0 0-.392.143.436.436 0 0 0-.118.275z" class="cls-4" data-name="Path 2683" transform="translate(152 6774)"/>
    </g>
</svg>
