<svg xmlns="http://www.w3.org/2000/svg" width="20.365" height="20.36" viewBox="0 0 20.365 20.36">
    <defs>
        <style>
            .cls-1{fill:#fff}
        </style>
    </defs>
    <g id="Group_54" data-name="Group 54" transform="translate(-1858.635 -397.999)">
        <path id="Path_446" d="M24.926 16a6.224 6.224 0 0 0-5.6-5.866c-.061-.006-.129-.017-.2-.027a3.02 3.02 0 0 0-.473-.051.861.861 0 0 0-.731 1.328 1.256 1.256 0 0 0 .883.37 2 2 0 0 1 .237.038c2.794.609 3.736 1.565 4.2 4.263.01.066.016.149.02.234.02.322.063.994.8.994a1.353 1.353 0 0 0 .2-.014c.688-.1.667-.716.657-1.011a1.441 1.441 0 0 1 0-.214v-.041z" class="cls-1" data-name="Path 446" transform="translate(1851.321 390.546)"/>
        <path id="Path_447" d="M18.659 9.125c.081.005.161.01.227.02 4.589.688 6.7 2.806 7.285 7.311a2.311 2.311 0 0 1 .015.269c.006.352.02 1.084.827 1.1h.024a.805.805 0 0 0 .6-.221 1.206 1.206 0 0 0 .22-.943c0-.076-.008-.148-.007-.209a9.221 9.221 0 0 0-8.765-8.94.275.275 0 0 0-.057 0 2.113 2.113 0 0 1-.224-.006q-.121-.009-.242-.01a.821.821 0 0 0-.916.831c-.041.716.672.767 1.015.792zm7.289 13.152q-.147-.108-.291-.222c-.5-.394-1.034-.753-1.549-1.106l-.321-.217a3.242 3.242 0 0 0-1.817-.672 2.355 2.355 0 0 0-1.958 1.206 1.045 1.045 0 0 1-.894.529 1.836 1.836 0 0 1-.719-.176 8.564 8.564 0 0 1-4.527-4.291c-.419-.92-.285-1.523.458-2.013a2.037 2.037 0 0 0 1.15-1.786c-.065-1.125-2.614-4.512-3.689-4.9a2.145 2.145 0 0 0-1.423 0 4.1 4.1 0 0 0-2.563 2.055 3.719 3.719 0 0 0 .057 3.079 24.819 24.819 0 0 0 5.6 8.3 27.242 27.242 0 0 0 8.5 5.493 4.67 4.67 0 0 0 .841.242l.193.045a.316.316 0 0 0 .081.012h.023a4.8 4.8 0 0 0 4-2.966c.5-1.384-.414-2.066-1.153-2.616zm-6.6-9.494a.973.973 0 0 0-1.018.57.746.746 0 0 0 .033.664 1.025 1.025 0 0 0 .771.4 1.792 1.792 0 0 1 1.686 1.771.85.85 0 0 0 .819.827.553.553 0 0 0 .1-.006c.519-.061.774-.433.749-1.107a3.123 3.123 0 0 0-1.012-2.134 3.052 3.052 0 0 0-2.128-.98z" class="cls-1" data-name="Path 447" transform="translate(1851.136 390.5)"/>
    </g>
</svg>
