<svg xmlns="http://www.w3.org/2000/svg" width="24.001" height="14" viewBox="0 0 24.001 14">
    <defs>
        <style>
            .cls-1{fill:#fff}
        </style>
    </defs>
    <path id="iconmonstr-vk-1" d="M13.162 18.994a.8.8 0 0 0 .851-.915c-.031-1.917.714-2.949 2.059-1.6 1.488 1.488 1.8 2.519 3.6 2.519h3.2c.808 0 1.126-.26 1.126-.668 0-.863-1.421-2.386-2.625-3.5-1.686-1.565-1.765-1.6-.313-3.486C22.864 9 25.22 6 23.136 6h-3.981c-.772 0-.828.435-1.1 1.083-1 2.347-2.886 5.387-3.6 4.922-.751-.485-.407-2.406-.35-5.261.015-.754.011-1.271-1.141-1.539A8.07 8.07 0 0 0 11.148 5C8.875 5 7.307 5.953 8.2 6.119c1.571.293 1.42 3.692 1.054 5.16-.638 2.556-3.036-2.024-4.035-4.3C4.976 6.426 4.9 6 4.042 6H.787C.295 6 0 6.16 0 6.516c0 .6 2.96 6.72 5.786 9.77 2.756 2.975 5.48 2.708 7.376 2.708z" class="cls-1" transform="translate(0 -5)"/>
</svg>
