<svg xmlns="http://www.w3.org/2000/svg" viewBox="0 0 8.6 14">
    <defs>
        <style>
            .cls-1{fill:#fff}
        </style>
    </defs>
    <path id="Path_2418" d="M4.3-10.2a2.689 2.689 0 0 1-.23 1.1 6.163 6.163 0 0 1-.56 1 10.491 10.491 0 0 1-.73.94q-.4.46-.73.9a6.454 6.454 0 0 0-.56.88 1.885 1.885 0 0 0-.23.88v.72h-2.34v-.78a2.813 2.813 0 0 1 .21-1.1 4.929 4.929 0 0 1 .53-.95 8.53 8.53 0 0 1 .69-.85q.37-.4.69-.82a4.749 4.749 0 0 0 .53-.87 2.265 2.265 0 0 0 .21-.97 1.83 1.83 0 0 0-.1-.58 1.426 1.426 0 0 0-.33-.54 1.9 1.9 0 0 0-.57-.4 1.914 1.914 0 0 0-.82-.16 1.774 1.774 0 0 0-.84.19 2 2 0 0 0-.61.49 2.26 2.26 0 0 0-.39.69 2.692 2.692 0 0 0-.16.77q-.58-.1-1.13-.17t-1.13-.15a5.253 5.253 0 0 1 .58-1.75 4.551 4.551 0 0 1 1.02-1.26 4.079 4.079 0 0 1 1.33-.76A4.689 4.689 0 0 1 .16-14a4.879 4.879 0 0 1 1.73.29 3.756 3.756 0 0 1 1.3.8 3.537 3.537 0 0 1 .82 1.21 3.88 3.88 0 0 1 .29 1.5zM-1.1 0v-2.26h2.36V0z" class="cls-1" data-name="Path 2418" transform="translate(4.3 14)"/>
</svg>
