<svg xmlns="http://www.w3.org/2000/svg" width="120" height="48" viewBox="0 0 120 48">
    <defs>
        <style>
            .cls-1{fill:none}.cls-2{fill:red}.cls-2,.cls-3{fill-rule:evenodd}
        </style>
    </defs>
    <g id="yandex" transform="translate(0 -48)">
        <path id="Rectangle_850" d="M0 0h120v48H0z" class="cls-1" data-name="Rectangle 850" transform="translate(0 48)"/>
        <g id="Group_65" data-name="Group 65" transform="translate(0 48)">
            <g id="Лого" transform="translate(0 14.577)">
                <path id="Path_91" d="M2.139 15.991H.317l3.242-5.984a4.326 4.326 0 0 1-2.031-1.812A5.582 5.582 0 0 1 .917 5.5a6.1 6.1 0 0 1 .34-2.122 4.635 4.635 0 0 1 .921-1.548A3.8 3.8 0 0 1 3.53.879 4.208 4.208 0 0 1 5.16.56h2.563v15.431H6.142v-5.724H5.1zm4-14.111H5.1a2.273 2.273 0 0 0-.931.2 2.139 2.139 0 0 0-.8.641 3.384 3.384 0 0 0-.56 1.13A5.716 5.716 0 0 0 2.6 5.5a4.8 4.8 0 0 0 .23 1.591 3.136 3.136 0 0 0 .611 1.071 2.3 2.3 0 0 0 .861.611 2.708 2.708 0 0 0 1 .19h.841V1.88z" class="cls-2" data-name="Path 91" transform="translate(-.317 -.56)"/>
                <path id="Path_92" d="M29.1 20.82h-1.416V18.8H23.26v2.02h-1.42V17.5h.62a8.814 8.814 0 0 0 .751-1.942 17.623 17.623 0 0 0 .41-2.1 20.624 20.624 0 0 0 .17-2.1q.029-1.041.03-1.981v-.886H28.3V17.5h.8v3.32zM26.723 9.772h-1.5v.2q0 .94-.06 1.991a20.726 20.726 0 0 1-.22 2.062 15.784 15.784 0 0 1-.421 1.911 6.448 6.448 0 0 1-.66 1.561h2.862V9.772zm9.307 8.567a6.837 6.837 0 0 1-1.111.49 4.189 4.189 0 0 1-1.37.21 2.94 2.94 0 0 1-2.5-1.3 6.167 6.167 0 0 1-.941-3.663 12.331 12.331 0 0 1 .189-2.192 7.288 7.288 0 0 1 .581-1.861 3.728 3.728 0 0 1 .991-1.3 2.2 2.2 0 0 1 1.441-.491 2.279 2.279 0 0 1 2 1.241 7.106 7.106 0 0 1 .76 3.663v.881h-4.3a5.061 5.061 0 0 0 .57 2.622 1.944 1.944 0 0 0 1.791.941 3.742 3.742 0 0 0 .951-.13 5.839 5.839 0 0 0 .77-.251l.181 1.141zm-2.782-8.827a.856.856 0 0 0-.6.24 1.886 1.886 0 0 0-.441.671 4.709 4.709 0 0 0-.28 1.01 11.327 11.327 0 0 0-.14 1.262h2.642v-.22c0-.067 0-.14-.01-.22s-.01-.173-.01-.26a5.354 5.354 0 0 0-.38-1.831q-.3-.652-.781-.652zM20.919 8.491V18.8h-1.581v-4.925h-2.362V18.8h-1.6V8.491h1.6v4.063h2.361V8.491zM43.676 18.8h-1.781l-2.462-5.084-.179-.22v5.3h-1.6V8.491h1.6v4.684l.18-.2 2.181-4.484h1.7l-2.522 4.643zm2.061-5.124a6.086 6.086 0 0 0 .561 2.862 1.833 1.833 0 0 0 1.721 1.041 3.342 3.342 0 0 0 .9-.13 6.27 6.27 0 0 0 .741-.251l.16 1.141a5.9 5.9 0 0 1-1.03.491 3.717 3.717 0 0 1-1.291.21 2.962 2.962 0 0 1-2.492-1.282 6.1 6.1 0 0 1-.95-3.682 9.885 9.885 0 0 1 .27-2.4 6.646 6.646 0 0 1 .731-1.841 3.618 3.618 0 0 1 1.1-1.181 2.47 2.47 0 0 1 1.381-.421 3.7 3.7 0 0 1 1.191.18 3.649 3.649 0 0 1 .95.48l-.821 1.382a2.851 2.851 0 0 0-.63-.54 1.325 1.325 0 0 0-.71-.22 1.026 1.026 0 0 0-.761.361 2.779 2.779 0 0 0-.56.941 6.784 6.784 0 0 0-.341 1.331 9.735 9.735 0 0 0-.12 1.531z" class="cls-3" data-name="Path 92" transform="translate(-5.867 -3.387)"/>
            </g>
            <path id="Справочник" d="M4.026.683a2.728 2.728 0 0 1 1.34.3 3.245 3.245 0 0 1 .861.66l-.26.941a3.425 3.425 0 0 0-.821-.791 1.922 1.922 0 0 0-1.121-.331A2.431 2.431 0 0 0 1.8 3.115a11.142 11.142 0 0 0-.781 4.653 11.852 11.852 0 0 0 .761 4.724 2.423 2.423 0 0 0 2.241 1.7 2.486 2.486 0 0 0 1.322-.321 4.466 4.466 0 0 0 .8-.6l.28.72q-.145.141-.3.271a2.7 2.7 0 0 1-.511.33 3.647 3.647 0 0 1-.72.27 3.428 3.428 0 0 1-.891.11 2.975 2.975 0 0 1-1.681-.491 3.869 3.869 0 0 1-1.241-1.4 7.729 7.729 0 0 1-.76-2.241 15.773 15.773 0 0 1-.26-3.012 15.191 15.191 0 0 1 .27-3.013 7.719 7.719 0 0 1 .78-2.241 4.006 4.006 0 0 1 1.241-1.4 2.943 2.943 0 0 1 1.676-.49zm8.126 4.724H8.789v9.367h-.9V4.686h5.144v10.088h-.88zm5.885 8.847a1.77 1.77 0 0 0 1.571-1.161A8.268 8.268 0 0 0 20.2 9.51a7.723 7.723 0 0 0-.51-3.122q-.511-1.121-1.411-1.121a1.329 1.329 0 0 0-.65.17 2.428 2.428 0 0 0-.581.45 3.549 3.549 0 0 0-.49.65 5.508 5.508 0 0 0-.381.77v5.725a2.281 2.281 0 0 0 .741.921 1.948 1.948 0 0 0 1.121.3zm-.08.7a2.161 2.161 0 0 1-1.031-.251 2.191 2.191 0 0 1-.751-.63V17.9h-.9V4.686h.78l.08 1.661a4.7 4.7 0 0 1 .9-1.291 1.971 1.971 0 0 1 2.522-.211 2.83 2.83 0 0 1 .84 1.012 5.758 5.758 0 0 1 .521 1.561A10.406 10.406 0 0 1 21.1 9.43a7.951 7.951 0 0 1-.861 4.153 2.6 2.6 0 0 1-2.281 1.371zm6.945-.7a1.506 1.506 0 0 0 1.191-.581 4.3 4.3 0 0 0 .77-1.4V9.41h-1.081a2.587 2.587 0 0 0-1.882.611 2.646 2.646 0 0 0-.62 1.952 2.8 2.8 0 0 0 .44 1.681 1.39 1.39 0 0 0 1.181.6zm2.241.52c-.04-.133-.083-.3-.13-.51a6.1 6.1 0 0 1-.11-.851 3.256 3.256 0 0 1-.9 1.141 2.2 2.2 0 0 1-2.962-.35 3.274 3.274 0 0 1-.64-2.152A3.254 3.254 0 0 1 23.26 9.6a3.464 3.464 0 0 1 2.5-.831h1.1V7.508a2.765 2.765 0 0 0-.417-1.708 1.511 1.511 0 0 0-1.261-.53 2.571 2.571 0 0 0-1.2.29 2.5 2.5 0 0 0-.921.81l-.26-.861a2.559 2.559 0 0 1 .91-.71 3.212 3.212 0 0 1 1.471-.311 2.469 2.469 0 0 1 1.9.711 3.164 3.164 0 0 1 .66 2.211v5.5a9.388 9.388 0 0 0 .06 1.051 3.792 3.792 0 0 0 .16.811h-.821zm2.842 0V4.686h2.082a2.987 2.987 0 0 1 2.041.621 2.3 2.3 0 0 1 .7 1.822 2.712 2.712 0 0 1-.34 1.361 2.294 2.294 0 0 1-1.081.941 2.561 2.561 0 0 1 1.431.9 2.555 2.555 0 0 1 .45 1.541 2.674 2.674 0 0 1-.861 2.2 3.536 3.536 0 0 1-2.3.7zm.881-9.387v3.8h1.2a1.955 1.955 0 0 0 1.361-.47 2 2 0 0 0 .52-1.551 1.672 1.672 0 0 0-.5-1.381 2.152 2.152 0 0 0-1.381-.4zm0 4.463v4.243h1.281a2.509 2.509 0 0 0 1.6-.49 2.011 2.011 0 0 0 .621-1.671 1.988 1.988 0 0 0-.571-1.6 2.532 2.532 0 0 0-1.671-.48h-1.259zm8.646 5.124a2.362 2.362 0 0 1-1.22-.33 2.927 2.927 0 0 1-.971-.971 5.379 5.379 0 0 1-.65-1.611 9.521 9.521 0 0 1-.24-2.272 9.584 9.584 0 0 1 .24-2.252 5.793 5.793 0 0 1 .65-1.661 3.138 3.138 0 0 1 .971-1.031 2.214 2.214 0 0 1 1.22-.36 2.419 2.419 0 0 1 1.221.319 2.819 2.819 0 0 1 .971.971 5.529 5.529 0 0 1 .65 1.621A9.548 9.548 0 0 1 42.6 9.67a9.478 9.478 0 0 1-.24 2.241 5.969 5.969 0 0 1-.65 1.662 3.118 3.118 0 0 1-.971 1.041 2.216 2.216 0 0 1-1.221.361zm0-.72a1.826 1.826 0 0 0 1.541-1.111A7.038 7.038 0 0 0 41.7 9.73a10.618 10.618 0 0 0-.17-2.052 4.846 4.846 0 0 0-.47-1.391 2.2 2.2 0 0 0-.7-.8 1.518 1.518 0 0 0-.84-.26 1.824 1.824 0 0 0-1.541 1.091 6.97 6.97 0 0 0-.641 3.413 10.646 10.646 0 0 0 .17 2.041 4.99 4.99 0 0 0 .47 1.411 2.23 2.23 0 0 0 .69.811 1.5 1.5 0 0 0 .85.26zm8.746.52v-4.6a2.139 2.139 0 0 1-.48.32 3.55 3.55 0 0 1-.581.22 2.848 2.848 0 0 1-.8.1 2.133 2.133 0 0 1-1.681-.7 3.156 3.156 0 0 1-.62-2.141V4.686H45v3.3a2.386 2.386 0 0 0 .421 1.582 1.438 1.438 0 0 0 1.141.48 2.2 2.2 0 0 0 .72-.11 2.029 2.029 0 0 0 .54-.27 3.138 3.138 0 0 0 .44-.4V4.686h.9v10.088zm7.527-4.884H52.3v4.884h-.9V4.686h.9V9.17h3.483V4.687h.9v10.087h-.9zm7.846-5.2h.78v10.084h-.861V7.628a10.385 10.385 0 0 1 .08-1.341h-.06a6.106 6.106 0 0 1-.23.65c-.087.207-.183.417-.29.631l-3.341 7.206h-.761V4.686h.841v7.146a10.386 10.386 0 0 1-.08 1.341h.06a6.105 6.105 0 0 1 .23-.65c.087-.207.183-.417.29-.631l3.343-7.206zm3.943 10.088h-.9V4.686h.9V9.43l3.382-4.744h.881L68.515 9.37l3.562 5.4h-1l-3.5-5.224v5.224z" class="cls-3" transform="translate(47.923 14.789)"/>
        </g>
    </g>
</svg>
