<svg xmlns="http://www.w3.org/2000/svg" width="120" height="48" viewBox="0 0 120 48">
    <defs>
        <style>
            .cls-1{fill:none}.cls-2{fill:#eb4a4e}.cls-3{fill:#ee4849;fill-rule:evenodd}
        </style>
    </defs>
    <g id="yell" transform="translate(0 -96)">
        <path id="Rectangle_851" d="M0 0h120v48H0z" class="cls-1" data-name="Rectangle 851" transform="translate(0 96)"/>
        <g id="Group_827" data-name="Group 827" transform="translate(6.778 100.66)">
            <path id="Path_93" d="M152.221 55.573c1.213 0 2.463.038 3.676 0 .531 0 .72.152.606.644v.227c-.227 2.122-.227 2.122-2.35 2.122-.91 0-1.819.038-2.729 0-.531-.038-.758.189-.8.72-.076.758-.493 1.705-.189 2.236.3.493 1.364 0 2.084 0a19.272 19.272 0 0 0 2.084-.152c.455-.038.568.076.531.568-.227 2.463-.19 2.463-2.691 2.577h-.227c-2.653.152-2.615.152-2.994 2.767-.076.568.114.568.531.568h4.017c.493 0 .758.114.644.644v.227c-.189 2.2-.189 2.2-2.388 2.2-1.971 0-3.941-.038-5.912 0-.682 0-.8-.152-.682-.834.8-4.434 1.516-8.83 2.236-13.264.152-.872.379-1.364 1.4-1.251 1.032.077 2.092.001 3.153.001z" class="cls-2" data-name="Path 93" transform="translate(-90.291 -34.53)"/>
            <path id="Path_94" d="M123.911 62.216a43.76 43.76 0 0 0 3.449-6.367 1.082 1.082 0 0 1 1.289-.758c2.539.227 2.577.227 1.364 2.5a44.3 44.3 0 0 1-4.013 6.52 5.447 5.447 0 0 0-1.213 3.07c-.038.379-.152.758-.189 1.137-.341 2.425-.8 2.729-3.259 2.35-.493-.076-.568-.227-.455-.682.152-.493.152-1.023.3-1.554a8.316 8.316 0 0 0-.417-5.5 26.289 26.289 0 0 1-1.592-6.822c-.076-.606.114-.758.644-.8h.114c2.5-.3 2.5-.3 2.918 2.122a31.3 31.3 0 0 0 1.06 4.784z" class="cls-2" data-name="Path 94" transform="translate(-73.995 -34.237)"/>
            <path id="Path_95" d="M177.711 70.743h-3.373c-.493 0-.644-.114-.568-.644q1.251-6.992 2.388-13.984c.076-.493.189-.758.758-.72a21.262 21.262 0 0 0 2.2 0c.72-.038.758.341.682.91-.606 3.411-1.175 6.822-1.819 10.232-.152.758-.038 1.061.834 1.023.91-.038 1.819.114 2.729.114.531 0 .682.189.568.682v.114c-.227 2.274-.227 2.274-2.539 2.274z" class="cls-2" data-name="Path 95" transform="translate(-107.898 -34.426)"/>
            <path id="Path_96" d="M202.136 67.3c1.326.076 2.5.152 3.676.189.493 0 .644.114.606.644-.3 2.425-.3 2.425-2.729 2.425-1.668 0-3.3-.038-4.965 0-.644 0-.8-.189-.682-.8.8-4.548 1.554-9.133 2.312-13.681.114-.568.265-.872.985-.91 2.842-.189 2.842-.227 2.388 2.5a209.234 209.234 0 0 1-.834 4.775c-.226 1.603-.453 3.195-.757 4.858z" class="cls-2" data-name="Path 96" transform="translate(-122.963 -34.247)"/>
            <path id="Subtraction_4" d="M.849 10.435a1.176 1.176 0 0 1-.649-.182c-.256-.16-.215-.344-.173-.538.008-.038.016-.072.021-.106Q.391 7.6.73 5.582l.009-.057v-.01l.79-4.7c.058-.4.185-.817.7-.817a1.245 1.245 0 0 1 .213.02 5.549 5.549 0 0 0 .8.048h.796c.124 0 .275 0 .41.008h.035c.128 0 .26.008.39.008.156 0 .293-.005.417-.017a3.01 3.01 0 0 1 .3-.016 2.34 2.34 0 0 1 2.118 1.336 2.577 2.577 0 0 1-.076 2.881.374.374 0 0 0-.075.132.371.371 0 0 1-.077.133c-1.655 1.188-1.088 2.648-.54 4.061l.008.02.078.2.015.039c.306.809.459 1.215.326 1.407-.075.109-.245.154-.586.154-.22 0-.51-.018-.847-.039l-.12-.007a.986.986 0 0 1-.985-.758c-.115-.42-.24-.844-.362-1.255s-.245-.829-.359-1.246c-.021-.063-.037-.132-.052-.192-.066-.273-.128-.531-.557-.531h-.073c-.543.037-.678.274-.758.758-.051.482-.137.972-.22 1.445a40.53 40.53 0 0 0-.121.715 1.523 1.523 0 0 1-1.478 1.133zM4.576 2.06c-.085 0-.176 0-.278.007-.725.039-1.136.8-1.1 2.047.019.358.162.4.284.4a.991.991 0 0 0 .2-.028.962.962 0 0 1 .193-.029.216.216 0 0 1 .121.031 2.291 2.291 0 0 0 1.633-.638.987.987 0 0 0 .26-.759c-.07-.909-.703-1.031-1.313-1.031z" class="cls-2" data-name="Subtraction 4" transform="translate(88.974 26.064)"/>
            <path id="Path_98" d="M261.469 79.1c-2.577 0-3.449-.947-3.032-3.525.3-2.084.644-4.131 1.061-6.215.265-1.289 1.289-.531 1.933-.568.834-.076.265.606.227.91a285.65 285.65 0 0 1-.947 5.8c-.114.644-.3 1.289.606 1.516 1.023.227 1.781-.114 1.971-1.023.341-1.554.568-3.108.834-4.661.076-.455.114-.91.227-1.326.152-.493-.152-1.213.834-1.251 1.705-.038 1.705-.076 1.4 1.63-.341 1.743-.606 3.525-.947 5.268-.415 2.423-1.628 3.408-4.167 3.445z" class="cls-2" data-name="Path 98" transform="translate(-160.428 -42.633)"/>
            <path id="Yell-2" d="M37.24 36.188c2.326.668-.666-7.627-.666-7.627 1.333-3.985 2.652-17.589 1.824-21.736s-3.933-4-9.639-5.139C22.951.522 8.344-.145 5.175.026 2.024.19-.292 2.342.032 6.663s5.386 20.365 7.892 24.349 6.188 3.289 8.39 3.022c3.02-.373 14.387-3.022 14.387-3.022-1.017-1.307 4.213 4.508 6.538 5.175zM21.994 11.114l2.023-4.3h6.055l-6.619 12.6v7.426h-6.947v-7.423l-3.7-7.046-2.928-5.558h6.055l4.042 8.571z" class="cls-3" data-name="Yell" transform="translate(.22 .34)"/>
        </g>
    </g>
</svg>
