<svg xmlns="http://www.w3.org/2000/svg" id="zoon" width="120" height="48" viewBox="0 0 120 48">
    <defs>
        <style>
            .cls-1{fill:none}.cls-2{fill:#201e1f}.cls-3{fill:#5d509a}
        </style>
    </defs>
    <path id="Rectangle_849" d="M0 0h120v48H0z" class="cls-1" data-name="Rectangle 849"/>
    <g id="Group_83" data-name="Group 83" transform="translate(14.164 8.622)">
        <path id="Path_748" d="M62.238 25.972a11.287 11.287 0 0 1-2.889-.33c-.536-.165-.784-.041-1.073.454-1.321 2.352-2.682 4.622-3.962 6.974-.33.578-.536.743-1.114.206-1.032-.949-2.1-1.816-3.219-2.682a.718.718 0 0 1-.206-1.073l3.466-6.066a.866.866 0 0 0-.124-1.238A12.983 12.983 0 0 1 65.663.428a13 13 0 0 1-3.425 25.544zm.082-19.849a6.873 6.873 0 1 0 6.809 6.977 6.887 6.887 0 0 0-6.809-6.977z" class="cls-2" data-name="Path 748" transform="translate(-28.879)"/>
        <path id="Path_749" d="M121.241 0a12.965 12.965 0 0 1 11.348 7.882 12.874 12.874 0 0 1-1.816 14.32c-1.9 2.393-3.962 4.581-6.066 6.768-1.362 1.4-2.641 2.889-3.92 4.374-.371.454-.619.413-.99-.041-2.682-2.971-5.365-5.9-8.047-8.831-.371-.413-.454-.7-.041-1.114A11.647 11.647 0 0 0 114.1 19.6c.248-.5.371-.619.825-.206a7.591 7.591 0 0 0 8.418 1.444 7.4 7.4 0 0 0 4.787-6.892 7.438 7.438 0 0 0-4.127-7.3 7.558 7.558 0 0 0-8.46.578 2.891 2.891 0 0 0-.413.33c-.289.289-.5.33-.66-.165A13.266 13.266 0 0 0 112.2 3.3c-.413-.536-.041-.7.289-.908A15.1 15.1 0 0 1 121.241 0z" class="cls-3" data-name="Path 749" transform="translate(-65.433 -.026)"/>
        <path id="Path_750" d="M178.676 16.077v10.77c0 .536-.165.7-.66.66a57.333 57.333 0 0 0-3.755 0c-.536 0-.66-.165-.66-.7v-18.2c0-.454.124-.7.619-.619h.165c1.486.041 3.178-.454 4.374.165s1.9 2.146 2.806 3.26c2.1 2.6 4.209 5.241 6.314 7.841a5.566 5.566 0 0 1 .371.454 2.435 2.435 0 0 0 .124-1.2c0-3.26.041-6.479 0-9.739 0-.66.165-.825.825-.784 1.238.041 2.435.041 3.673 0 .5 0 .66.124.66.619v18.285c0 .536-.206.619-.66.619-1.527 0-3.1-.041-4.622 0a1.216 1.216 0 0 1-1.114-.619c-2.559-3.425-5.158-6.809-7.717-10.193a4.749 4.749 0 0 0-.578-.7.214.214 0 0 1-.165.081z" class="cls-2" data-name="Path 750" transform="translate(-101.946 -4.631)"/>
        <path id="Path_751" d="M8.021 22.785h2.765c1.857 0 3.714.041 5.571 0 .5 0 .66.165.619.619a57.333 57.333 0 0 0 0 3.755c0 .5-.165.619-.66.619H.758c-.5 0-.784-.124-.66-.66v-.083a5.661 5.661 0 0 1 1.774-5.117C4.265 19.483 6.37 16.8 8.6 14.2c.165-.206.536-.371.371-.7-.124-.248-.454-.083-.7-.083-2.435 0-4.828-.041-7.263 0-.536 0-.743-.124-.7-.7A57.395 57.395 0 0 0 .3 8.96c0-.454.083-.66.619-.66H16.4c.413 0 .578.124.536.536v3.343a1.346 1.346 0 0 1-.5.949C13.839 16.1 11.2 19.071 8.6 22.042a6.74 6.74 0 0 0-.579.743z" class="cls-2" data-name="Path 751" transform="translate(0 -4.901)"/>
    </g>
</svg>
