<?xml version="1.0" encoding="UTF-8"?>
<svg width="208px" height="48px" viewBox="0 0 208 48" version="1.1" xmlns="http://www.w3.org/2000/svg" xmlns:xlink="http://www.w3.org/1999/xlink">
    <!-- Generator: Sketch 43.2 (39069) - http://www.bohemiancoding.com/sketch -->
    <title>лого подпись_новая шапка</title>
    <desc>Created with Sketch.</desc>
    <defs>
        <polygon id="path-1" points="13.435 0.7848 13.435 16.8008 0.139 16.8008 0.139 0.7848 13.435 0.7848"></polygon>
        <polygon id="path-3" points="6.5568 9 0 9 0 0.9386 6.5568 0.9386"></polygon>
    </defs>
    <g id="Page-1" stroke="none" stroke-width="1" fill="none" fill-rule="evenodd">
        <g id="лого-с-подписью" transform="translate(-219.000000, -47.000000)">
            <g id="лого-подпись_новая-шапка" transform="translate(219.000000, 46.000000)">
                <g id="Group-3" transform="translate(58.000000, 11.000000)">
                    <g id="Page-1">
                        <path d="M10.3291,13.5404 L3.5461,13.5404 L3.5461,10.3664 L9.0231,10.3664 C9.7771,10.3664 10.1441,10.0154 10.1441,9.2934 L10.1441,8.2584 C10.1441,7.5374 9.7771,7.1864 9.0231,7.1864 L3.5461,7.1864 L3.5461,4.2014 L10.0811,4.2014 C10.8501,4.2014 11.2251,3.8504 11.2251,3.1284 L11.2251,2.0944 C11.2251,1.3824 10.8401,1.0204 10.0811,1.0204 L1.1431,1.0204 C0.3851,1.0204 0.0001,1.3824 0.0001,2.0944 L0.0001,15.6474 C0.0001,16.3694 0.3741,16.7204 1.1431,16.7204 L10.3291,16.7204 C11.0831,16.7204 11.4501,16.3694 11.4501,15.6474 L11.4501,14.6134 C11.4501,13.8914 11.0831,13.5404 10.3291,13.5404" id="Fill-1" fill="#4A4A4A"></path>
                        <path d="M58.7378,1.0214 L48.1548,1.0214 C47.4008,1.0214 47.0348,1.3724 47.0348,2.0944 L47.0348,3.1284 C47.0348,3.8504 47.4008,4.2014 48.1548,4.2014 L51.6738,4.2014 L51.6738,15.6474 C51.6738,16.3694 52.0398,16.7204 52.7938,16.7204 L54.0988,16.7204 C54.8528,16.7204 55.2198,16.3694 55.2198,15.6474 L55.2198,4.2014 L58.7378,4.2014 C59.4918,4.2014 59.8588,3.8504 59.8588,3.1284 L59.8588,2.0944 C59.8588,1.3724 59.4918,1.0214 58.7378,1.0214" id="Fill-3" fill="#4A4A4A"></path>
                        <path d="M73.5962,13.5404 L66.8132,13.5404 L66.8132,10.3664 L72.2902,10.3664 C73.0442,10.3664 73.4102,10.0154 73.4102,9.2934 L73.4102,8.2584 C73.4102,7.5374 73.0442,7.1864 72.2902,7.1864 L66.8132,7.1864 L66.8132,4.2014 L73.3482,4.2014 C74.1172,4.2014 74.4922,3.8504 74.4922,3.1284 L74.4922,2.0944 C74.4922,1.3824 74.1072,1.0204 73.3482,1.0204 L64.4102,1.0204 C63.6512,1.0204 63.2662,1.3824 63.2662,2.0944 L63.2662,15.6474 C63.2662,16.3694 63.6402,16.7204 64.4102,16.7204 L73.5962,16.7204 C74.3502,16.7204 74.7172,16.3694 74.7172,15.6474 L74.7172,14.6134 C74.7172,13.8914 74.3502,13.5404 73.5962,13.5404" id="Fill-5" fill="#4A4A4A"></path>
                        <path d="M88.5176,10.3246 C87.9546,9.2876 87.2616,8.5176 86.4576,8.0366 L86.3406,7.9666 L86.4276,7.8616 L91.0726,2.2966 C91.3036,2.0126 91.3646,1.6996 91.2406,1.4376 C91.1666,1.2826 90.9626,1.0216 90.4356,1.0216 L88.9946,1.0216 C88.0346,1.0216 87.6596,1.1216 87.1866,1.7446 L82.7686,7.2066 L82.0996,7.2066 L82.0996,2.0946 C82.0996,1.3726 81.7336,1.0216 80.9786,1.0216 L79.6956,1.0216 C78.9366,1.0216 78.5526,1.3826 78.5526,2.0946 L78.5526,15.6476 C78.5526,16.3596 78.9366,16.7206 79.6956,16.7206 L80.9786,16.7206 C81.7336,16.7206 82.0996,16.3696 82.0996,15.6476 L82.0996,10.3236 L82.8926,10.3236 C83.5516,10.3236 84.0866,10.4106 84.3996,10.5696 C84.6866,10.7556 84.9876,11.1236 85.2576,11.6116 L87.5296,15.8916 C87.8896,16.5956 88.3276,16.7206 89.3766,16.7206 L90.6836,16.7206 C91.0726,16.7206 91.3386,16.6046 91.4726,16.3756 C91.6106,16.1396 91.5786,15.8376 91.3766,15.4756 L88.5176,10.3246 Z" id="Fill-7" fill="#4A4A4A"></path>
                        <path d="M113.42,13.266 L113.263,13.266 C111.97,13.266 111.466,13.745 111.466,14.973 L111.466,15.162 C111.466,16.39 111.97,16.869 113.263,16.869 L113.42,16.869 C114.712,16.869 115.215,16.39 115.215,15.162 L115.215,14.973 C115.215,13.745 114.712,13.266 113.42,13.266" id="Fill-9" fill="#4A4A4A"></path>
                        <g id="Group-13" transform="translate(136.000000, 0.236600)">
                            <mask id="mask-2" fill="white">
                                <use xlink:href="#path-1"></use>
                            </mask>
                            <g id="Clip-12"></g>
                            <path d="M12.315,0.7848 L11.031,0.7848 C10.277,0.7848 9.911,1.1358 9.911,1.8578 L9.911,10.9988 C9.911,12.7388 8.863,13.6198 6.798,13.6198 C4.733,13.6198 3.686,12.7388 3.686,10.9988 L3.686,1.8578 C3.686,1.1358 3.319,0.7848 2.565,0.7848 L1.259,0.7848 C0.505,0.7848 0.139,1.1358 0.139,1.8578 L0.139,10.9768 C0.139,12.7648 0.754,14.2458 1.919,15.2598 C3.076,16.2668 4.763,16.8008 6.798,16.8008 C8.827,16.8008 10.509,16.2668 11.662,15.2598 C12.822,14.2458 13.436,12.7648 13.436,10.9768 L13.436,1.8578 C13.436,1.1358 13.069,0.7848 12.315,0.7848" id="Fill-11" fill="#4A4A4A" mask="url(#mask-2)"></path>
                        </g>
                        <path d="M19.897,10.4789 L21.446,6.4809 C21.501,6.3309 21.553,6.1819 21.599,6.0349 L21.716,5.6679 L21.823,6.0379 C21.87,6.1959 21.92,6.3549 21.975,6.5099 L23.5,10.4789 L19.897,10.4789 Z M23.625,1.7909 C23.394,1.2219 23.037,0.9999 22.35,0.9999 L21.157,0.9999 C20.458,0.9999 20.136,1.2049 19.882,1.8119 L14.251,15.5429 C14.088,15.9639 14.176,16.2309 14.278,16.3799 C14.432,16.6059 14.709,16.7209 15.101,16.7209 L16.136,16.7209 C16.941,16.7209 17.58,16.6579 17.861,15.8639 L18.834,13.3629 L24.56,13.3629 L25.505,15.8479 C25.792,16.6569 26.431,16.7209 27.236,16.7209 L28.407,16.7209 C28.799,16.7209 29.075,16.6069 29.228,16.3819 C29.378,16.1639 29.387,15.8779 29.253,15.5329 L23.625,1.7909 Z" id="Fill-14" fill="#4A4A4A"></path>
                        <path d="M99.5303,10.4789 L101.0783,6.4809 C101.1343,6.3309 101.1863,6.1819 101.2333,6.0339 L101.3493,5.6649 L101.4573,6.0369 C101.5023,6.1959 101.5533,6.3559 101.6083,6.5099 L103.1343,10.4789 L99.5303,10.4789 Z M103.2593,1.7909 C103.0273,1.2219 102.6703,0.9999 101.9843,0.9999 L100.7903,0.9999 C100.0913,0.9999 99.7693,1.2049 99.5163,1.8119 L93.8843,15.5419 C93.7203,15.9629 93.8093,16.2299 93.9123,16.3809 C94.0663,16.6059 94.3433,16.7209 94.7343,16.7209 L95.7693,16.7209 C96.5753,16.7209 97.2133,16.6579 97.4953,15.8639 L98.4673,13.3629 L104.1943,13.3629 L105.1383,15.8479 C105.4253,16.6569 106.0653,16.7209 106.8703,16.7209 L108.0413,16.7209 C108.4333,16.7209 108.7083,16.6069 108.8613,16.3819 C109.0113,16.1639 109.0203,15.8779 108.8863,15.5329 L103.2593,1.7909 Z" id="Fill-16" fill="#4A4A4A"></path>
                        <path d="M127.9527,7.3593 L127.9237,7.3843 C127.5637,7.6883 127.0627,7.8403 126.4317,7.8403 L122.8907,7.8403 L122.8907,4.2013 L126.4317,4.2013 C127.0967,4.2013 127.6047,4.3533 127.9427,4.6513 C128.2747,4.9623 128.4407,5.4223 128.4407,6.0213 C128.4407,6.6223 128.2767,7.0723 127.9527,7.3593 L127.9527,7.3593 Z M129.8297,11.0253 C129.7417,10.8513 129.6407,10.6873 129.5307,10.5393 L129.4457,10.4243 L129.5757,10.3633 C131.2177,9.5943 132.1227,8.0523 132.1227,6.0213 C132.1227,2.9373 130.0457,1.0213 126.7017,1.0213 L120.4867,1.0213 C119.7287,1.0213 119.3447,1.3813 119.3447,2.0933 L119.3447,15.6473 C119.3447,16.3593 119.7287,16.7203 120.4867,16.7203 L121.7707,16.7203 C122.5247,16.7203 122.8907,16.3693 122.8907,15.6473 L122.8907,11.0203 L124.2027,11.0203 C125.6027,11.0203 126.0227,11.2493 126.5687,12.3103 L128.4567,15.8933 C128.8167,16.5953 129.2527,16.7203 130.3047,16.7203 L131.6107,16.7203 C131.9997,16.7203 132.2647,16.6043 132.3997,16.3753 C132.5377,16.1403 132.5057,15.8373 132.3037,15.4753 L129.8297,11.0253 Z" id="Fill-18" fill="#4A4A4A"></path>
                        <path d="M41.5225,6.0107 C41.5225,6.3797 41.4585,6.6977 41.3315,6.9587 C41.2535,7.1147 41.1545,7.2457 41.0345,7.3507 L41.0055,7.3767 C40.7805,7.5667 40.4995,7.6977 40.1675,7.7677 C39.9655,7.8077 39.7465,7.8277 39.5145,7.8277 L35.9735,7.8277 L35.9735,4.1937 L39.5145,4.1937 C39.7485,4.1937 39.9665,4.2137 40.1645,4.2527 C40.4985,4.3237 40.7795,4.4537 41.0035,4.6417 L41.0355,4.6707 C41.1545,4.7767 41.2545,4.9077 41.3315,5.0617 C41.4585,5.3157 41.5225,5.6347 41.5225,6.0077 L41.5225,6.0107 Z M45.1875,5.5477 C45.1825,5.4817 45.1765,5.4177 45.1705,5.3537 C45.1645,5.2897 45.1595,5.2477 45.1545,5.2057 C45.1475,5.1487 45.1385,5.0937 45.1295,5.0377 C45.1145,4.9457 45.0985,4.8547 45.0795,4.7657 L45.0725,4.7337 C45.0655,4.6987 45.0585,4.6647 45.0505,4.6307 C45.0375,4.5757 45.0235,4.5227 45.0085,4.4687 C44.9965,4.4237 44.9835,4.3797 44.9705,4.3357 C44.9565,4.2867 44.9415,4.2397 44.9255,4.1927 C44.9005,4.1197 44.8755,4.0477 44.8465,3.9757 L44.9385,3.8847 L44.8295,3.9277 C44.7895,3.8287 44.7455,3.7327 44.6995,3.6377 C44.2695,2.7517 43.5915,2.0757 42.6825,1.6257 C41.8625,1.2187 40.8875,1.0127 39.7835,1.0127 L33.5695,1.0127 C32.8115,1.0127 32.4265,1.3737 32.4265,2.0857 L32.4265,9.1497 L32.4095,9.1497 L32.4095,15.7777 C32.4095,16.2927 32.8285,16.7127 33.3445,16.7127 L35.0395,16.7127 C35.5545,16.7127 35.9735,16.2927 35.9735,15.7777 L35.9735,11.0087 L39.7835,11.0087 C40.8875,11.0087 41.8625,10.8017 42.6825,10.3957 C43.5915,9.9447 44.2695,9.2687 44.6975,8.3867 C44.7455,8.2887 44.7895,8.1927 44.8295,8.0937 L44.9565,8.0877 L44.8465,8.0447 C44.8755,7.9737 44.9005,7.9017 44.9255,7.8277 C44.9415,7.7817 44.9565,7.7337 44.9705,7.6857 C44.9835,7.6417 44.9965,7.5967 45.0085,7.5517 C45.0235,7.4987 45.0375,7.4447 45.0505,7.3907 C45.0585,7.3567 45.0655,7.3217 45.0725,7.2867 L45.0795,7.2557 C45.0985,7.1667 45.1145,7.0757 45.1285,6.9847 C45.1385,6.9277 45.1475,6.8727 45.1545,6.8157 C45.1595,6.7737 45.1645,6.7307 45.1685,6.6877 C45.1765,6.6037 45.1825,6.5397 45.1875,6.4737 L45.1955,6.3437 C45.2005,6.2407 45.2045,6.1357 45.2045,6.0287 L45.2055,6.0087 L45.2055,6.0077 C45.2045,5.8857 45.2005,5.7807 45.1955,5.6767 L45.1875,5.5477 Z" id="Fill-20" fill="#4A4A4A"></path>
                        <g id="Group-24" transform="translate(0.000000, 22.236600)">
                            <mask id="mask-4" fill="white">
                                <use xlink:href="#path-3"></use>
                            </mask>
                            <g id="Clip-23"></g>
                            <path d="M5.4268,0.9386 C5.6608,0.9386 5.7538,1.0226 5.7538,1.2556 L5.7538,6.4776 L6.2398,6.4776 C6.4728,6.4776 6.5568,6.5616 6.5568,6.7946 L6.5568,8.6826 C6.5568,8.9166 6.4728,9.0006 6.2398,9.0006 L5.7258,9.0006 C5.4928,9.0006 5.4088,8.9166 5.4088,8.6826 L5.4088,7.5706 L1.1388,7.5706 L1.1388,8.6826 C1.1388,8.9166 1.0558,9.0006 0.8218,9.0006 L0.3178,9.0006 C0.0838,9.0006 -0.0002,8.9166 -0.0002,8.6826 L-0.0002,6.7946 C-0.0002,6.5616 0.0838,6.4776 0.3178,6.4776 L0.5328,6.4776 C0.7658,6.3186 0.9248,6.1226 1.1118,5.6466 C1.2888,5.1706 1.3918,4.3396 1.3918,3.1886 L1.3918,1.2556 C1.3918,1.0226 1.4748,0.9386 1.7088,0.9386 L5.4268,0.9386 Z M2.5228,2.0316 L2.5228,3.1796 C2.5228,4.7206 2.3168,5.8246 1.8968,6.4776 L4.5778,6.4776 L4.5778,2.0316 L2.5228,2.0316 Z" id="Fill-22" fill="#4A4A4A" mask="url(#mask-4)"></path>
                        </g>
                        <path d="M8.649,25.4726 C8.649,23.9506 9.611,23.0346 11.321,23.0346 C13.012,23.0346 13.984,23.9506 13.984,25.4726 L13.984,27.5106 C13.984,29.0326 13.012,29.9476 11.321,29.9476 C9.611,29.9476 8.649,29.0326 8.649,27.5106 L8.649,25.4726 Z M12.816,25.4636 C12.816,24.6036 12.283,24.1286 11.321,24.1286 C10.358,24.1286 9.827,24.5946 9.827,25.4636 L9.827,27.5186 C9.827,28.3876 10.358,28.8546 11.321,28.8546 C12.283,28.8546 12.816,28.3776 12.816,27.5186 L12.816,25.4636 Z" id="Fill-25" fill="#4A4A4A"></path>
                        <path d="M16.4014,25.4638 C16.4014,23.9598 17.3634,23.0348 19.0734,23.0348 C20.4004,23.0348 21.2504,23.5588 21.6144,24.5938 C21.6894,24.7918 21.6244,24.9298 21.4184,25.0058 L20.9044,25.1828 C20.6804,25.2578 20.5874,25.2108 20.5034,24.9878 C20.2974,24.4178 19.8204,24.1288 19.0734,24.1288 C18.1104,24.1288 17.5794,24.5938 17.5794,25.4548 L17.5794,27.5188 C17.5794,28.3788 18.1104,28.8538 19.0734,28.8538 C19.8114,28.8538 20.2874,28.5648 20.5034,27.9858 C20.6064,27.7528 20.6894,27.7048 20.9134,27.7888 L21.4184,27.9668 C21.6244,28.0418 21.6894,28.1818 21.6244,28.3788 C21.2594,29.4238 20.4094,29.9468 19.0734,29.9468 C17.3634,29.9468 16.4014,29.0318 16.4014,27.5098 L16.4014,25.4638 Z" id="Fill-27" fill="#4A4A4A"></path>
                        <path d="M28.2647,23.1752 C28.4987,23.1752 28.5817,23.2592 28.5817,23.4922 L28.5817,23.9502 C28.5817,24.1842 28.4987,24.2682 28.2647,24.2682 L26.6577,24.2682 L26.6577,29.4902 C26.6577,29.7242 26.5737,29.8072 26.3397,29.8072 L25.7987,29.8072 C25.5647,29.8072 25.4807,29.7242 25.4807,29.4902 L25.4807,24.2682 L23.8737,24.2682 C23.6407,24.2682 23.5557,24.1842 23.5557,23.9502 L23.5557,23.4922 C23.5557,23.2592 23.6407,23.1752 23.8737,23.1752 L28.2647,23.1752 Z" id="Fill-29" fill="#4A4A4A"></path>
                        <path d="M35.6597,29.4989 C35.7347,29.7039 35.6597,29.8069 35.4457,29.8069 L34.9587,29.8069 C34.5757,29.8069 34.4537,29.7509 34.3797,29.5269 L33.9507,28.3219 L31.3717,28.3219 L30.9317,29.5269 C30.8577,29.7509 30.7357,29.8069 30.3537,29.8069 L29.9237,29.8069 C29.7087,29.8069 29.6347,29.7039 29.7087,29.4989 L32.0447,23.4279 C32.1287,23.2119 32.2127,23.1649 32.4367,23.1649 L32.9317,23.1649 C33.1567,23.1649 33.2487,23.2219 33.3247,23.4169 L35.6597,29.4989 Z M32.9127,25.3889 C32.8007,25.0529 32.7257,24.6239 32.6987,24.4079 L32.6897,24.2489 L32.6227,24.2489 C32.6227,24.6049 32.5587,24.9779 32.4177,25.3799 L31.6977,27.3599 L33.6217,27.3599 L32.9127,25.3889 Z" id="Fill-31" fill="#4A4A4A"></path>
                        <path d="M40.7129,23.1752 C41.9169,23.1752 42.6289,23.8002 42.6289,24.9222 C42.6289,25.5862 42.3949,26.0532 41.9169,26.3312 L41.9169,26.3692 C42.5539,26.5932 42.8699,27.1352 42.8699,27.9862 C42.8699,29.1342 42.0299,29.8072 40.7689,29.8072 L38.1249,29.8072 C37.8909,29.8072 37.7979,29.7242 37.7979,29.4902 L37.7979,23.4922 C37.7979,23.2592 37.8909,23.1752 38.1249,23.1752 L40.7129,23.1752 Z M40.5729,25.9122 C41.1419,25.9122 41.4329,25.6412 41.4329,25.0912 C41.4329,24.5382 41.1419,24.2682 40.5729,24.2682 L38.9749,24.2682 L38.9749,25.9122 L40.5729,25.9122 Z M40.7409,26.9762 L38.9749,26.9762 L38.9749,28.7142 L40.7409,28.7142 C41.3299,28.7142 41.6279,28.4252 41.6279,27.8552 C41.6279,27.2652 41.3299,26.9762 40.7409,26.9762 L40.7409,26.9762 Z" id="Fill-33" fill="#4A4A4A"></path>
                        <path d="M50.295,23.1752 C50.528,23.1752 50.612,23.2592 50.612,23.4922 L50.612,29.4902 C50.612,29.7242 50.528,29.8072 50.295,29.8072 L49.763,29.8072 C49.529,29.8072 49.444,29.7242 49.444,29.4902 L49.444,26.7522 C49.444,26.2762 49.464,25.9122 49.491,25.6592 C49.52,25.4082 49.577,25.0612 49.669,24.6122 L49.632,24.6122 C49.417,25.1552 49.109,25.7442 48.698,26.3882 L46.557,29.6482 C46.493,29.7512 46.39,29.8072 46.241,29.8072 L45.699,29.8072 C45.464,29.8072 45.372,29.7242 45.372,29.4902 L45.372,23.4922 C45.372,23.2592 45.464,23.1752 45.699,23.1752 L46.232,23.1752 C46.465,23.1752 46.549,23.2592 46.549,23.4922 L46.549,26.2012 C46.549,26.6792 46.54,27.0432 46.513,27.3042 C46.484,27.5662 46.419,27.9202 46.324,28.3692 L46.362,28.3692 C46.596,27.7802 46.913,27.1632 47.334,26.5202 L49.436,23.3242 C49.502,23.2222 49.604,23.1752 49.744,23.1752 L50.295,23.1752 Z" id="Fill-35" fill="#4A4A4A"></path>
                        <path d="M57.6089,23.1752 C57.8419,23.1752 57.9259,23.2592 57.9259,23.4922 L57.9259,23.9502 C57.9259,24.1842 57.8419,24.2682 57.6089,24.2682 L56.0019,24.2682 L56.0019,29.4902 C56.0019,29.7242 55.9189,29.8072 55.6849,29.8072 L55.1419,29.8072 C54.9089,29.8072 54.8259,29.7242 54.8259,29.4902 L54.8259,24.2682 L53.2179,24.2682 C52.9849,24.2682 52.9009,24.1842 52.9009,23.9502 L52.9009,23.4922 C52.9009,23.2592 52.9849,23.1752 53.2179,23.1752 L57.6089,23.1752 Z" id="Fill-37" fill="#4A4A4A"></path>
                        <path d="M67.8194,26.351 C68.4554,26.621 68.7724,27.163 68.7724,27.958 C68.7724,29.218 67.9614,29.947 66.3174,29.947 C64.8304,29.947 63.8974,29.424 63.5324,28.378 C63.4584,28.181 63.5234,28.041 63.7284,27.967 L64.2424,27.789 C64.4654,27.716 64.5604,27.761 64.6444,27.986 C64.8594,28.584 65.3164,28.854 66.3174,28.854 C67.1294,28.854 67.5404,28.537 67.5404,27.902 C67.5404,27.313 67.2214,26.968 66.6234,26.968 L65.3164,26.968 C65.0824,26.968 64.9984,26.885 64.9984,26.651 L64.9984,26.229 C64.9984,25.995 65.0824,25.912 65.3164,25.912 L66.4844,25.912 C67.0544,25.912 67.3714,25.585 67.3714,25.034 C67.3714,24.427 66.9984,24.129 66.2424,24.129 C65.3354,24.129 64.9154,24.39 64.6994,24.988 C64.6154,25.211 64.5234,25.258 64.2984,25.184 L63.7844,25.005 C63.5784,24.931 63.5134,24.791 63.5894,24.594 C63.9534,23.559 64.8684,23.034 66.3174,23.034 C67.7744,23.034 68.5674,23.735 68.5674,24.941 C68.5674,25.603 68.3154,26.081 67.8194,26.351" id="Fill-39" fill="#4A4A4A"></path>
                        <path d="M76.5625,29.4989 C76.6375,29.7039 76.5625,29.8069 76.3485,29.8069 L75.8615,29.8069 C75.4795,29.8069 75.3565,29.7509 75.2825,29.5269 L74.8535,28.3219 L72.2745,28.3219 L71.8355,29.5269 C71.7605,29.7509 71.6385,29.8069 71.2565,29.8069 L70.8265,29.8069 C70.6115,29.8069 70.5375,29.7039 70.6115,29.4989 L72.9475,23.4279 C73.0315,23.2119 73.1155,23.1649 73.3395,23.1649 L73.8345,23.1649 C74.0595,23.1649 74.1525,23.2219 74.2275,23.4169 L76.5625,29.4989 Z M73.8155,25.3889 C73.7035,25.0529 73.6285,24.6239 73.6015,24.4079 L73.5925,24.2489 L73.5265,24.2489 C73.5265,24.6049 73.4615,24.9779 73.3205,25.3799 L72.6015,27.3599 L74.5255,27.3599 L73.8155,25.3889 Z" id="Fill-41" fill="#4A4A4A"></path>
                        <path d="M83.7461,29.4902 C83.8571,29.7042 83.8021,29.8072 83.5871,29.8072 L83.0451,29.8072 C82.6341,29.8072 82.5221,29.7602 82.4101,29.5272 L81.4661,27.6302 C81.3351,27.3792 81.1961,27.2012 81.0551,27.1072 C80.9061,27.0232 80.6721,26.9772 80.3541,26.9772 L79.8781,26.9772 L79.8781,29.4902 C79.8781,29.7232 79.7941,29.8072 79.5601,29.8072 L79.0281,29.8072 C78.7941,29.8072 78.7011,29.7232 78.7011,29.4902 L78.7011,23.4922 C78.7011,23.2592 78.7941,23.1752 79.0281,23.1752 L79.5601,23.1752 C79.7941,23.1752 79.8781,23.2592 79.8781,23.4922 L79.8781,25.9112 L80.2511,25.9112 L80.3731,25.9112 L82.2511,23.4362 C82.4101,23.2122 82.5121,23.1752 82.8871,23.1752 L83.4841,23.1752 C83.6991,23.1752 83.7551,23.3252 83.6341,23.4842 L81.5501,26.1452 C81.9531,26.3232 82.2891,26.6782 82.5591,27.2102 L83.7461,29.4902 Z" id="Fill-43" fill="#4A4A4A"></path>
                        <path d="M91.5728,29.4989 C91.6478,29.7039 91.5728,29.8069 91.3578,29.8069 L90.8718,29.8069 C90.4878,29.8069 90.3668,29.7509 90.2928,29.5269 L89.8628,28.3219 L87.2848,28.3219 L86.8448,29.5269 C86.7708,29.7509 86.6488,29.8069 86.2668,29.8069 L85.8368,29.8069 C85.6218,29.8069 85.5478,29.7039 85.6218,29.4989 L87.9578,23.4279 C88.0418,23.2119 88.1248,23.1649 88.3498,23.1649 L88.8448,23.1649 C89.0698,23.1649 89.1618,23.2219 89.2378,23.4169 L91.5728,29.4989 Z M88.8258,25.3889 C88.7138,25.0529 88.6388,24.6239 88.6118,24.4079 L88.6018,24.2489 L88.5358,24.2489 C88.5358,24.6049 88.4718,24.9779 88.3308,25.3799 L87.6108,27.3599 L89.5348,27.3599 L88.8258,25.3889 Z" id="Fill-45" fill="#4A4A4A"></path>
                        <path d="M97.67,26.351 C98.306,26.621 98.624,27.163 98.624,27.958 C98.624,29.218 97.812,29.947 96.168,29.947 C94.681,29.947 93.748,29.424 93.383,28.378 C93.309,28.181 93.374,28.041 93.579,27.967 L94.093,27.789 C94.317,27.716 94.411,27.761 94.495,27.986 C94.711,28.584 95.167,28.854 96.168,28.854 C96.98,28.854 97.391,28.537 97.391,27.902 C97.391,27.313 97.073,26.968 96.474,26.968 L95.167,26.968 C94.934,26.968 94.85,26.885 94.85,26.651 L94.85,26.229 C94.85,25.995 94.934,25.912 95.167,25.912 L96.335,25.912 C96.905,25.912 97.222,25.585 97.222,25.034 C97.222,24.427 96.849,24.129 96.093,24.129 C95.186,24.129 94.766,24.39 94.55,24.988 C94.466,25.211 94.374,25.258 94.149,25.184 L93.635,25.005 C93.429,24.931 93.364,24.791 93.44,24.594 C93.804,23.559 94.719,23.034 96.168,23.034 C97.625,23.034 98.418,23.735 98.418,24.941 C98.418,25.603 98.167,26.081 97.67,26.351" id="Fill-47" fill="#4A4A4A"></path>
                        <path d="M108.8077,23.1752 C109.0417,23.1752 109.1257,23.2592 109.1257,23.4922 L109.1257,23.9502 C109.1257,24.1842 109.0417,24.2682 108.8077,24.2682 L105.7527,24.2682 L105.7527,25.7532 L107.5267,25.7532 C108.7887,25.7532 109.5927,26.5202 109.5927,27.7802 C109.5927,29.0422 108.7887,29.8072 107.5267,29.8072 L104.8937,29.8072 C104.6677,29.8072 104.5757,29.7322 104.5757,29.5082 L104.5757,23.4922 C104.5757,23.2592 104.6677,23.1752 104.9017,23.1752 L108.8077,23.1752 Z M108.3587,27.7802 C108.3587,27.4902 108.2747,27.2652 108.1077,27.0982 C107.9387,26.9302 107.7047,26.8462 107.4067,26.8462 L105.7527,26.8462 L105.7527,28.7142 L107.4067,28.7142 C107.7047,28.7142 107.9387,28.6312 108.1077,28.4622 C108.2747,28.2942 108.3587,28.0692 108.3587,27.7802 L108.3587,27.7802 Z" id="Fill-49" fill="#4A4A4A"></path>
                        <path d="M112.3272,29.8075 C112.0942,29.8075 112.0012,29.7235 112.0012,29.4895 L112.0012,23.4925 C112.0012,23.2585 112.0942,23.1755 112.3272,23.1755 L112.8612,23.1755 C113.0942,23.1755 113.1782,23.2585 113.1782,23.4925 L113.1782,25.4825 L114.8042,25.4825 C116.1592,25.4825 117.0072,26.2955 117.0072,27.6405 C117.0072,28.9845 116.1592,29.8075 114.8042,29.8075 L112.3272,29.8075 Z M113.1782,26.5755 L113.1782,28.7145 L114.6912,28.7145 C115.3742,28.7145 115.7752,28.3125 115.7752,27.6405 C115.7752,26.9675 115.3742,26.5755 114.6912,26.5755 L113.1782,26.5755 Z M117.9982,23.4925 C117.9982,23.2585 118.0822,23.1755 118.3162,23.1755 L118.8482,23.1755 C119.0812,23.1755 119.1652,23.2585 119.1652,23.4925 L119.1652,29.4895 C119.1652,29.7235 119.0812,29.8075 118.8482,29.8075 L118.3162,29.8075 C118.0822,29.8075 117.9982,29.7235 117.9982,29.4895 L117.9982,23.4925 Z" id="Fill-51" fill="#4A4A4A"></path>
                        <path d="M121.7745,25.4638 C121.7745,23.9598 122.7365,23.0348 124.4445,23.0348 C125.7715,23.0348 126.6225,23.5588 126.9855,24.5938 C127.0605,24.7918 126.9965,24.9298 126.7905,25.0058 L126.2765,25.1828 C126.0515,25.2578 125.9595,25.2108 125.8745,24.9878 C125.6695,24.4178 125.1925,24.1288 124.4445,24.1288 C123.4825,24.1288 122.9515,24.5938 122.9515,25.4548 L122.9515,27.5188 C122.9515,28.3788 123.4825,28.8538 124.4445,28.8538 C125.1835,28.8538 125.6595,28.5648 125.8745,27.9858 C125.9775,27.7528 126.0625,27.7048 126.2855,27.7888 L126.7905,27.9668 C126.9965,28.0418 127.0605,28.1818 126.9965,28.3788 C126.6305,29.4238 125.7815,29.9468 124.4445,29.9468 C122.7365,29.9468 121.7745,29.0318 121.7745,27.5098 L121.7745,25.4638 Z" id="Fill-53" fill="#4A4A4A"></path>
                        <path d="M133.6363,23.1752 C133.8693,23.1752 133.9533,23.2592 133.9533,23.4922 L133.9533,23.9502 C133.9533,24.1842 133.8693,24.2682 133.6363,24.2682 L132.0293,24.2682 L132.0293,29.4902 C132.0293,29.7242 131.9463,29.8072 131.7123,29.8072 L131.1693,29.8072 C130.9363,29.8072 130.8533,29.7242 130.8533,29.4902 L130.8533,24.2682 L129.2453,24.2682 C129.0123,24.2682 128.9283,24.1842 128.9283,23.9502 L128.9283,23.4922 C128.9283,23.2592 129.0123,23.1752 129.2453,23.1752 L133.6363,23.1752 Z" id="Fill-55" fill="#4A4A4A"></path>
                        <path d="M139.0332,23.1752 C140.3872,23.1752 141.2362,23.9962 141.2362,25.3422 C141.2362,26.6872 140.3872,27.5002 139.0332,27.5002 L137.4072,27.5002 L137.4072,29.4902 C137.4072,29.7242 137.3242,29.8072 137.0902,29.8072 L136.5562,29.8072 C136.3232,29.8072 136.2302,29.7242 136.2302,29.4902 L136.2302,23.4922 C136.2302,23.2592 136.3232,23.1752 136.5562,23.1752 L139.0332,23.1752 Z M138.9202,26.4072 C139.6032,26.4072 140.0042,26.0152 140.0042,25.3422 C140.0042,24.6692 139.6032,24.2682 138.9202,24.2682 L137.4072,24.2682 L137.4072,26.4072 L138.9202,26.4072 Z" id="Fill-57" fill="#4A4A4A"></path>
                        <path d="M143.4502,25.4726 C143.4502,23.9506 144.4122,23.0346 146.1202,23.0346 C147.8112,23.0346 148.7842,23.9506 148.7842,25.4726 L148.7842,27.5106 C148.7842,29.0326 147.8112,29.9476 146.1202,29.9476 C144.4122,29.9476 143.4502,29.0326 143.4502,27.5106 L143.4502,25.4726 Z M147.6172,25.4636 C147.6172,24.6036 147.0832,24.1286 146.1202,24.1286 C145.1592,24.1286 144.6272,24.5946 144.6272,25.4636 L144.6272,27.5186 C144.6272,28.3876 145.1592,28.8546 146.1202,28.8546 C147.0832,28.8546 147.6172,28.3776 147.6172,27.5186 L147.6172,25.4636 Z" id="Fill-59" fill="#4A4A4A"></path>
                    </g>
                </g>
                <g id="Page-1">
                    <g id="Group-3" transform="translate(0.000000, 0.045832)" fill="#50E3C2">
                        <path d="M42.0482317,14.0546024 C41.6192805,13.2795537 40.9984024,12.6062366 40.2233537,12.1049195 L24.4255732,1.90343171 C23.4963537,1.30352927 22.4276463,1.00252927 21.358939,1.00252927 C20.2902317,1.00252927 19.2215244,1.30352927 18.2923049,1.90343171 L2.49452439,12.1049195 C1.71947561,12.6062366 1.09859756,13.2795537 0.669646341,14.0546024 C0.2365,14.8369927 0.000524390244,15.7211146 0.000524390244,16.6377488 L0.000524390244,32.4250415 C0.000524390244,33.3311878 0.232304878,34.2090171 0.657060976,34.9851146 C1.07867073,35.7570171 1.69115854,36.4292854 2.45676829,36.9316512 L18.2545488,47.3187732 C19.1932073,47.9354561 20.2755488,48.2437976 21.358939,48.2437976 C22.4423293,48.2437976 23.5246707,47.9354561 24.4633293,47.3187732 L40.2611098,36.9316512 C41.0267195,36.4292854 41.6392073,35.7570171 42.0608171,34.9851146 C42.4855732,34.2090171 42.7184024,33.3311878 42.7184024,32.4250415 L42.7184024,16.6377488 C42.7184024,15.7211146 42.481378,14.8369927 42.0482317,14.0546024" id="Fill-1"></path>
                    </g>
                    <polygon id="Fill-6" fill="#D9EDE6" points="22.0379195 24.8734024 22.1469927 24.9289878 22.1469927 24.8178171"></polygon>
                    <polygon id="Fill-8" fill="#FFFFFF" points="21.9748878 20.6352805 23.0373024 20.6352805 23.0373024 19.4134512 24.2591317 19.4134512 24.2591317 18.3499878 23.0373024 18.3499878 23.0373024 17.1281585 21.9748878 17.1281585 21.9748878 18.3499878 20.7520098 18.3499878 20.7520098 19.4134512 21.9748878 19.4134512"></polygon>
                    <path d="M30.3640829,24.0914317 L30.3640829,15.3330659 L22.5244488,10.1153829 L14.6481073,15.3571878 L14.6481073,18.3504073 L10.1278634,18.3504073 L10.1278634,23.1936756 L17.0571561,27.8869683 L15.2134,29.1350171 L15.2134,32.7501634 L17.5039366,34.3117976 L17.5039366,35.2441634 L14.291522,37.4235293 L15.2354244,38.0674805 L18.5747415,35.8063098 L18.5747415,31.9614805 L20.8736683,30.4082366 L20.8736683,35.8283341 L24.2035463,38.0286756 L25.1107415,37.3752854 L21.9360829,35.265139 L21.9360829,32.8319683 L26.9356195,36.1618463 L27.8679854,35.5252366 L21.9360829,31.5755293 L21.9360829,29.689822 L30.3640829,24.0914317 Z M11.1913268,22.6294317 L11.1913268,19.4138707 L14.6481073,19.4138707 L14.6481073,22.2959195 L18.0545463,24.5623341 L21.6959122,22.1333585 L19.0917902,20.3881878 L19.0917902,17.4190902 L22.5076683,15.1337976 L25.9476683,17.4127976 L25.9476683,21.901578 L20.8736683,25.3174561 L18.0262293,27.2346268 L11.1913268,22.6294317 Z M17.4976439,31.3710171 L17.4934488,32.6914317 L17.4976439,32.6882854 L17.4976439,33.0217976 L16.2758146,32.1890659 L16.2758146,29.699261 L27.0111317,22.5109195 L27.0111317,19.0656756 L27.0111317,16.8632366 L22.504522,13.8784073 L18.0283268,16.870578 L18.0388146,20.960822 L19.8154488,22.1302122 L18.0555951,23.3069439 L15.710522,21.7589439 L15.710522,15.9046512 L22.5244488,11.3697244 L29.3016683,15.8794805 L29.3016683,23.5271878 L20.8736683,29.1140415 L17.4976439,31.3710171 Z" id="Fill-10" fill="#FFFFFF"></path>
                </g>
            </g>
        </g>
    </g>
</svg>